<?xml version="1.0" encoding="UTF-8" standalone="no"?>
<!-- Created with Inkscape (http://www.inkscape.org/) -->

<svg
   xmlns:dc="http://purl.org/dc/elements/1.1/"
   xmlns:cc="http://creativecommons.org/ns#"
   xmlns:rdf="http://www.w3.org/1999/02/22-rdf-syntax-ns#"
   xmlns:svg="http://www.w3.org/2000/svg"
   xmlns="http://www.w3.org/2000/svg"
   xmlns:sodipodi="http://sodipodi.sourceforge.net/DTD/sodipodi-0.dtd"
   xmlns:inkscape="http://www.inkscape.org/namespaces/inkscape"
   width="900mm"
   height="500mm"
   viewBox="0 0 900 500"
   version="1.1"
   id="svg55"
   inkscape:version="0.92.2 (5c3e80d, 2017-08-06)"
   sodipodi:docname="header_full.svg"
   inkscape:export-filename="/home/jwestman/Documents/Programming/openworldcrafter/repos/openworldcrafter/resources/docs/logos/header_full.png"
   inkscape:export-xdpi="25.4"
   inkscape:export-ydpi="25.4">
  <defs
     id="defs49" />
  <sodipodi:namedview
     id="base"
     pagecolor="#ffffff"
     bordercolor="#666666"
     borderopacity="1.0"
     inkscape:pageopacity="0.0"
     inkscape:pageshadow="2"
     inkscape:zoom="0.175"
     inkscape:cx="1882.0472"
     inkscape:cy="588.57137"
     inkscape:document-units="mm"
     inkscape:current-layer="layer1"
     showgrid="false"
     inkscape:window-width="1366"
     inkscape:window-height="731"
     inkscape:window-x="0"
     inkscape:window-y="0"
     inkscape:window-maximized="1" />
  <metadata
     id="metadata52">
    <rdf:RDF>
      <cc:Work
         rdf:about="">
        <dc:format>image/svg+xml</dc:format>
        <dc:type
           rdf:resource="http://purl.org/dc/dcmitype/StillImage" />
        <dc:title></dc:title>
      </cc:Work>
    </rdf:RDF>
  </metadata>
  <g
     inkscape:label="Layer 1"
     inkscape:groupmode="layer"
     id="layer1"
     transform="translate(618.15472,195.44049)">
    <rect
       style="opacity:1;fill:#333333;fill-opacity:1;fill-rule:nonzero;stroke:none;stroke-width:31.50320816;stroke-linecap:round;stroke-linejoin:round;stroke-miterlimit:4;stroke-dasharray:none;stroke-opacity:1;paint-order:normal"
       id="rect95"
       width="900"
       height="500"
       x="-618.15472"
       y="-195.44049"
       rx="0"
       ry="0" />
    <g
       id="g4851"
       transform="translate(-156.81543,-129.04764)">
      <g
         inkscape:label="Layer 1"
         id="layer1-6"
         transform="matrix(1.4658678,0,0,1.4658678,-458.26267,5.5771056)">
        <rect
           ry="1.9936157"
           y="5.4673133"
           x="-157.62346"
           height="12.916506"
           width="3.9872315"
           id="rect4502"
           style="fill:#800080;stroke:#000000;stroke-width:0"
           transform="rotate(-131.00471)" />
        <circle
           style="fill:#00009d;fill-opacity:1;stroke:#000000;stroke-width:0"
           id="circle4294"
           cx="-51.133606"
           cy="147.86513"
           r="24.022873"
           transform="rotate(-58.159577)" />
        <path
           style="fill:#00008b;fill-opacity:1;stroke:#000000;stroke-width:0"
           d="m 187.14258,72.423828 a 41.635419,98.226391 31.840423 0 1 -25.44141,92.474612 41.635419,98.226391 31.840423 0 1 -50.06836,54.57422 90.795109,90.795109 0 0 0 41.64453,-7.67383 62.197311,146.73606 31.840423 0 0 25.89063,-36.05274 62.197311,146.73606 31.840423 0 0 27.4043,-55.0039 90.795109,90.795109 0 0 0 -19.42969,-48.318362 z"
           transform="matrix(0.26458333,0,0,0.26458333,67.859423,87.332479)"
           id="path6192"
           inkscape:connector-curvature="0" />
        <path
           style="fill:#00008b;fill-opacity:1;stroke:#000000;stroke-width:0"
           d="m 175.80273,60.470703 c -3.03076,0.450716 -5.97709,1.73233 -8.4707,3.900391 L 70.712891,148.37695 c -2.478085,-0.75704 -5.111492,-1.16797 -7.84375,-1.16797 -14.023537,0 -25.44219,10.72573 -26.554688,24.45313 a 90.79511,90.79511 0 0 0 32.117188,34.4043 90.79511,90.79511 0 0 0 21.091797,9.55468 v -39.50976 l 93.955082,-81.687502 11.58398,13.324222 -7.04883,6.1289 c -3.1502,2.73888 -3.48102,7.47871 -0.74219,10.62891 l 18.31446,21.06641 a 90.79511,90.79511 0 0 0 1.30468,-21.46875 l -3.30273,-3.79883 2.82813,-2.45703 a 90.79511,90.79511 0 0 0 -10,-31.507816 l -2.75,-3.16211 c 0.13738,-0.33813 0.26254,-0.680393 0.37695,-1.02539 A 90.79511,90.79511 0 0 0 175.80273,60.470703 Z"
           transform="matrix(0.26458333,0,0,0.26458333,67.859423,87.332479)"
           id="rect6202"
           inkscape:connector-curvature="0" />
        <g
           id="g4548"
           style="fill:#00a035;fill-opacity:1">
          <rect
             transform="rotate(-41.004706)"
             style="fill:#00a035;fill-opacity:1;stroke:#000000;stroke-width:0"
             id="rect4506"
             width="3.9872315"
             height="12.916506"
             x="15.594605"
             y="154.67783"
             ry="1.9936157" />
          <rect
             ry="1.9936157"
             y="6.6653295"
             x="-158.66505"
             height="12.916506"
             width="3.9872315"
             id="rect4500"
             style="fill:#00a035;fill-opacity:1;stroke:#000000;stroke-width:0"
             transform="rotate(-131.00471)" />
        </g>
        <path
           style="fill:#80002f;fill-opacity:1;stroke:#000000;stroke-width:0"
           d="m 174.66992,0.1484375 a 62.197311,146.73606 31.840423 0 0 -65.5039,38.2714845 c 13.15423,-1.051802 26.61723,0.750274 39.41601,5.628906 a 41.635419,98.226391 31.840423 0 1 19.56836,1.439453 41.635419,98.226391 31.840423 0 1 -16.44922,105.410159 41.635419,98.226391 31.840423 0 1 -61.021482,60.57812 c -0.631636,0.33746 -1.302892,0.6083 -2.017579,0.80469 a 41.635419,98.226391 31.840423 0 1 -24.15039,0.0977 41.635419,98.226391 31.840423 0 1 -9.976563,-16.91016 C 44.480762,186.15084 36.895217,174.87097 32.007812,162.60156 a 62.197311,146.73606 31.840423 0 0 6.91211,90.98828 A 62.197311,146.73606 31.840423 0 0 169.16797,161.74609 62.197311,146.73606 31.840423 0 0 193.74219,4.2773438 62.197311,146.73606 31.840423 0 0 174.66992,0.1484375 Z"
           transform="matrix(0.26458333,0,0,0.26458333,67.859423,87.332479)"
           id="path4267"
           inkscape:connector-curvature="0" />
        <path
           style="fill:#6c0324;fill-opacity:1;stroke:#000000;stroke-width:0"
           d="m 32.007812,162.60156 a 62.19731,146.73606 31.840423 0 0 6.91211,90.98828 62.19731,146.73606 31.840423 0 0 32.384766,1.20508 v -40.04687 a 41.635418,98.22639 31.840423 0 1 -6.792969,-2.36914 41.635418,98.22639 31.840423 0 1 -9.976563,-16.91016 C 44.480762,186.15084 36.895217,174.87097 32.007812,162.60156 Z"
           transform="matrix(0.26458333,0,0,0.26458333,67.859423,87.332479)"
           id="path6246"
           inkscape:connector-curvature="0" />
        <path
           style="fill:#00a035;fill-opacity:1;stroke:#000000;stroke-width:0"
           d="m 74.911191,119.86658 c -3.906605,0 -7.051768,3.14517 -7.051768,7.05177 v 28.20603 c 0,0.14614 0.0058,0.29123 0.01447,0.43512 h 14.074592 c 0.0087,-0.14389 0.01447,-0.28898 0.01447,-0.43512 v -28.20603 c 0,-3.9066 -3.145163,-7.05177 -7.051764,-7.05177 z"
           id="rect4458"
           inkscape:connector-curvature="0" />
        <path
           style="fill:#00a035;fill-opacity:1;stroke:#000000;stroke-width:0"
           d="m 102.59426,101.03828 8.60051,9.8919 c 0.72466,0.83349 1.97926,0.92155 2.81275,0.19688 0.83349,-0.72466 0.92103,-1.97925 0.19637,-2.81274 l -6.32623,-7.27604 z"
           id="rect4472-5"
           inkscape:connector-curvature="0" />
        <path
           style="fill:#00a035;fill-opacity:1;stroke:#000000;stroke-width:0"
           d="m 105.32329,96.866955 c -0.9851,0.02572 -1.96784,0.382111 -2.77295,1.082103 L 75.234683,121.69851 v 11.66492 l 33.091527,-28.77085 c 1.84026,-1.59998 2.03406,-4.36917 0.43408,-6.209438 -0.89999,-1.035151 -2.17043,-1.549263 -3.437,-1.516187 z"
           id="rect4472"
           inkscape:connector-curvature="0" />
        <path
           style="fill:#6c0324;fill-opacity:1;stroke:#000000;stroke-width:0"
           d="m 174.44727,101 a 41.635419,98.226391 31.840423 0 1 -5.69532,16.41406 l 12.44336,14.31446 c 0.95118,1.09402 2.14606,1.84063 3.42969,2.24414 a 62.197311,146.73606 31.840423 0 0 6.46484,-13.83204 z"
           transform="matrix(0.26458333,0,0,0.26458333,67.859423,87.332479)"
           id="rect6100"
           inkscape:connector-curvature="0" />
        <rect
           style="fill:#00a035;fill-opacity:1;stroke:#000000;stroke-width:0"
           id="rect4504"
           width="3.9872315"
           height="12.916506"
           x="6.6653295"
           y="154.67783"
           ry="1.9936157"
           transform="rotate(-41.004706)" />
      </g>
      <path
         id="path1195"
         d="m 221.41014,149.98227 c -8.29233,0 -14.22233,3.19537 -17.41133,7.37268 -3.1093,4.07292 -3.70123,8.3919 -3.72949,11.16366 h -0.9684 a 5.0005001,5.0005001 0 0 0 -5.00023,5.00021 v 0.46147 c -0.50255,-0.60083 -1.03899,-1.17544 -1.64279,-1.69447 -4.05101,-3.48229 -9.46698,-4.58628 -15.67241,-4.58628 -2.74185,0 -5.62338,0.30856 -8.22018,0.7922 -2.26484,0.4218 -4.06202,0.72341 -6.09058,1.85311 a 5.0005001,5.0005001 0 0 0 -1.17099,-0.76584 c -2.78876,-1.29479 -5.77842,-1.87947 -8.73125,-1.87947 -2.97003,0 -5.84039,0.7625 -8.51525,2.09031 a 5.0005001,5.0005001 0 0 0 -3.32123,-1.27124 h -6.4022 a 5.0005001,5.0005001 0 0 0 -4.51602,2.86701 5.0005001,5.0005001 0 0 0 -0.78856,-0.61805 c -2.76056,-1.72537 -7.1129,-3.06803 -14.33764,-3.06803 -7.12134,0 -13.49264,2.14292 -18.057278,6.37894 -1.98893,1.84571 -3.55492,4.08074 -4.71911,6.56549 v -24.768 a 5.0005001,5.0005001 0 0 0 -5.0002,-5.00021 h -9.15655 a 5.0005001,5.0005001 0 0 0 -5.00022,5.00021 v 12.21579 c -1.40933,-0.23439 -2.84052,-0.39222 -4.30517,-0.39222 -7.08956,0 -13.08899,2.50229 -16.82015,7.00009 -3.73118,4.4978 -5.07875,10.36009 -5.07875,16.53646 0,2.15098 0.23108,4.24245 0.65833,6.25026 a 5.0005001,5.0005001 0 0 0 -0.59428,0.008 c -0.0608,-0.62872 -0.12141,-1.37798 -0.12141,-2.31252 v -39.30586 a 5.0005001,5.0005001 0 0 0 -5.00023,-5.00021 h -9.15654 a 5.0005001,5.0005001 0 0 0 -5.00021,5.00021 v 13.04985 c -2.30224,-0.82444 -4.69934,-1.22628 -7.07813,-1.22628 -2.97003,0 -5.84038,0.7625 -8.51524,2.09031 a 5.0005001,5.0005001 0 0 0 -3.3212399,-1.27124 h -6.4022 a 5.0005001,5.0005001 0 0 0 -5.0002,5.00021 v 6.98976 c -1.0664,-2.34289 -2.48372,-4.46966 -4.27779,-6.26371 -4.2609801,-4.26101 -10.3410201,-6.54533 -17.0842201,-6.54533 -6.74643,0 -12.82779,2.22412 -17.1168,6.4487 a 5.0005001,5.0005001 0 0 0 -4.95575,-5.62963 h -9.60302 a 5.0005001,5.0005001 0 0 0 -4.81367,3.64784 l -2.70164,9.61853 -2.79363,-9.65574 a 5.0005001,5.0005001 0 0 0 -4.80282,-3.61063 h -9.97561 a 5.0005001,5.0005001 0 0 0 -4.7992,3.59823 l -2.8484,9.75083 -2.72489,-9.70071 a 5.0005001,5.0005001 0 0 0 -4.81366,-3.64835 h -9.677962 a 5.0005001,5.0005001 0 0 0 -4.92786,4.15582 c -3.12177,-3.23497 -7.8785,-4.97489 -13.25242,-4.97489 -3.51629,0 -7.06176,0.6827 -10.55078,1.94096 a 5.0005001,5.0005001 0 0 0 -3.14658,-1.12189 h -6.40219 a 5.0005001,5.0005001 0 0 0 -5.00022,5.00021 v 5.40019 c -0.78857,-1.74177 -1.77498,-3.3539 -3.02462,-4.77904 -3.768,-4.29717 -9.51516,-6.44043 -15.8936,-6.44043 -9.07391,0 -16.29593,5.20687 -19.95227,12.52482 -0.69863,-1.91344 -1.63203,-3.71145 -2.86753,-5.34645 -3.41391,-4.51782 -9.15667,-7.17837 -15.82538,-7.17837 -4.01425,0 -7.56464,0.87367 -10.69754,2.12958 a 5.0005001,5.0005001 0 0 0 -3.3724,-1.31051 h -5.73196 a 5.0005001,5.0005001 0 0 0 -5.00021,5.00021 v 7.15874 c -1.07358,-2.41004 -2.5153,-4.59579 -4.35219,-6.43269 -4.261,-4.26101 -10.34102,-6.54533 -17.08423,-6.54533 -6.79271,0 -12.91613,2.24962 -17.2098,6.53086 -4.29367,4.28125 -6.5505,10.39202 -6.5505,17.15452 0,6.6722 2.25767,12.74721 6.50709,17.04547 4.24943,4.29825 10.33919,6.64042 17.10438,6.64042 6.77616,0 12.89233,-2.36382 17.17363,-6.68176 1.86153,-1.87747 3.32444,-4.10861 4.41162,-6.56705 v 26.78493 a 5.0005001,5.0005001 0 0 0 5.00021,5.00022 h 9.15656 a 5.0005001,5.0005001 0 0 0 5.00021,-5.00022 v -13.90509 c 1.33468,0.21983 2.67242,0.36897 4.00699,0.36897 6.59839,0 12.45185,-2.63002 16.31165,-7.05538 1.49882,-1.71843 2.69035,-3.67125 3.5972,-5.78673 1.07507,2.41852 2.52329,4.60352 4.39146,6.42958 4.37657,4.27789 10.61331,6.41253 17.62064,6.41253 5.33738,0 10.47602,-0.91918 15.305,-2.47427 a 5.0005001,5.0005001 0 0 0 2.28979,-1.54564 5.0005001,5.0005001 0 0 0 4.68602,3.27525 h 9.15654 a 5.0005001,5.0005001 0 0 0 5.00022,-5.00021 v -23.51743 c 1.65528,-0.44794 2.92087,-0.66404 3.5605,-0.66404 1.06654,0 0.85577,0.0796 0.95033,0.19947 0.0946,0.1199 0.45165,0.83314 0.45165,2.24482 v 21.73718 a 5.0005001,5.0005001 0 0 0 5.00023,5.00021 h 9.15654 a 5.0005001,5.0005001 0 0 0 5.0002,-5.00021 v -20.62096 c 0,-0.18952 -0.0204,-0.36995 -0.0222,-0.55863 l 8.277022,22.88026 a 5.0005001,5.0005001 0 0 0 4.70203,3.29954 h 8.71006 a 5.0005001,5.0005001 0 0 0 4.74908,-3.43597 l 3.44887,-10.47119 3.34347,10.43295 a 5.0005001,5.0005001 0 0 0 4.76146,3.47421 h 8.56073 a 5.0005001,5.0005001 0 0 0 4.69842,-3.29075 l 6.6952,-18.40147 c 0.26614,6.1756 2.47248,11.76966 6.45335,15.79646 4.24928,4.2983 10.33917,6.64042 17.10438,6.64042 6.77617,0 12.89233,-2.36382 17.1736301,-6.68176 1.8188,-1.83438 3.25702,-4.00645 4.33721,-6.39755 v 7.33444 a 5.0005001,5.0005001 0 0 0 5.0002,5.00021 h 8.9333099 a 5.0005001,5.0005001 0 0 0 5.0002,-5.00021 v -23.42389 c 0.60249,-0.27559 1.14909,-0.38551 1.69966,-0.38551 1.12464,0 3.74727,0.75342 4.5961,1.3193 a 5.0005001,5.0005001 0 0 0 5.08754,0.2651 v 9.94203 c 0,3.76784 0.43982,8.01277 3.02099,11.79101 2.5812,3.77824 7.49983,6.23683 13.36871,6.23683 3.55817,0 6.51277,-0.95963 6.51277,-0.95963 a 5.0005001,5.0005001 0 0 0 3.53933,-4.56975 c 3.80061,3.49584 9.0215,5.52938 14.82027,5.52938 3.15031,0 6.31663,-0.65774 9.39839,-1.88981 a 5.0005001,5.0005001 0 0 0 3.18276,1.14515 h 5.73196 a 5.0005001,5.0005001 0 0 0 5.0002,-5.00021 v -7.44709 c 1.20332,2.54088 2.83175,4.82934 4.886,6.71742 4.611748,4.23866 11.026218,6.47454 18.188048,6.47454 6.62267,0 11.36028,-1.62348 13.66789,-2.7094 a 5.0005001,5.0005001 0 0 0 1.20873,-0.80408 5.0005001,5.0005001 0 0 0 4.46794,2.76882 h 8.93331 a 5.0005001,5.0005001 0 0 0 5.0002,-5.00021 v -23.42389 c 0.60246,-0.27559 1.14909,-0.38551 1.69963,-0.38551 1.12472,0 3.74819,0.75368 4.59663,1.3193 a 5.0005001,5.0005001 0 0 0 7.38974,-2.25413 5.0005001,5.0005001 0 0 0 1.7296,1.62833 c -1.52238,0.93992 -2.94216,2.10401 -4.09794,3.62097 -1.94702,2.55546 -2.98638,5.91051 -2.98638,9.51931 0,4.81934 2.26126,9.1872 5.67457,11.86336 3.41331,2.67617 7.72827,3.85713 12.20444,3.85713 3.10017,0 6.10079,-0.51044 8.82994,-1.59732 a 5.0005001,5.0005001 0 0 0 2.78331,0.85266 h 7.14631 a 5.0005001,5.0005001 0 0 0 5.00023,-5.00021 v -22.10976 c 0,-0.55442 -0.0307,-1.09755 -0.0605,-1.64073 a 5.0005001,5.0005001 0 0 0 0.92398,0.0899 h 0.95496 v 23.66057 a 5.0005001,5.0005001 0 0 0 5.00023,5.00022 h 9.15654 a 5.0005001,5.0005001 0 0 0 5.0002,-5.00022 v -23.66057 h 8.25066 a 5.0005001,5.0005001 0 0 0 1.59682,-0.26717 5.0005001,5.0005001 0 0 0 1.59163,0.26717 h 0.95498 v 12.12174 c 0,3.57562 0.3343,7.91037 3.29332,11.62823 2.95905,3.71786 8.09369,5.65547 14.66009,5.65547 4.43915,0 8.83076,-1.13416 11.9843,-2.33991 a 5.0005001,5.0005001 0 0 0 3.10626,-5.70611 l -0.003,-0.0114 c 0.46815,0.57396 0.96575,1.12449 1.4981,1.64486 4.37657,4.27789 10.61331,6.41252 17.62064,6.41252 5.33738,0 10.47601,-0.91917 15.305,-2.47426 a 5.0005001,5.0005001 0 0 0 2.28979,-1.54565 5.0005001,5.0005001 0 0 0 4.68601,3.27526 h 8.93281 a 5.0005001,5.0005001 0 0 0 5.0002,-5.00021 V 185.902 c 0.60245,-0.27559 1.14908,-0.38551 1.69963,-0.38551 1.12466,0 3.74822,0.75369 4.59663,1.3193 a 5.0005001,5.0005001 0 0 0 7.65953,-3.09851 l 1.86087,-8.56124 a 5.0005001,5.0005001 0 0 0 -2.78019,-5.59707 c -2.78876,-1.29479 -5.77842,-1.87947 -8.73125,-1.87947 -2.97003,0 -5.84039,0.7625 -8.51525,2.09031 a 5.0005001,5.0005001 0 0 0 -3.32126,-1.27124 h -6.40167 a 5.0005001,5.0005001 0 0 0 -5.0002,5.00021 v 5.40019 c -0.78859,-1.74177 -1.77499,-3.3539 -3.02461,-4.77904 -3.76801,-4.29717 -9.51519,-6.44043 -15.89363,-6.44043 -8.34991,0 -15.1289,4.41132 -19.00761,10.81691 v -4.99763 a 5.0005001,5.0005001 0 0 0 -5.0002,-5.00021 h -7.3577 v -6.24096 a 5.0005001,5.0005001 0 0 0 -5.00022,-5.00022 h -9.15655 a 5.0005001,5.0005001 0 0 0 -1.35961,0.19327 5.0005001,5.0005001 0 0 0 -2.49854,-4.98212 c -4.67728,-2.63847 -9.44695,-2.50631 -11.53885,-2.50631 z m 0.67027,17.22117 c 2.49174,0 3.17135,0.29986 4.23124,0.87798 a 5.0005001,5.0005001 0 0 0 1.1121,0.43719 h -8.0109 v -0.062 c 0,-0.52571 -0.0116,-1.25315 2.66756,-1.25315 z m 9.72653,0.4036 v 0.91157 h -0.95498 a 5.0005001,5.0005001 0 0 0 -1.59682,0.26716 5.0005001,5.0005001 0 0 0 -0.34208,-0.10438 5.0005001,5.0005001 0 0 0 2.89388,-1.07435 z m -102.27336,15.8166 v 15.60422 a 5.0005001,5.0005001 0 0 0 -6.74222,-2.55385 c -1.31842,0.62784 -3.08832,1.44953 -6.93187,1.44953 -2.60747,0 -4.16536,-0.7553 -5.19967,-1.78026 -1.03431,-1.02496 -1.71101,-2.48841 -1.71101,-4.75836 0,-2.47594 0.65056,-3.91261 1.57559,-4.84622 0.92507,-0.93361 2.41089,-1.69189 5.33509,-1.69189 3.89646,0 5.32035,0.73437 6.53862,1.39888 a 5.0005001,5.0005001 0 0 0 7.13547,-2.82205 z m -382.53064,1.42317 c 1.70396,0 2.40468,0.45581 3.17862,1.44643 0.77394,0.99062 1.4242,2.78206 1.4242,5.09168 0,2.46115 -0.63838,4.24177 -1.35289,5.16402 -0.71451,0.92225 -1.34735,1.3746 -3.24993,1.3746 -1.62936,0 -2.27827,-0.43103 -3.04426,-1.43299 -0.76598,-1.00196 -1.41024,-2.82427 -1.41024,-5.10563 0,-2.18566 0.63886,-4.03139 1.42316,-5.06636 0.7843,-1.03498 1.4425,-1.47175 3.03134,-1.47175 z m 228.709032,0 c 1.70394,0 2.40467,0.4558 3.17863,1.44643 0.77393,0.99062 1.4242,2.78207 1.4242,5.09168 0,2.46114 -0.63839,4.24177 -1.3529,5.16402 -0.71451,0.92226 -1.34736,1.3746 -3.24993,1.3746 -1.62938,0 -2.27788,-0.4311 -3.04374,-1.43299 -0.76586,-1.0019 -1.41025,-2.82412 -1.41025,-5.10563 0,-2.18581 0.63899,-4.03145 1.42316,-5.06636 0.7842,-1.03491 1.44196,-1.47175 3.03083,-1.47175 z m 284.856498,0.27854 c -0.5163,2.01399 -0.80769,4.11185 -0.80769,6.25957 0,1.95054 0.20156,3.83658 0.56071,5.64978 a 5.0005001,5.0005001 0 0 0 -3.04065,-0.11989 c -1.12858,0.31349 -3.63844,0.8599 -5.28704,0.8599 -0.63002,0 -0.82896,-0.048 -1.0237,-0.0842 -0.003,-0.063 -0.006,-0.037 -0.006,-0.12661 v -11.8985 h 7.35769 a 5.0005001,5.0005001 0 0 0 2.24687,-0.54002 z m -469.41162,0.0191 c 1.99947,0 1.99544,0.20686 2.45411,0.91105 0.45867,0.7042 1.03198,2.69956 1.03198,5.70198 0,2.7187 -0.64972,4.25874 -1.24178,4.96921 -0.59207,0.71047 -1.20346,1.12241 -3.1378,1.12241 -1.00165,0 -1.80356,-0.1008 -2.51819,-0.31161 v -11.8091 c 1.20785,-0.33208 2.4573,-0.58394 3.41168,-0.58394 z m 279.729662,0 c 0.62251,0 1.37205,0.16747 2.07172,0.3576 v 11.98273 c -0.75634,0.24889 -1.59954,0.36432 -2.66753,0.36432 -1.93435,0 -2.54572,-0.41194 -3.1378,-1.12241 -0.59206,-0.71048 -1.24177,-2.25052 -1.24177,-4.96921 0,-2.91366 0.59711,-4.68461 1.13739,-5.38985 0.54028,-0.70525 1.10175,-1.22318 3.83799,-1.22318 z m -219.932812,13.5015 v 2.8329 l -0.45733,-1.75286 a 5.0005001,5.0005001 0 0 0 -0.24702,-0.70229 5.0005001,5.0005001 0 0 0 0.70435,-0.37775 z m 450.29396,0 v 2.8329 l -0.45733,-1.75286 a 5.0005001,5.0005001 0 0 0 -0.24702,-0.70229 5.0005001,5.0005001 0 0 0 0.70435,-0.37775 z"
         style="font-style:normal;font-variant:normal;font-weight:bold;font-stretch:normal;font-size:medium;line-height:1.25;font-family:Cantarell;-inkscape-font-specification:'Cantarell, Bold';font-variant-ligatures:normal;font-variant-caps:normal;font-variant-numeric:normal;font-feature-settings:normal;text-align:start;letter-spacing:0px;word-spacing:0px;writing-mode:lr-tb;text-anchor:start;fill:#000000;fill-opacity:1;stroke:none;stroke-width:1.86109293"
         inkscape:connector-curvature="0" />
      <path
         id="path1145"
         d="m 221.41014,154.98248 c -14.29306,0 -16.15403,9.82629 -16.15403,13.77177 v 4.76457 h -5.95519 v 7.14634 h 5.95519 v 28.66078 h 9.15654 v -28.66078 h 13.25086 v -7.14634 h -13.25086 v -5.06222 c 0,-3.42437 2.97783,-6.25337 7.66776,-6.25337 3.12661,0 4.98766,0.59548 6.62543,1.4888 l 1.78644,-6.84868 c -2.90327,-1.63775 -7.44437,-1.86087 -9.08214,-1.86087 z m -188.870108,0.89349 v 41.167 c 0,6.55099 1.93521,13.02763 11.38949,13.02763 2.60551,0 5.06222,-0.74466 5.06222,-0.74466 l -1.78647,-6.84868 c 0,0 -0.96795,0.22325 -2.08462,0.22325 -2.90328,0 -3.42408,-2.90345 -3.42408,-7.51893 v -39.30561 z m 45.41842,0 v 19.20606 c -2.67996,-1.63776 -5.73211,-2.38228 -9.30539,-2.38228 -12.05979,0 -16.8987,7.66765 -16.8987,18.53634 0,10.86871 6.32772,18.83451 17.04753,18.83451 3.57327,0 7.1465,-0.96811 10.71978,-3.05253 l 1.86137,2.30787 h 5.73196 v -53.44997 z m 158.848688,6.40168 v 11.24117 h -5.95518 v 7.14634 h 5.95518 v 17.12195 c 0,6.32767 1.5634,12.28349 12.95321,12.28349 3.42442,0 7.66781,-1.04247 10.19887,-2.01021 l -1.33996,-6.32779 c -1.33998,0.37223 -4.09437,1.04232 -6.62546,1.04232 -4.91323,0 -6.03011,-2.45665 -6.03011,-5.21105 v -16.89871 h 12.35792 v -7.14634 h -12.35792 v -11.24117 z m -489.65537,10.4221 c -11.46424,0 -18.76009,7.29537 -18.76009,18.68517 0,11.16648 7.29591,18.68568 18.61126,18.68568 11.31537,0 18.75958,-7.59358 18.75958,-18.83451 0,-11.16647 -7.29538,-18.53634 -18.61075,-18.53634 z m 46.23853,0 c -4.8388,0 -8.78468,1.41466 -12.20907,3.35018 l -1.86087,-2.53111 h -5.73196 v 55.08812 h 9.15656 v -20.69538 c 2.97773,1.48885 5.95503,2.15904 9.0072,2.15904 10.71979,0 17.04752,-7.9658 17.04752,-18.83451 0,-10.86869 -4.39179,-18.53634 -15.40938,-18.53634 z m 38.64518,0 c -10.64538,0 -17.56844,8.33756 -17.56844,18.68517 0,11.61314 7.14627,18.68568 19.20606,18.68568 4.76436,0 9.38012,-0.81904 13.77229,-2.23345 l -1.78697,-6.84869 c -3.27549,1.26555 -6.8487,1.86088 -10.79418,1.86088 -8.7843,0 -10.79402,-3.79642 -11.16624,-8.41189 h 24.56594 v -3.49902 c 0,-11.68757 -5.50864,-18.23868 -16.22846,-18.23868 z m 44.01798,0 c -4.01994,0 -8.18856,1.04254 -12.35738,3.12694 l -1.33997,-2.30787 h -6.4022 v 35.80712 h 9.15655 v -27.17198 c 3.64772,-1.33999 6.47631,-2.0097 8.56072,-2.0097 4.46656,0 6.4022,3.12679 6.4022,7.4445 v 21.73718 h 9.15654 v -20.62096 c 0,-9.75206 -2.97775,-16.00523 -13.17646,-16.00523 z m 99.807342,0 c -11.46426,0 -18.75957,7.29537 -18.75957,18.68517 0,11.16648 7.29539,18.68568 18.61074,18.68568 11.31536,0 18.7595701,-7.59358 18.7595701,-18.83451 0,-11.16647 -7.2953801,-18.53634 -18.6107401,-18.53634 z m 44.60089,0 c -3.79658,0 -7.36983,1.56357 -10.7197499,4.61574 l -1.11673,-3.79667 h -6.4022 v 35.80712 h 8.9333099 v -26.05526 c 2.08442,-1.78663 4.31766,-2.75435 6.69986,-2.75435 2.30772,0 5.35959,0.81905 7.36957,2.15904 l 1.86137,-8.56123 c -2.08441,-0.96777 -4.31768,-1.41439 -6.62543,-1.41439 z m 94.429898,0 c -12.28312,0 -20.099548,7.22093 -20.099548,18.68517 0,11.16648 8.114078,18.68568 20.397208,18.68568 5.65766,0 10.27329,-1.63792 11.53882,-2.23345 l -1.78697,-6.84869 c -1.56329,0.74444 -4.39169,1.93529 -9.08161,1.93528 -7.36987,0 -11.91091,-4.76448 -11.91091,-11.53882 0,-6.92322 4.0944,-11.53832 11.91091,-11.53832 4.68992,0 7.29504,1.11637 8.93278,2.0097 l 1.78697,-6.84868 c -1.78663,-1.11666 -5.06222,-2.30787 -11.68765,-2.30787 z m 37.8809,0 c -3.79661,0 -7.36981,1.56357 -10.71975,4.61574 l -1.11673,-3.79667 h -6.4022 v 35.80712 h 8.93331 v -26.05526 c 2.08439,-1.78663 4.31765,-2.75435 6.69983,-2.75435 2.30775,0 5.36014,0.81905 7.3701,2.15904 l 1.86087,-8.56123 c -2.08442,-0.96777 -4.31771,-1.41439 -6.62543,-1.41439 z m 24.213,0 c -4.68993,0 -10.6457,1.11677 -12.43232,2.30787 l 1.78697,6.84868 c 2.30772,-1.26554 6.40212,-2.38228 9.23094,-2.38228 6.77436,0 8.70955,1.56331 8.70955,7.89099 -11.01759,0 -22.48183,1.04216 -22.48183,11.98531 0,6.84877 5.73225,10.72028 12.87881,10.72028 4.1688,0 7.66773,-1.04251 10.42209,-3.20135 l 1.19116,2.45669 h 7.14631 v -22.10976 c 0,-10.34761 -5.28523,-14.51643 -16.45168,-14.51643 z m 105.34393,0 c -10.64538,0 -17.56841,8.33756 -17.56841,18.68517 0,11.61314 7.14626,18.68568 19.20605,18.68568 4.76435,0 9.38011,-0.81904 13.77228,-2.23345 l -1.78697,-6.84869 c -3.27547,1.26555 -6.84869,1.86088 -10.79416,1.86088 -8.78432,0 -10.79404,-3.79642 -11.16626,-8.41189 h 24.56595 v -3.49902 c 0,-11.68757 -5.50867,-18.23868 -16.22848,-18.23868 z m 42.15662,0 c -3.79661,0 -7.36984,1.56357 -10.71975,4.61574 l -1.11676,-3.79667 h -6.40167 v 35.80712 h 8.93281 v -26.05526 c 2.08441,-1.78663 4.31766,-2.75435 6.69983,-2.75435 2.30772,0 5.36014,0.81905 7.3701,2.15904 l 1.86087,-8.56123 c -2.08441,-0.96777 -4.31771,-1.41439 -6.62543,-1.41439 z m -430.25229,0.81907 12.953202,35.80712 h 8.71006 l 8.26307,-25.08736 8.03981,25.08736 h 8.56073 l 13.02763,-35.80712 h -9.60302 l -7.44453,26.50175 -7.66723,-26.50175 h -9.97561 l -7.74216,26.50175 -7.44399,-26.50175 z m -62.04944,6.25337 c 4.46659,0 6.92309,2.60534 6.92309,8.33748 h -15.33498 c 0.44665,-4.31772 2.30754,-8.33748 8.41189,-8.33748 z m 450.29394,0 c 4.46659,0 6.92311,2.60534 6.92311,8.33748 h -15.33498 c 0.44664,-4.31772 2.30753,-8.33748 8.41187,-8.33748 z m -535.47531,0.0744 c 6.17879,0 9.60304,5.13621 9.60304,11.53831 0,6.55101 -3.20091,11.53883 -9.60304,11.53883 -6.10432,0 -9.45471,-5.21115 -9.45471,-11.53883 0,-6.17877 3.35039,-11.53831 9.45471,-11.53831 z m 228.709032,0 c 6.17876,0 9.60303,5.13621 9.60303,11.53831 0,6.55101 -3.20093,11.53883 -9.60303,11.53883 -6.10436,0 -9.4542,-5.21115 -9.4542,-11.53883 0,-6.17877 3.34984,-11.53831 9.4542,-11.53831 z m -184.555122,0.29766 c 6.4021,0 8.4863,4.61559 8.4863,11.61324 0,6.99766 -3.27545,11.09184 -9.37979,11.09184 -2.90329,0 -5.35956,-0.74458 -7.5184,-2.30788 v -18.3875 c 1.78664,-0.74444 5.21083,-2.0097 8.41189,-2.0097 z m 279.729662,0 c 2.67997,0 5.58308,0.89304 7.07194,2.0097 v 18.23867 c -2.23329,1.7122 -4.76445,2.45671 -7.66775,2.45671 -6.10434,0 -9.3798,-4.09418 -9.3798,-11.09184 0,-6.99765 2.45687,-11.61324 9.97561,-11.61324 z m 113.394118,13.54853 v 7.14685 c -1.9355,1.1911 -4.09408,2.0841 -7.36957,2.0841 -3.27551,0 -5.95572,-1.26542 -5.95572,-4.24314 0,-4.98769 7.81651,-4.98781 13.32529,-4.98781 z"
         style="font-style:normal;font-variant:normal;font-weight:bold;font-stretch:normal;font-size:medium;line-height:1.25;font-family:Cantarell;-inkscape-font-specification:'Cantarell, Bold';font-variant-ligatures:normal;font-variant-caps:normal;font-variant-numeric:normal;font-feature-settings:normal;text-align:start;letter-spacing:0px;word-spacing:0px;writing-mode:lr-tb;text-anchor:start;fill:#ffffff;fill-opacity:1;stroke:none;stroke-width:1.86109293"
         inkscape:connector-curvature="0" />
    </g>
  </g>
</svg>
