<?xml version="1.0" encoding="UTF-8" standalone="no"?>
<!-- Created with Inkscape (http://www.inkscape.org/) -->

<svg
   xmlns:osb="http://www.openswatchbook.org/uri/2009/osb"
   xmlns:dc="http://purl.org/dc/elements/1.1/"
   xmlns:cc="http://creativecommons.org/ns#"
   xmlns:rdf="http://www.w3.org/1999/02/22-rdf-syntax-ns#"
   xmlns:svg="http://www.w3.org/2000/svg"
   xmlns="http://www.w3.org/2000/svg"
   xmlns:sodipodi="http://sodipodi.sourceforge.net/DTD/sodipodi-0.dtd"
   xmlns:inkscape="http://www.inkscape.org/namespaces/inkscape"
   width="68.227203mm"
   height="68.227203mm"
   viewBox="0 0 68.227203 68.227204"
   version="1.1"
   id="svg8"
   inkscape:version="0.92.2 (5c3e80d, 2017-08-06)"
   sodipodi:docname="openworldcrafter.svg"
   inkscape:export-xdpi="96"
   inkscape:export-ydpi="96">
  <defs
     id="defs2">
    <linearGradient
       id="linearGradient6082"
       osb:paint="solid">
      <stop
         style="stop-color:#ff0000;stop-opacity:1;"
         offset="0"
         id="stop6080" />
    </linearGradient>
  </defs>
  <sodipodi:namedview
     id="base"
     pagecolor="#ffffff"
     bordercolor="#666666"
     borderopacity="1.0"
     inkscape:pageopacity="0.0"
     inkscape:pageshadow="2"
     inkscape:zoom="1.8847266"
     inkscape:cx="122.45483"
     inkscape:cy="66.997524"
     inkscape:document-units="mm"
     inkscape:current-layer="layer1"
     inkscape:document-rotation="0"
     showgrid="false"
     inkscape:window-width="1366"
     inkscape:window-height="731"
     inkscape:window-x="0"
     inkscape:window-y="0"
     inkscape:window-maximized="1" />
  <metadata
     id="metadata5">
    <rdf:RDF>
      <cc:Work
         rdf:about="">
        <dc:format>image/svg+xml</dc:format>
        <dc:type
           rdf:resource="http://purl.org/dc/dcmitype/StillImage" />
        <dc:title></dc:title>
      </cc:Work>
    </rdf:RDF>
  </metadata>
  <g
     inkscape:label="Layer 1"
     inkscape:groupmode="layer"
     id="layer1"
     transform="translate(-67.859423,-87.332478)">
    <rect
       ry="1.9936157"
       y="10.057143"
       x="-161.614"
       height="12.916506"
       width="3.9872315"
       id="rect4502"
       style="fill:#800080;stroke:#000000;stroke-width:0"
       transform="rotate(-131.00471)" />
    <circle
       style="fill:#00009d;fill-opacity:1;stroke:#000000;stroke-width:0"
       id="circle4294"
       cx="-47.925003"
       cy="153.03192"
       r="24.022873"
       transform="rotate(-58.159577)" />
    <path
       style="fill:#00008b;fill-opacity:1;stroke:#000000;stroke-width:0"
       d="m 123.45625,106.49462 a 11.016038,25.989066 31.840423 0 1 -6.73137,24.46724 11.016038,25.989066 31.840423 0 1 -13.24726,14.43943 24.022872,24.022872 0 0 0 11.01845,-2.03037 16.456372,38.823915 31.840423 0 0 6.85023,-9.53896 16.456372,38.823915 31.840423 0 0 7.25072,-14.55311 24.022872,24.022872 0 0 0 -5.14077,-12.78423 z"
       id="path6192"
       inkscape:connector-curvature="0" />
    <path
       style="fill:#00008b;fill-opacity:1;stroke:#000000;stroke-width:0"
       d="m 120.45591,103.33202 c -0.80189,0.11925 -1.58143,0.45834 -2.2412,1.03198 l -25.563816,22.22655 c -0.65566,-0.2003 -1.352416,-0.30903 -2.075326,-0.30903 -3.710394,0 -6.731579,2.83785 -7.025927,6.46989 a 24.022873,24.022873 0 0 0 8.497672,9.10281 24.022873,24.022873 0 0 0 5.580538,2.52801 V 133.9286 l 24.858949,-21.61315 3.06493,3.52537 -1.86501,1.6216 c -0.83349,0.72466 -0.92102,1.97874 -0.19637,2.81223 l 4.8457,5.57382 a 24.022873,24.022873 0 0 0 0.3452,-5.68027 l -0.87385,-1.00511 0.74828,-0.65008 a 24.022873,24.022873 0 0 0 -2.64583,-8.33645 l -0.72761,-0.83664 c 0.0364,-0.0895 0.0695,-0.18002 0.0997,-0.2713 a 24.022873,24.022873 0 0 0 -4.82607,-5.7366 z"
       id="rect6202"
       inkscape:connector-curvature="0" />
    <g
       id="g4548"
       style="fill:#00a035;fill-opacity:1"
       transform="translate(6.0820187)">
      <rect
         transform="rotate(-41.004706)"
         style="fill:#00a035;fill-opacity:1;stroke:#000000;stroke-width:0"
         id="rect4506"
         width="3.9872315"
         height="12.916506"
         x="15.594605"
         y="154.67783"
         ry="1.9936157" />
      <rect
         ry="1.9936157"
         y="6.6653295"
         x="-158.66505"
         height="12.916506"
         width="3.9872315"
         id="rect4500"
         style="fill:#00a035;fill-opacity:1;stroke:#000000;stroke-width:0"
         transform="rotate(-131.00471)" />
    </g>
    <path
       style="fill:#80002f;fill-opacity:1;stroke:#000000;stroke-width:0"
       d="M 120.15619,87.371753 A 16.456372,38.823915 31.840423 0 0 102.82495,97.49775 c 3.48039,-0.278289 7.04248,0.19851 10.42882,1.489315 a 11.016038,25.989066 31.840423 0 1 5.17746,0.380855 11.016038,25.989066 31.840423 0 1 -4.35219,27.88977 11.016038,25.989066 31.840423 0 1 -16.145264,16.02796 c -0.167121,0.0893 -0.344724,0.16095 -0.533818,0.21291 a 11.016038,25.989066 31.840423 0 1 -6.389791,0.0258 11.016038,25.989066 31.840423 0 1 -2.639632,-4.47415 c -2.660225,-2.46537 -4.667234,-5.44984 -5.96036,-8.69612 a 16.456372,38.823915 31.840423 0 0 1.828829,24.07398 16.456372,38.823915 31.840423 0 0 34.461466,-24.30032 16.456372,38.823915 31.840423 0 0 6.50193,-41.663607 16.456372,38.823915 31.840423 0 0 -5.04621,-1.09244 z"
       id="path4267"
       inkscape:connector-curvature="0" />
    <path
       style="fill:#6c0324;fill-opacity:1;stroke:#000000;stroke-width:0"
       d="m 82.410175,130.35414 a 16.456371,38.823915 31.840423 0 0 1.828829,24.07398 16.456371,38.823915 31.840423 0 0 8.56847,0.31885 v -10.59574 a 11.016038,25.989065 31.840423 0 1 -1.797307,-0.62683 11.016038,25.989065 31.840423 0 1 -2.639632,-4.47415 c -2.660225,-2.46536 -4.667234,-5.44983 -5.96036,-8.69611 z"
       id="path6246"
       inkscape:connector-curvature="0" />
    <path
       style="fill:#00a035;fill-opacity:1;stroke:#000000;stroke-width:0"
       d="m 80.99321,119.86658 c -3.906605,0 -7.051768,3.14517 -7.051768,7.05177 v 28.20603 c 0,0.14614 0.0058,0.29123 0.01447,0.43512 h 14.074592 c 0.0087,-0.14389 0.01447,-0.28898 0.01447,-0.43512 v -28.20603 c 0,-3.9066 -3.145163,-7.05177 -7.051764,-7.05177 z"
       id="rect4458"
       inkscape:connector-curvature="0" />
    <path
       style="fill:#00a035;fill-opacity:1;stroke:#000000;stroke-width:0"
       d="m 108.67628,101.03828 8.60051,9.8919 c 0.72466,0.83349 1.97926,0.92155 2.81275,0.19688 0.83349,-0.72466 0.92103,-1.97925 0.19637,-2.81274 l -6.32623,-7.27604 z"
       id="rect4472-5"
       inkscape:connector-curvature="0" />
    <path
       style="fill:#00a035;fill-opacity:1;stroke:#000000;stroke-width:0"
       d="m 111.40531,96.866955 c -0.9851,0.02572 -1.96784,0.382111 -2.77295,1.082103 L 81.316702,121.69851 v 11.66492 l 33.091528,-28.77085 c 1.84026,-1.59998 2.03406,-4.36917 0.43408,-6.209438 -0.89999,-1.035151 -2.17043,-1.549263 -3.437,-1.516187 z"
       id="rect4472"
       inkscape:connector-curvature="0" />
    <path
       style="fill:#6c0324;fill-opacity:1;stroke:#000000;stroke-width:0"
       d="m 120.09728,114.0554 a 11.016038,25.989066 31.840423 0 1 -1.50689,4.34288 l 3.29231,3.78737 c 0.25167,0.28946 0.56781,0.487 0.90744,0.59376 a 16.456372,38.823915 31.840423 0 0 1.71049,-3.65973 z"
       id="rect6100"
       inkscape:connector-curvature="0" />
    <rect
       style="fill:#00a035;fill-opacity:1;stroke:#000000;stroke-width:0"
       id="rect4504"
       width="3.9872315"
       height="12.916506"
       x="11.255159"
       y="158.66837"
       ry="1.9936157"
       transform="rotate(-41.004706)" />
  </g>
</svg>
