<?xml version="1.0" encoding="UTF-8" standalone="no"?>
<!-- Created with Inkscape (http://www.inkscape.org/) -->

<svg
   xmlns:dc="http://purl.org/dc/elements/1.1/"
   xmlns:cc="http://creativecommons.org/ns#"
   xmlns:rdf="http://www.w3.org/1999/02/22-rdf-syntax-ns#"
   xmlns:svg="http://www.w3.org/2000/svg"
   xmlns="http://www.w3.org/2000/svg"
   xmlns:sodipodi="http://sodipodi.sourceforge.net/DTD/sodipodi-0.dtd"
   xmlns:inkscape="http://www.inkscape.org/namespaces/inkscape"
   width="694.90125mm"
   height="100mm"
   viewBox="0 0 694.90124 100"
   version="1.1"
   id="svg904"
   inkscape:version="0.92.2 (5c3e80d, 2017-08-06)"
   sodipodi:docname="header.svg">
  <defs
     id="defs898" />
  <sodipodi:namedview
     id="base"
     pagecolor="#ffffff"
     bordercolor="#666666"
     borderopacity="1.0"
     inkscape:pageopacity="0.0"
     inkscape:pageshadow="2"
     inkscape:zoom="0.24748737"
     inkscape:cx="1651.0627"
     inkscape:cy="158.48504"
     inkscape:document-units="mm"
     inkscape:current-layer="layer1"
     showgrid="false"
     inkscape:pagecheckerboard="true"
     inkscape:window-width="1366"
     inkscape:window-height="731"
     inkscape:window-x="0"
     inkscape:window-y="0"
     inkscape:window-maximized="1" />
  <metadata
     id="metadata901">
    <rdf:RDF>
      <cc:Work
         rdf:about="">
        <dc:format>image/svg+xml</dc:format>
        <dc:type
           rdf:resource="http://purl.org/dc/dcmitype/StillImage" />
        <dc:title />
      </cc:Work>
    </rdf:RDF>
  </metadata>
  <g
     inkscape:label="Layer 1"
     inkscape:groupmode="layer"
     id="layer1"
     transform="translate(61.293488,-30.289654)">
    <g
       transform="matrix(1.4658678,0,0,1.4658678,-160.76643,-97.740385)"
       id="layer1-6"
       inkscape:label="Layer 1">
      <rect
         transform="rotate(-131.00471)"
         style="fill:#800080;stroke:#000000;stroke-width:0"
         id="rect4502"
         width="3.9872315"
         height="12.916506"
         x="-157.62346"
         y="5.4673133"
         ry="1.9936157" />
      <circle
         transform="rotate(-58.159577)"
         r="24.022873"
         cy="147.86513"
         cx="-51.133606"
         id="circle4294"
         style="fill:#00009d;fill-opacity:1;stroke:#000000;stroke-width:0" />
      <path
         inkscape:connector-curvature="0"
         id="path6192"
         transform="matrix(0.26458333,0,0,0.26458333,67.859423,87.332479)"
         d="m 187.14258,72.423828 a 41.635419,98.226391 31.840423 0 1 -25.44141,92.474612 41.635419,98.226391 31.840423 0 1 -50.06836,54.57422 90.795109,90.795109 0 0 0 41.64453,-7.67383 62.197311,146.73606 31.840423 0 0 25.89063,-36.05274 62.197311,146.73606 31.840423 0 0 27.4043,-55.0039 90.795109,90.795109 0 0 0 -19.42969,-48.318362 z"
         style="fill:#00008b;fill-opacity:1;stroke:#000000;stroke-width:0" />
      <path
         inkscape:connector-curvature="0"
         id="rect6202"
         transform="matrix(0.26458333,0,0,0.26458333,67.859423,87.332479)"
         d="m 175.80273,60.470703 c -3.03076,0.450716 -5.97709,1.73233 -8.4707,3.900391 L 70.712891,148.37695 c -2.478085,-0.75704 -5.111492,-1.16797 -7.84375,-1.16797 -14.023537,0 -25.44219,10.72573 -26.554688,24.45313 a 90.79511,90.79511 0 0 0 32.117188,34.4043 90.79511,90.79511 0 0 0 21.091797,9.55468 v -39.50976 l 93.955082,-81.687502 11.58398,13.324222 -7.04883,6.1289 c -3.1502,2.73888 -3.48102,7.47871 -0.74219,10.62891 l 18.31446,21.06641 a 90.79511,90.79511 0 0 0 1.30468,-21.46875 l -3.30273,-3.79883 2.82813,-2.45703 a 90.79511,90.79511 0 0 0 -10,-31.507816 l -2.75,-3.16211 c 0.13738,-0.33813 0.26254,-0.680393 0.37695,-1.02539 A 90.79511,90.79511 0 0 0 175.80273,60.470703 Z"
         style="fill:#00008b;fill-opacity:1;stroke:#000000;stroke-width:0" />
      <g
         style="fill:#00a035;fill-opacity:1"
         id="g4548">
        <rect
           ry="1.9936157"
           y="154.67783"
           x="15.594605"
           height="12.916506"
           width="3.9872315"
           id="rect4506"
           style="fill:#00a035;fill-opacity:1;stroke:#000000;stroke-width:0"
           transform="rotate(-41.004706)" />
        <rect
           transform="rotate(-131.00471)"
           style="fill:#00a035;fill-opacity:1;stroke:#000000;stroke-width:0"
           id="rect4500"
           width="3.9872315"
           height="12.916506"
           x="-158.66505"
           y="6.6653295"
           ry="1.9936157" />
      </g>
      <path
         inkscape:connector-curvature="0"
         id="path4267"
         transform="matrix(0.26458333,0,0,0.26458333,67.859423,87.332479)"
         d="m 174.66992,0.1484375 a 62.197311,146.73606 31.840423 0 0 -65.5039,38.2714845 c 13.15423,-1.051802 26.61723,0.750274 39.41601,5.628906 a 41.635419,98.226391 31.840423 0 1 19.56836,1.439453 41.635419,98.226391 31.840423 0 1 -16.44922,105.410159 41.635419,98.226391 31.840423 0 1 -61.021482,60.57812 c -0.631636,0.33746 -1.302892,0.6083 -2.017579,0.80469 a 41.635419,98.226391 31.840423 0 1 -24.15039,0.0977 41.635419,98.226391 31.840423 0 1 -9.976563,-16.91016 C 44.480762,186.15084 36.895217,174.87097 32.007812,162.60156 a 62.197311,146.73606 31.840423 0 0 6.91211,90.98828 A 62.197311,146.73606 31.840423 0 0 169.16797,161.74609 62.197311,146.73606 31.840423 0 0 193.74219,4.2773438 62.197311,146.73606 31.840423 0 0 174.66992,0.1484375 Z"
         style="fill:#80002f;fill-opacity:1;stroke:#000000;stroke-width:0" />
      <path
         inkscape:connector-curvature="0"
         id="path6246"
         transform="matrix(0.26458333,0,0,0.26458333,67.859423,87.332479)"
         d="m 32.007812,162.60156 a 62.19731,146.73606 31.840423 0 0 6.91211,90.98828 62.19731,146.73606 31.840423 0 0 32.384766,1.20508 v -40.04687 a 41.635418,98.22639 31.840423 0 1 -6.792969,-2.36914 41.635418,98.22639 31.840423 0 1 -9.976563,-16.91016 C 44.480762,186.15084 36.895217,174.87097 32.007812,162.60156 Z"
         style="fill:#6c0324;fill-opacity:1;stroke:#000000;stroke-width:0" />
      <path
         inkscape:connector-curvature="0"
         id="rect4458"
         d="m 74.911191,119.86658 c -3.906605,0 -7.051768,3.14517 -7.051768,7.05177 v 28.20603 c 0,0.14614 0.0058,0.29123 0.01447,0.43512 h 14.074592 c 0.0087,-0.14389 0.01447,-0.28898 0.01447,-0.43512 v -28.20603 c 0,-3.9066 -3.145163,-7.05177 -7.051764,-7.05177 z"
         style="fill:#00a035;fill-opacity:1;stroke:#000000;stroke-width:0" />
      <path
         inkscape:connector-curvature="0"
         id="rect4472-5"
         d="m 102.59426,101.03828 8.60051,9.8919 c 0.72466,0.83349 1.97926,0.92155 2.81275,0.19688 0.83349,-0.72466 0.92103,-1.97925 0.19637,-2.81274 l -6.32623,-7.27604 z"
         style="fill:#00a035;fill-opacity:1;stroke:#000000;stroke-width:0" />
      <path
         inkscape:connector-curvature="0"
         id="rect4472"
         d="m 105.32329,96.866955 c -0.9851,0.02572 -1.96784,0.382111 -2.77295,1.082103 L 75.234683,121.69851 v 11.66492 l 33.091527,-28.77085 c 1.84026,-1.59998 2.03406,-4.36917 0.43408,-6.209438 -0.89999,-1.035151 -2.17043,-1.549263 -3.437,-1.516187 z"
         style="fill:#00a035;fill-opacity:1;stroke:#000000;stroke-width:0" />
      <path
         inkscape:connector-curvature="0"
         id="rect6100"
         transform="matrix(0.26458333,0,0,0.26458333,67.859423,87.332479)"
         d="m 174.44727,101 a 41.635419,98.226391 31.840423 0 1 -5.69532,16.41406 l 12.44336,14.31446 c 0.95118,1.09402 2.14606,1.84063 3.42969,2.24414 a 62.197311,146.73606 31.840423 0 0 6.46484,-13.83204 z"
         style="fill:#6c0324;fill-opacity:1;stroke:#000000;stroke-width:0" />
      <rect
         transform="rotate(-41.004706)"
         ry="1.9936157"
         y="154.67783"
         x="6.6653295"
         height="12.916506"
         width="3.9872315"
         id="rect4504"
         style="fill:#00a035;fill-opacity:1;stroke:#000000;stroke-width:0" />
    </g>
    <path
       transform="matrix(0.26458333,0,0,0.26458333,-93.612283,26.246389)"
       style="font-style:normal;font-variant:normal;font-weight:bold;font-stretch:normal;font-size:medium;line-height:1.25;font-family:Cantarell;-inkscape-font-specification:'Cantarell, Bold';font-variant-ligatures:normal;font-variant-caps:normal;font-variant-numeric:normal;font-feature-settings:normal;text-align:start;letter-spacing:0px;word-spacing:0px;writing-mode:lr-tb;text-anchor:start;fill:#000000;fill-opacity:1;stroke:none;stroke-width:7.0340519"
       d="m 2315.0312,77.171875 c -31.3411,0 -53.7537,12.076991 -65.8066,27.865235 -11.7517,15.39373 -13.9889,31.71741 -14.0957,42.19336 h -3.6601 a 18.899528,18.899528 0 0 0 -18.8985,18.89844 v 1.74414 c -1.8994,-2.27084 -3.9269,-4.4426 -6.209,-6.4043 -15.3109,-13.1614 -35.7807,-17.33398 -59.2343,-17.33398 -10.3629,0 -21.2537,1.16623 -31.0684,2.99414 -8.56,1.59423 -15.3525,2.73416 -23.0195,7.0039 a 18.899528,18.899528 0 0 0 -4.4258,-2.89453 c -10.5402,-4.89368 -21.8397,-7.10351 -33,-7.10351 -11.2253,0 -22.0739,2.88191 -32.1836,7.90039 a 18.899528,18.899528 0 0 0 -12.5527,-4.80469 h -24.1973 a 18.899528,18.899528 0 0 0 -17.0684,10.83594 18.899528,18.899528 0 0 0 -2.9804,-2.33594 c -10.4336,-6.52109 -26.8834,-11.5957 -54.1895,-11.5957 -26.9153,0 -50.9958,8.09924 -68.248,24.10937 -7.5172,6.97592 -13.4359,15.42329 -17.836,24.81445 V 99.447266 A 18.899528,18.899528 0 0 0 1807.459,80.548828 h -34.6074 a 18.899528,18.899528 0 0 0 -18.8985,18.898438 v 46.169924 c -5.3266,-0.8859 -10.7358,-1.48242 -16.2715,-1.48242 -26.7952,0 -49.4702,9.45747 -63.5722,26.45703 -14.1021,16.99956 -19.1953,39.15623 -19.1953,62.5 0,8.12968 0.8734,16.03448 2.4882,23.62304 a 18.899528,18.899528 0 0 0 -2.2461,0.0293 c -0.2298,-2.37626 -0.4589,-5.20812 -0.4589,-8.74023 V 99.447266 a 18.899528,18.899528 0 0 0 -18.8985,-18.898438 h -34.6074 a 18.899528,18.899528 0 0 0 -18.8984,18.898438 v 49.322264 c -8.7014,-3.11598 -17.7613,-4.63476 -26.752,-4.63476 -11.2253,0 -22.0739,2.8819 -32.1836,7.90039 a 18.899528,18.899528 0 0 0 -12.5527,-4.80469 h -24.1973 a 18.899528,18.899528 0 0 0 -18.8984,18.89844 v 26.41797 c -4.0305,-8.85499 -9.3873,-16.89317 -16.168,-23.67383 -16.1045,-16.10461 -39.0842,-24.73828 -64.5703,-24.73828 -25.4983,0 -48.483,8.40613 -64.6934,24.37304 a 18.899528,18.899528 0 0 0 -18.7304,-21.27734 h -36.2949 a 18.899528,18.899528 0 0 0 -18.1934,13.78711 l -10.2109,36.35351 -10.5586,-36.49414 a 18.899528,18.899528 0 0 0 -18.1524,-13.64648 h -37.7031 a 18.899528,18.899528 0 0 0 -18.1387,13.59961 l -10.7656,36.85351 -10.2988,-36.66406 a 18.899528,18.899528 0 0 0 -18.1934,-13.78906 h -36.5781 a 18.899528,18.899528 0 0 0 -18.625,15.70703 c -11.7988,-12.22666 -29.777,-18.80273 -50.0879,-18.80273 -13.28988,0 -26.6901,2.5803 -39.87696,7.33593 a 18.899528,18.899528 0 0 0 -11.89258,-4.24023 H 933.7793 a 18.899528,18.899528 0 0 0 -18.89844,18.89844 v 20.41015 c -2.98045,-6.58305 -6.70859,-12.67616 -11.43164,-18.0625 -14.24128,-16.24127 -35.96281,-24.34179 -60.07031,-24.34179 -34.29511,0 -61.5909,19.67952 -75.41016,47.33789 -2.64048,-7.23187 -6.16829,-14.0275 -10.83789,-20.20704 -12.90298,-17.07521 -34.60793,-27.13085 -59.8125,-27.13085 -15.17198,0 -28.59077,3.30208 -40.43164,8.04882 a 18.899528,18.899528 0 0 0 -12.7461,-4.95312 h -21.66406 a 18.899528,18.899528 0 0 0 -18.89844,18.89844 v 27.05664 c -4.05762,-9.1088 -9.50665,-17.36992 -16.44921,-24.3125 -16.10456,-16.10461 -39.08416,-24.73828 -64.57032,-24.73828 -25.67326,0 -48.81687,8.5025 -65.04492,24.68359 -16.22805,16.18108 -24.75781,39.27689 -24.75781,64.83594 0,25.21777 8.53292,48.17844 24.59375,64.42382 16.06083,16.24539 39.07724,25.09766 64.64648,25.09766 25.61069,0 48.72692,-8.93411 64.90821,-25.2539 7.03571,-7.09594 12.56481,-15.52861 16.67382,-24.82032 v 101.23438 a 18.899528,18.899528 0 0 0 18.89844,18.89844 h 34.60742 a 18.899528,18.899528 0 0 0 18.89844,-18.89844 v -52.55469 c 5.04446,0.83085 10.10048,1.39453 15.14453,1.39453 24.93879,0 47.06215,-9.94024 61.65039,-26.66601 5.66481,-6.49484 10.16825,-13.87558 13.59571,-21.8711 4.06324,9.14088 9.53682,17.39914 16.59765,24.30078 16.54134,16.16841 40.11329,24.23633 66.59766,24.23633 20.1728,0 39.59442,-3.47406 57.8457,-9.35156 a 18.899528,18.899528 0 0 0 8.6543,-5.8418 18.899528,18.899528 0 0 0 17.71094,12.37891 h 34.60742 a 18.899528,18.899528 0 0 0 18.89844,-18.89844 v -88.88477 c 6.25618,-1.69302 11.03951,-2.50976 13.45704,-2.50976 4.031,0 3.2344,0.30073 3.5918,0.75391 0.3574,0.45317 1.707,3.14885 1.707,8.48437 v 82.15625 a 18.899528,18.899528 0 0 0 18.8985,18.89844 h 34.6074 a 18.899528,18.899528 0 0 0 18.8984,-18.89844 v -77.9375 c 0,-0.71628 -0.077,-1.39821 -0.084,-2.11133 l 31.2832,86.47656 a 18.899528,18.899528 0 0 0 17.7715,12.47071 h 32.9199 a 18.899528,18.899528 0 0 0 17.9493,-12.98633 l 13.0351,-39.57617 12.6367,39.43164 a 18.899528,18.899528 0 0 0 17.9961,13.13086 h 32.3555 a 18.899528,18.899528 0 0 0 17.7578,-12.4375 l 25.3047,-69.54883 c 1.0059,23.34083 9.3448,44.48375 24.3906,59.70312 16.0603,16.24555 39.0772,25.09766 64.6465,25.09766 25.6107,0 48.7269,-8.93411 64.9082,-25.2539 6.8742,-6.93306 12.31,-15.14248 16.3926,-24.17969 v 27.7207 a 18.899528,18.899528 0 0 0 18.8984,18.89844 h 33.7637 a 18.899528,18.899528 0 0 0 18.8984,-18.89844 v -88.53125 c 2.2771,-1.04157 4.343,-1.45703 6.4239,-1.45703 4.2506,0 14.1629,2.84758 17.3711,4.98633 a 18.899528,18.899528 0 0 0 19.2285,1.00195 v 37.57617 c 0,14.24067 1.6623,30.28451 11.4179,44.56446 9.7557,14.27994 28.3458,23.57226 50.5274,23.57226 13.4482,0 24.6152,-3.62695 24.6152,-3.62695 a 18.899528,18.899528 0 0 0 13.377,-17.27149 c 14.3645,13.21263 34.097,20.89844 56.0136,20.89844 11.9067,0 23.8739,-2.48595 35.5215,-7.14258 a 18.899528,18.899528 0 0 0 12.0293,4.32813 h 21.6641 a 18.899528,18.899528 0 0 0 18.8984,-18.89844 v -28.14648 c 4.548,9.60331 10.7027,18.25261 18.4668,25.38867 17.4302,16.02015 41.6739,24.4707 68.7422,24.4707 25.0306,0 42.9365,-6.13597 51.6582,-10.24023 a 18.899528,18.899528 0 0 0 4.5684,-3.03907 18.899528,18.899528 0 0 0 16.8867,10.46485 h 33.7637 a 18.899528,18.899528 0 0 0 18.8984,-18.89844 v -88.53125 c 2.277,-1.04157 4.343,-1.45703 6.4238,-1.45703 4.2509,0 14.1664,2.84854 17.3731,4.98633 a 18.899528,18.899528 0 0 0 27.9297,-8.51953 18.899528,18.899528 0 0 0 6.5371,6.15429 c -5.7539,3.55245 -11.12,7.95217 -15.4883,13.68555 -7.3588,9.65846 -11.2871,22.33895 -11.2871,35.97852 0,18.21483 8.5465,34.72325 21.4472,44.83789 12.9007,10.11464 29.2092,14.57812 46.127,14.57812 11.7172,0 23.0581,-1.92923 33.373,-6.03711 a 18.899528,18.899528 0 0 0 10.5196,3.22266 h 27.0097 a 18.899528,18.899528 0 0 0 18.8985,-18.89844 v -83.56445 c 0,-2.09544 -0.1162,-4.14822 -0.2285,-6.20117 a 18.899528,18.899528 0 0 0 3.4922,0.33984 h 3.6093 v 89.42578 a 18.899528,18.899528 0 0 0 18.8985,18.89844 h 34.6074 a 18.899528,18.899528 0 0 0 18.8984,-18.89844 v -89.42578 h 31.1836 a 18.899528,18.899528 0 0 0 6.0352,-1.00977 18.899528,18.899528 0 0 0 6.0156,1.00977 h 3.6094 v 45.81445 c 0,13.51416 1.2635,29.89747 12.4472,43.94922 11.1838,14.05175 30.5903,21.375 55.4082,21.375 16.7779,0 33.3761,-4.28657 45.295,-8.84375 a 18.899528,18.899528 0 0 0 11.7402,-21.56641 l -0.01,-0.043 c 1.7694,2.16932 3.6501,4.25007 5.6621,6.21679 16.5414,16.16841 40.1133,24.23633 66.5977,24.23633 20.1728,0 39.5944,-3.47405 57.8457,-9.35156 a 18.899528,18.899528 0 0 0 8.6543,-5.8418 18.899528,18.899528 0 0 0 17.7109,12.37891 h 33.7618 a 18.899528,18.899528 0 0 0 18.8984,-18.89844 v -88.53125 c 2.277,-1.04157 4.343,-1.45703 6.4238,-1.45703 4.2507,0 14.1665,2.84858 17.3731,4.98633 A 18.899528,18.899528 0 0 0 2741.084,204.75 l 7.0332,-32.35742 a 18.899528,18.899528 0 0 0 -10.5078,-21.1543 c -10.5402,-4.89368 -21.8397,-7.10351 -33,-7.10351 -11.2253,0 -22.0739,2.8819 -32.1836,7.90039 a 18.899528,18.899528 0 0 0 -12.5528,-4.80469 h -24.1953 a 18.899528,18.899528 0 0 0 -18.8984,18.89844 v 20.41015 c -2.9805,-6.58305 -6.7086,-12.67616 -11.4316,-18.0625 -14.2413,-16.24126 -35.9629,-24.34179 -60.0704,-24.34179 -31.5587,0 -57.1801,16.67273 -71.8398,40.88281 v -18.88867 a 18.899528,18.899528 0 0 0 -18.8984,-18.89844 h -27.8086 v -23.58789 a 18.899528,18.899528 0 0 0 -18.8985,-18.89844 h -34.6074 a 18.899528,18.899528 0 0 0 -5.1387,0.73047 18.899528,18.899528 0 0 0 -9.4433,-18.830079 c -17.6779,-9.972182 -35.705,-9.472656 -43.6114,-9.472656 z m 2.5333,65.087895 c 9.4176,0 11.9862,1.13333 15.9921,3.31835 a 18.899528,18.899528 0 0 0 4.2032,1.65235 h -30.2774 v -0.23438 c 0,-1.98692 -0.044,-4.73632 10.0821,-4.73632 z m 36.7617,1.52539 v 3.44531 h -3.6094 a 18.899528,18.899528 0 0 0 -6.0352,1.00976 18.899528,18.899528 0 0 0 -1.2929,-0.39453 18.899528,18.899528 0 0 0 10.9375,-4.06054 z m -386.545,59.77929 v 58.97657 a 18.899528,18.899528 0 0 0 -25.4824,-9.65235 c -4.983,2.37293 -11.6724,5.47853 -26.1992,5.47852 -9.855,0 -15.7431,-2.85465 -19.6523,-6.72852 -3.9092,-3.87387 -6.4668,-9.40502 -6.4668,-17.98437 0,-9.35787 2.4588,-14.78781 5.955,-18.31641 3.4963,-3.5286 9.112,-6.39453 20.1641,-6.39453 14.7268,0 20.1084,2.77555 24.7129,5.28711 a 18.899528,18.899528 0 0 0 26.9687,-10.66602 z m -1445.78511,5.37891 c 6.44015,0 9.08854,1.72272 12.01368,5.4668 2.92513,3.74408 5.38281,10.51488 5.38281,19.24414 0,9.30198 -2.41278,16.03191 -5.11328,19.51758 -2.70051,3.48566 -5.09235,5.19531 -12.28321,5.19531 -6.15822,0 -8.6108,-1.62909 -11.50586,-5.41602 -2.89505,-3.78693 -5.33007,-10.67438 -5.33007,-19.29687 0,-8.26073 2.41462,-15.23672 5.3789,-19.14844 2.96428,-3.91172 5.45194,-5.5625 11.45703,-5.5625 z m 864.41211,0 c 6.4401,0 9.0885,1.7227 12.0137,5.4668 2.9251,3.74409 5.3828,10.5149 5.3828,19.24414 0,9.30196 -2.4128,16.03189 -5.1133,19.51758 -2.7005,3.48568 -5.0924,5.19531 -12.2832,5.19531 -6.1583,0 -8.6093,-1.62933 -11.5039,-5.41602 -2.8946,-3.78669 -5.3301,-10.67383 -5.3301,-19.29687 0,-8.2613 2.4151,-15.23696 5.3789,-19.14844 2.9639,-3.91148 5.4499,-5.5625 11.4551,-5.5625 z m 1076.623,1.05273 c -1.9514,7.61195 -3.0527,15.54085 -3.0527,23.65821 0,7.37212 0.7618,14.50048 2.1192,21.35351 a 18.899528,18.899528 0 0 0 -11.4922,-0.45312 c -4.2655,1.18484 -13.7516,3.25 -19.9825,3.25 -2.3812,0 -3.1331,-0.18143 -3.8691,-0.31836 -0.011,-0.23819 -0.023,-0.13992 -0.023,-0.47852 v -44.9707 h 27.8086 a 18.899528,18.899528 0 0 0 8.4921,-2.04102 z m -1774.15425,0.0723 c 7.55705,0 7.54184,0.78185 9.27539,3.44336 1.73356,2.66151 3.90039,10.20304 3.90039,21.55078 0,10.27539 -2.45562,16.09601 -4.69335,18.78125 -2.23774,2.68524 -4.5485,4.24219 -11.85938,4.24219 -3.78578,0 -6.81663,-0.38097 -9.51758,-1.17774 v -44.63281 c 4.56509,-1.25511 9.28744,-2.20703 12.89453,-2.20703 z m 1057.24605,0 c 2.3528,0 5.1857,0.63296 7.8301,1.35156 v 45.28906 c -2.8586,0.94068 -6.0455,1.37696 -10.082,1.37696 -7.3109,0 -9.6216,-1.55694 -11.8594,-4.24219 -2.2377,-2.68525 -4.6933,-8.50588 -4.6933,-18.78125 0,-11.01227 2.2568,-17.7056 4.2988,-20.37109 2.042,-2.6655 4.1641,-4.62305 14.5058,-4.62305 z m -831.24214,51.0293 v 10.70703 l -1.72852,-6.625 a 18.899528,18.899528 0 0 0 -0.93359,-2.6543 18.899528,18.899528 0 0 0 2.66211,-1.42773 z m 1701.89844,0 v 10.70703 l -1.7285,-6.625 a 18.899528,18.899528 0 0 0 -0.9336,-2.6543 18.899528,18.899528 0 0 0 2.6621,-1.42773 z"
       id="path1195" />
    <path
       inkscape:connector-curvature="0"
       style="font-style:normal;font-variant:normal;font-weight:bold;font-stretch:normal;font-size:medium;line-height:1.25;font-family:Cantarell;-inkscape-font-specification:'Cantarell, Bold';font-variant-ligatures:normal;font-variant-caps:normal;font-variant-numeric:normal;font-feature-settings:normal;text-align:start;letter-spacing:0px;word-spacing:0px;writing-mode:lr-tb;text-anchor:start;fill:#ffffff;fill-opacity:1;stroke:none;stroke-width:1.86109293"
       d="m 518.90638,51.664992 c -14.29306,0 -16.15403,9.826288 -16.15403,13.771768 v 4.764569 h -5.95519 v 7.146332 h 5.95519 v 28.660779 h 9.15654 V 77.347661 h 13.25087 v -7.146332 h -13.25087 v -5.062225 c 0,-3.424372 2.97784,-6.253364 7.66776,-6.253364 3.12661,0 4.98766,0.595474 6.62543,1.488798 l 1.78644,-6.848676 c -2.90327,-1.637751 -7.44437,-1.86087 -9.08214,-1.86087 z m -188.87011,0.893486 v 41.166995 c 0,6.550987 1.93521,13.027627 11.38949,13.027627 2.60551,0 5.06222,-0.74466 5.06222,-0.74466 l -1.78646,-6.848674 c 0,0 -0.96796,0.223244 -2.08463,0.223244 -2.90327,0 -3.42408,-2.90345 -3.42408,-7.518921 V 52.558478 Z m 45.41843,0 V 71.76454 c -2.67997,-1.63776 -5.73212,-2.382284 -9.3054,-2.382284 -12.05979,0 -16.8987,7.667646 -16.8987,18.536338 0,10.868707 6.32772,18.834506 17.04753,18.834506 3.57328,0 7.1465,-0.96811 10.71978,-3.05253 l 1.86137,2.30787 h 5.73196 V 52.558478 Z m 158.84868,6.401677 v 11.241174 h -5.95518 v 7.146332 h 5.95518 v 17.121952 c 0,6.327667 1.5634,12.283487 12.95321,12.283487 3.42442,0 7.66781,-1.04246 10.19887,-2.01021 l -1.33996,-6.327781 c -1.33998,0.372219 -4.09437,1.042316 -6.62546,1.042313 -4.91323,0 -6.03011,-2.456651 -6.03011,-5.211051 v -16.89871 h 12.35792 V 70.201329 H 543.45993 V 58.960155 Z M 44.648009,69.382256 c -11.46424,0 -18.760093,7.295369 -18.760093,18.685166 0,11.166483 7.295914,18.685678 18.611265,18.685678 11.315372,0 18.75958,-7.59358 18.75958,-18.834506 0,-11.166467 -7.29538,-18.536338 -18.610752,-18.536338 z m 46.238522,0 c -4.838801,0 -8.784685,1.414666 -12.209074,3.350183 l -1.86087,-2.53111 h -5.731949 v 55.088111 h 9.156547 v -20.69538 c 2.977731,1.48885 5.955032,2.15904 9.007202,2.15904 10.7198,0 17.047533,-7.965799 17.047533,-18.834506 0,-10.868692 -4.39179,-18.536338 -15.409389,-18.536338 z m 38.645189,0 c -10.64538,0 -17.56844,8.337563 -17.56844,18.685166 0,11.613144 7.14627,18.685678 19.20606,18.685678 4.76436,0 9.38012,-0.81903 13.77229,-2.23345 l -1.78697,-6.848682 c -3.27549,1.265545 -6.8487,1.860871 -10.79418,1.860871 -8.7843,0 -10.79402,-3.796419 -11.16624,-8.41189 h 24.56594 v -3.499012 c 0,-11.687571 -5.50864,-18.238681 -16.22846,-18.238681 z m 44.01798,0 c -4.01994,0 -8.18856,1.042538 -12.35738,3.126941 l -1.33997,-2.307868 h -6.4022 v 35.807111 h 9.15655 V 78.836459 c 3.64772,-1.339985 6.47631,-2.009696 8.56072,-2.009696 4.46656,0 6.4022,3.12679 6.4022,7.444507 v 21.73717 h 9.15654 V 85.387481 c 0,-9.752052 -2.97775,-16.005225 -13.17646,-16.005225 z m 99.80734,0 c -11.46426,0 -18.75956,7.295369 -18.75956,18.685166 0,11.166483 7.29538,18.685678 18.61074,18.685678 11.31535,0 18.75956,-7.59358 18.75956,-18.834506 0,-11.166467 -7.29538,-18.536338 -18.61074,-18.536338 z m 44.60089,0 c -3.79658,0 -7.36983,1.563566 -10.71975,4.615741 l -1.11672,-3.796668 h -6.40221 v 35.807111 h 8.93332 V 79.953188 c 2.08441,-1.786631 4.31765,-2.754355 6.69985,-2.754355 2.30773,0 5.35959,0.819055 7.36958,2.159043 l 1.86137,-8.561234 c -2.08442,-0.967769 -4.31769,-1.414386 -6.62544,-1.414386 z m 94.4299,0 c -12.28312,0 -20.09955,7.220926 -20.09955,18.685166 0,11.166483 8.11408,18.685678 20.39721,18.685678 5.65766,0 10.27329,-1.63792 11.53882,-2.23345 l -1.78697,-6.848682 c -1.56329,0.744437 -4.39169,1.935285 -9.08161,1.935282 -7.36986,0 -11.91091,-4.764487 -11.91091,-11.538828 0,-6.923212 4.0944,-11.538315 11.91091,-11.538315 4.68992,0 7.29504,1.116372 8.93278,2.009695 l 1.78697,-6.848676 c -1.78662,-1.116655 -5.06222,-2.30787 -11.68765,-2.30787 z m 37.8809,0 c -3.79661,0 -7.36981,1.563566 -10.71975,4.615741 l -1.11673,-3.796668 h -6.4022 v 35.807111 h 8.93331 V 79.953188 c 2.08439,-1.786631 4.31766,-2.754355 6.69983,-2.754355 2.30775,0 5.36014,0.819055 7.3701,2.159043 l 1.86087,-8.561234 c -2.08441,-0.967769 -4.31771,-1.414386 -6.62543,-1.414386 z m 24.213,0 c -4.68993,0 -10.6457,1.116769 -12.43232,2.30787 l 1.78697,6.848676 c 2.30772,-1.265541 6.40212,-2.382281 9.23094,-2.382281 6.77436,0 8.70955,1.563311 8.70955,7.890991 -11.01759,0 -22.48183,1.042162 -22.48183,11.985315 0,6.848763 5.73225,10.720273 12.87881,10.720273 4.1688,0 7.66773,-1.04251 10.42209,-3.20135 l 1.19116,2.45669 h 7.14631 V 83.898684 c 0,-10.347603 -5.28523,-14.516428 -16.45168,-14.516428 z m 105.34393,0 c -10.64538,0 -17.56841,8.337563 -17.56841,18.685166 0,11.613144 7.14626,18.685678 19.20605,18.685678 4.76435,0 9.38011,-0.81903 13.77228,-2.23345 l -1.78697,-6.848682 c -3.27547,1.265545 -6.84869,1.860871 -10.79416,1.860871 -8.78432,0 -10.79404,-3.796419 -11.16626,-8.41189 h 24.56595 v -3.499012 c 0,-11.687571 -5.50867,-18.238681 -16.22848,-18.238681 z m 42.15662,0 c -3.79661,0 -7.36984,1.563566 -10.71975,4.615741 l -1.11676,-3.796668 h -6.40167 v 35.807111 h 8.93281 V 79.953188 c 2.08441,-1.786631 4.31766,-2.754355 6.69983,-2.754355 2.30772,0 5.36014,0.819055 7.3701,2.159043 l 1.86087,-8.561234 C 626.5233,69.828873 624.29,69.382256 621.98228,69.382256 Z m -430.25229,0.819073 12.95321,35.807111 h 8.71005 l 8.26307,-25.087353 8.03982,25.087353 h 8.56072 L 251.2845,70.201329 h -9.60303 l -7.44453,26.501741 -7.66723,-26.501741 h -9.97561 l -7.74215,26.501741 -7.444,-26.501741 z m -62.04944,6.253364 c 4.46659,0 6.92309,2.605346 6.92309,8.337476 h -15.33498 c 0.44665,-4.317717 2.30754,-8.337476 8.41189,-8.337476 z m 450.29394,0 c 4.46659,0 6.92311,2.605346 6.92311,8.337476 h -15.33498 c 0.44664,-4.317717 2.30753,-8.337476 8.41187,-8.337476 z m -535.475309,0.07441 c 6.17879,0 9.603033,5.13621 9.603033,11.538315 0,6.551009 -3.20091,11.538828 -9.603033,11.538828 -6.104329,0 -9.454719,-5.211151 -9.454719,-11.538828 0,-6.178775 3.35039,-11.538315 9.454719,-11.538315 z m 228.709039,0 c 6.17876,0 9.60302,5.13621 9.60302,11.538315 0,6.551009 -3.20093,11.538828 -9.60302,11.538828 -6.10437,0 -9.4542,-5.211151 -9.4542,-11.538828 0,-6.178775 3.34983,-11.538315 9.4542,-11.538315 z m -184.555146,0.29766 c 6.402102,0 8.486304,4.61559 8.486304,11.613245 0,6.997652 -3.275449,11.091831 -9.379788,11.091831 -2.903289,0 -5.359564,-0.744572 -7.518405,-2.307871 V 78.836459 c 1.786641,-0.744437 5.210831,-2.009696 8.411889,-2.009696 z m 279.729676,0 c 2.67997,0 5.58308,0.89304 7.07195,2.009696 V 97.07514 c -2.2333,1.712188 -4.76446,2.456699 -7.66776,2.456699 -6.10433,0 -9.3798,-4.094179 -9.3798,-11.091831 0,-6.997655 2.45687,-11.613245 9.97561,-11.613245 z M 481.77687,90.37529 v 7.14685 c -1.9355,1.191102 -4.09408,2.08411 -7.36957,2.08411 -3.27551,0 -5.95572,-1.26542 -5.95572,-4.243149 0,-4.987692 7.81651,-4.987811 13.32529,-4.987811 z"
       id="path1145" />
  </g>
</svg>
