<?xml version="1.0" encoding="UTF-8" standalone="no"?>
<!-- Created with Inkscape (http://www.inkscape.org/) -->

<svg
   xmlns:dc="http://purl.org/dc/elements/1.1/"
   xmlns:cc="http://creativecommons.org/ns#"
   xmlns:rdf="http://www.w3.org/1999/02/22-rdf-syntax-ns#"
   xmlns:svg="http://www.w3.org/2000/svg"
   xmlns="http://www.w3.org/2000/svg"
   xmlns:sodipodi="http://sodipodi.sourceforge.net/DTD/sodipodi-0.dtd"
   xmlns:inkscape="http://www.inkscape.org/namespaces/inkscape"
   width="61.803459mm"
   height="100.0001mm"
   viewBox="0 0 61.803459 100.0001"
   version="1.1"
   id="svg8"
   inkscape:version="0.92.2 (5c3e80d, 2017-08-06)"
   sodipodi:docname="phone.svg">
  <defs
     id="defs2" />
  <sodipodi:namedview
     id="base"
     pagecolor="#ffffff"
     bordercolor="#666666"
     borderopacity="1.0"
     inkscape:pageopacity="0.0"
     inkscape:pageshadow="2"
     inkscape:zoom="0.98994949"
     inkscape:cx="83.153141"
     inkscape:cy="191.84029"
     inkscape:document-units="mm"
     inkscape:current-layer="layer1"
     showgrid="false"
     inkscape:window-width="1366"
     inkscape:window-height="731"
     inkscape:window-x="0"
     inkscape:window-y="0"
     inkscape:window-maximized="1" />
  <metadata
     id="metadata5">
    <rdf:RDF>
      <cc:Work
         rdf:about="">
        <dc:format>image/svg+xml</dc:format>
        <dc:type
           rdf:resource="http://purl.org/dc/dcmitype/StillImage" />
        <dc:title></dc:title>
      </cc:Work>
    </rdf:RDF>
  </metadata>
  <g
     inkscape:label="Layer 1"
     inkscape:groupmode="layer"
     id="layer1"
     transform="translate(-101.79734,-86.740319)">
    <path
       style="opacity:1;fill:#000000;fill-opacity:1;fill-rule:nonzero;stroke:none;stroke-width:15.52323055;stroke-linecap:round;stroke-linejoin:round;stroke-miterlimit:4;stroke-dasharray:none;stroke-opacity:1;paint-order:normal"
       d="m 110.08262,86.740319 c -4.59009,0 -8.28528,3.695194 -8.28528,8.285281 v 83.42953 c 0,4.59009 3.69519,8.28529 8.28528,8.28529 h 45.23289 c 4.59008,0 8.28529,-3.6952 8.28529,-8.28529 V 95.0256 c 0,-4.590087 -3.69521,-8.285281 -8.28529,-8.285281 z m -2.10478,9.999905 h 49.44245 V 171.7403 h -49.44245 z m 18.47122,78.749716 h 12.50001 c 2.0775,0 3.75016,1.67266 3.75016,3.75016 0,2.0775 -1.67266,3.75016 -3.75016,3.75016 h -12.50001 c -2.0775,0 -3.75016,-1.67266 -3.75016,-3.75016 0,-2.0775 1.67266,-3.75016 3.75016,-3.75016 z"
       id="rect10"
       inkscape:connector-curvature="0" />
  </g>
</svg>
