<?xml version="1.0" encoding="UTF-8" standalone="no"?>
<!-- Created with Inkscape (http://www.inkscape.org/) -->

<svg
   xmlns:dc="http://purl.org/dc/elements/1.1/"
   xmlns:cc="http://creativecommons.org/ns#"
   xmlns:rdf="http://www.w3.org/1999/02/22-rdf-syntax-ns#"
   xmlns:svg="http://www.w3.org/2000/svg"
   xmlns="http://www.w3.org/2000/svg"
   xmlns:sodipodi="http://sodipodi.sourceforge.net/DTD/sodipodi-0.dtd"
   xmlns:inkscape="http://www.inkscape.org/namespaces/inkscape"
   width="91.205574mm"
   height="91.205574mm"
   viewBox="0 0 91.205574 91.205574"
   version="1.1"
   id="svg8"
   inkscape:version="0.92+devel unknown"
   sodipodi:docname="save.svg">
  <defs
     id="defs2" />
  <sodipodi:namedview
     id="base"
     pagecolor="#ffffff"
     bordercolor="#666666"
     borderopacity="1.0"
     inkscape:pageopacity="0.0"
     inkscape:pageshadow="2"
     inkscape:zoom="0.76367532"
     inkscape:cx="74.403311"
     inkscape:cy="99.958775"
     inkscape:document-units="mm"
     inkscape:current-layer="layer1"
     inkscape:document-rotation="0"
     showgrid="false"
     inkscape:window-width="1366"
     inkscape:window-height="731"
     inkscape:window-x="0"
     inkscape:window-y="0"
     inkscape:window-maximized="1"
     inkscape:measure-start="0,0"
     inkscape:measure-end="0,0"
     showguides="false" />
  <metadata
     id="metadata5">
    <rdf:RDF>
      <cc:Work
         rdf:about="">
        <dc:format>image/svg+xml</dc:format>
        <dc:type
           rdf:resource="http://purl.org/dc/dcmitype/StillImage" />
        <dc:title></dc:title>
      </cc:Work>
    </rdf:RDF>
  </metadata>
  <g
     inkscape:label="Layer 1"
     inkscape:groupmode="layer"
     id="layer1"
     transform="translate(-61.201029,-95.835606)">
    <path
       style="fill:#000000;stroke:#000000;stroke-width:1.88976383"
       d="m 232.25586,363.1582 v 342.82422 h 59.41211 V 557.03125 h 224 v 148.95117 h 59.41211 V 430.15039 L 508.08984,363.1582 h -33.29492 v 10.48047 c 0,1.89656 -0.19125,3.74716 -0.55469,5.53321 -0.36359,1.786 -0.90074,3.50711 -1.59179,5.14648 -0.69109,1.63937 -1.53521,3.19583 -2.51758,4.65234 -0.98238,1.45652 -2.10231,2.81325 -3.33984,4.05078 -1.23754,1.23754 -2.59427,2.35747 -4.05079,3.33985 -1.45651,0.98237 -3.01297,1.82649 -4.65234,2.51758 -1.63937,0.69108 -3.36047,1.2282 -5.14648,1.59179 -1.78606,0.36359 -3.63664,0.55469 -5.53321,0.55469 H 318.9043 c -1.89656,0 -3.74717,-0.19125 -5.53321,-0.55469 -1.78603,-0.36359 -3.50712,-0.90071 -5.14648,-1.59179 -1.63936,-0.69109 -3.19582,-1.53521 -4.65234,-2.51758 -1.45654,-0.98238 -2.81325,-2.10231 -4.05079,-3.33985 -1.23753,-1.23753 -2.35746,-2.59426 -3.33984,-4.05078 -0.98238,-1.45651 -1.82649,-3.01297 -2.51758,-4.65234 -0.69108,-1.63937 -1.22818,-3.36048 -1.59179,-5.14648 -0.36363,-1.78605 -0.55469,-3.63665 -0.55469,-5.53321 V 363.1582 Z m 164.86523,0 c -9.42569,0 -17.01367,7.58798 -17.01367,17.01368 0,9.42569 7.58798,17.01367 17.01367,17.01367 h 21.27344 c 9.4257,0 17.01367,-7.58798 17.01367,-17.01367 0,-9.4257 -7.58797,-17.01368 -17.01367,-17.01368 z m -79.48632,210.15039 c -2.33592,0 -4.2168,3.86649 -4.2168,8.66993 0,4.80343 1.88088,8.66992 4.2168,8.66992 h 172.0664 c 2.33592,0 4.2168,-3.86649 4.2168,-8.66992 0,-4.80344 -1.88088,-8.66993 -4.2168,-8.66993 z m 0,31.61914 c -2.33592,0 -4.2168,3.86649 -4.2168,8.66993 0,4.80343 1.88088,8.66992 4.2168,8.66992 h 172.0664 c 2.33592,0 4.2168,-3.86649 4.2168,-8.66992 0,-4.80344 -1.88088,-8.66993 -4.2168,-8.66993 z m 0,31.61719 c -2.33592,0 -4.2168,3.86649 -4.2168,8.66992 0,4.80344 1.88088,8.67188 4.2168,8.67188 h 172.0664 c 2.33592,0 4.2168,-3.86844 4.2168,-8.67188 0,-4.80343 -1.88088,-8.66992 -4.2168,-8.66992 z m 0,31.61914 c -2.33592,0 -4.2168,3.86649 -4.2168,8.66992 0,4.80344 1.88088,8.66993 4.2168,8.66993 h 172.0664 c 2.33592,0 4.2168,-3.86649 4.2168,-8.66993 0,-4.80343 -1.88088,-8.66992 -4.2168,-8.66992 z"
       transform="scale(0.26458333)"
       id="path4335"
       inkscape:connector-curvature="0" />
  </g>
</svg>
