<svg width="55.111mm" height="71.284mm" version="1.1" viewBox="0 0 55.110943 71.283684" xmlns="http://www.w3.org/2000/svg"><path d="m49.34 18.64c0-12.361-9.8891-18.645-24.826-18.645h-24.517v71.284h22.765c12.052 0 20.396-1.9572 25.135-5.8716s7.2108-8.3439 7.2108-13.7c0-9.786-6.4897-16.894-14.834-18.645 6.2837-2.5753 9.065-8.2409 9.065-14.422zm-27.195-7.0048c8.859 0 14.731 1.4422 14.731 7.8288 0 6.7987-6.1807 8.3439-14.731 8.3439h-9.477v-16.173zm-0.9271 27.813c11.022 0 21.117 1.4422 21.117 9.8891 0 9.683-10.095 10.301-21.117 10.301h-8.5499v-20.19z" stroke-width="2.5753" style="font-feature-settings:normal;font-variant-caps:normal;font-variant-ligatures:normal;font-variant-numeric:normal"/></svg>
