<svg width="100mm" height="105mm" version="1.1" viewBox="0 0 100.0001 105.00031" xmlns="http://www.w3.org/2000/svg"><path d="m20 0v20h10.1v-20zm49.9 0v20h10.1v-20zm-69.9 5.0002v100h100v-100h-9.9999v90h-80v-90zm40.2 0v9.9999h19.601v-9.9999zm-15.8 23.673-1.6759 28.408 2.3466 4.2736 1.3405-0.41858c4.5251-1.4246 8.2124-2.0112 10.81-2.0112 9.0503 0 13.24 1.5085 13.24 9.218 0 7.3743-6.9553 9.8878-12.57 9.8878-3.1844 0-7.3742-0.75385-12.653-2.4298l-1.5922-0.50281-3.0169 9.1338 1.5922 0.50281c4.4413 1.5084 10.308 2.7657 15.838 2.7657 10.056 0 22.709-5.6149 22.709-19.442 0-11.732-8.6311-18.603-20.531-18.603-2.6816 0-4.8604 0.16754-7.2068 0.58653l0.83819-11.816h24.05v-9.5529z" style="paint-order:normal"/></svg>
