<svg width="387.66mm" height="246.51mm" version="1.1" viewBox="0 0 387.66263 246.51125" xmlns="http://www.w3.org/2000/svg"><g transform="translate(20.005 62.074)"><path transform="matrix(.26458 0 0 .26458 -20.005 -62.074)" d="m656.54 0a422.06 422.06 0 0 0 -411.96 331.61c-139.38 27.17-244.58 149.91-244.58 297.23-.00015118 167.26 135.59 302.86 302.86 302.86h905.93c2.2498 0 4.2963-.02736 6.211-.07617.2134-.00508.4272-.01003.6406-.01562 1.1899-.03427 2.3281-.07525 3.3867-.12891 136.85-5.377 246.15-118 246.15-256.17 3e-4-118.53-80.446-218.26-189.71-247.62a302.86 302.86 0 0 0 -277.76 -253.22 422.06 422.06 0 0 0 -341.17 -174.47z" style="paint-order:normal"/></g></svg>
