<?xml version="1.0" encoding="UTF-8"?>
<svg width="242.18mm" height="209.69mm" version="1.1" viewBox="0 0 242.17902 209.69211" xmlns="http://www.w3.org/2000/svg"><g transform="translate(-.154 -47.154)"><path transform="scale(.26458)" d="m458.24 178.22a251.89 251.89 0 0 0 -251.89 251.89 251.89 251.89 0 0 0 3.418 40.781 251.89 251.89 0 0 1 42.697 -3.9102 251.89 251.89 0 0 1 205.67 107.01 251.89 251.89 0 0 1 205.87 -107.01 251.89 251.89 0 0 1 42.537 3.6328 251.89 251.89 0 0 0 3.5801 -40.504 251.89 251.89 0 0 0 -251.89 -251.89zm248.31 292.39a251.89 251.89 0 0 1 -205.88 207.77 251.89 251.89 0 0 1 3.6816 40.49 251.89 251.89 0 0 1 -46.016 144.88 251.89 251.89 0 0 0 205.67 107.01 251.89 251.89 0 0 0 251.89 -251.89 251.89 251.89 0 0 0 -209.35 -248.26zm-248.21 393.14a251.89 251.89 0 0 1 -46.217 -144.88 251.89 251.89 0 0 1 3.6562 -40.746 251.89 251.89 0 0 1 -206.01 -207.23 251.89 251.89 0 0 0 -209.19 247.98 251.89 251.89 0 0 0 251.89 251.89 251.89 251.89 0 0 0 205.87 -107.01zm-42.561-185.63a251.89 251.89 0 0 0 42.461 3.875 251.89 251.89 0 0 0 42.434 -3.6191 251.89 251.89 0 0 0 -42.535 -104.39 251.89 251.89 0 0 0 -42.359 104.14z" style="paint-order:normal"/><path transform="scale(.26458)" d="m458.14 573.99a251.89 251.89 0 0 0 -42.338 104.14 251.89 251.89 0 0 0 42.439 3.873 251.89 251.89 0 0 0 42.451 -3.6211 251.89 251.89 0 0 0 -42.553 -104.39z" style="paint-order:normal"/></g></svg>
