<?xml version="1.0" encoding="UTF-8"?>
<svg width="156.58mm" height="153.7mm" version="1.1" viewBox="0 0 156.57608 153.7034" xmlns="http://www.w3.org/2000/svg"><g transform="translate(-209.23 -52.991)"><g aria-label="H"><path d="m209.23 52.991h20.796v63.005h75.565v-63.005h20.796v153.7h-20.796v-73.197h-75.565v73.197h-20.796z" stroke-width="5.271"/></g><g aria-label="2"><path d="m336.49 199.63h29.315v7.0689h-39.42v-7.0689q4.7819-4.9483 13.015-13.265 8.2748-8.358 10.395-10.77 4.0334-4.5324 5.6136-7.6511 1.6217-3.1602 1.6217-6.1957 0-4.9482-3.4929-8.0669-3.4513-3.1186-9.0233-3.1186-3.9503 0-8.358 1.3722-4.3661 1.3722-9.3559 4.1582v-8.4827q5.073-2.0375 9.4807-3.0771 4.4077-1.0396 8.0669-1.0396 9.647 0 15.385 4.8235 5.7383 4.8235 5.7383 12.89 0 3.8255-1.4554 7.2768-1.4138 3.4097-5.1977 8.0669-1.0396 1.2059-6.6115 6.9858-5.572 5.7383-15.718 16.092z" stroke-width="2.129"/></g></g></svg>
