<?xml version="1.0" encoding="UTF-8"?>
<svg width="158.03mm" height="154.91mm" version="1.1" viewBox="0 0 158.03145 154.90929" xmlns="http://www.w3.org/2000/svg"><g transform="translate(-155.77 -87.101)"><g aria-label="H"><path d="m155.77 87.101h20.796v63.005h75.565v-63.005h20.796v153.7h-20.796v-73.197h-75.565v73.197h-20.796z" stroke-width="5.271"/></g><g aria-label="3"><path d="m301 207.33q6.0294 1.289 9.3975 5.3641 3.4097 4.075 3.4097 10.063 0 9.1896-6.3205 14.221-6.3204 5.0314-17.963 5.0314-3.9087 0-8.0669-0.79005-4.1166-0.74848-8.5243-2.287v-8.1085q3.4929 2.0375 7.6511 3.0771 4.1582 1.0396 8.6906 1.0396 7.9006 0 12.017-3.1186 4.1582-3.1186 4.1582-9.0649 0-5.4888-3.8671-8.5659-3.8255-3.1186-10.687-3.1186h-7.2353v-6.9026h7.5679q6.1957 0 9.4807-2.4533 3.285-2.4949 3.285-7.1521 0-4.7819-3.4097-7.3184-3.3681-2.5781-9.6886-2.5781-3.4513 0-7.4016 0.74848-3.9503 0.74847-8.6906 2.3286v-7.4848q4.7819-1.3306 8.9401-1.9959 4.1998-0.66531 7.9006-0.66531 9.5638 0 15.136 4.3661 5.572 4.3245 5.572 11.726 0 5.1562-2.9523 8.7322-2.9523 3.5345-8.3996 4.9067z" stroke-width="2.129"/></g></g></svg>
