<svg width="62.451mm" height="113.2mm" version="1.1" viewBox="0 0 62.451244 113.20276" xmlns="http://www.w3.org/2000/svg"><g transform="translate(-18.288 -165.56)"><path d="m48.802 165.56c-13.281 0-20.87 2.8459-30.514 7.1147l4.2688 11.384c8.5376-3.9526 13.597-6.3242 25.297-6.3242 12.016 0 19.921 4.9012 19.921 16.601 0 4.1107-1.581 7.7471-3.9526 10.909s-5.8499 6.9566-10.593 11.542c-4.4269 4.1107-6.9566 6.7985-8.8538 9.012-4.7431 6.3242-7.2728 14.862-7.2728 25.139h13.439c0-11.384 2.5297-17.233 8.8538-23.241 7.4309-7.1147 12.806-11.7 17.075-18.656 2.5297-4.1107 4.2688-9.4863 4.2688-15.81 0-18.024-13.755-27.668-31.937-27.668zm-5.0593 113.2c4.9012 0 8.0633-3.1621 8.0633-8.0633s-3.1621-8.0633-8.0633-8.0633-8.0633 3.1621-8.0633 8.0633 3.1621 8.0633 8.0633 8.0633z"/></g></svg>
