<svg width="85.925mm" height="85.924mm" version="1.1" viewBox="0 0 85.924637 85.924454" xmlns="http://www.w3.org/2000/svg"><g transform="translate(-51.724 -82.855)"><path d="m97.486 84.324c-1.9587-1.9587-5.1127-1.9587-7.0714 0l-21.213 21.213c-1.9587 1.9587-1.9587 5.1127 0 7.0714 1.9587 1.9587 5.1123 1.9583 7.071-.00036l21.213-21.213c1.9587-1.9587 1.9591-5.1123.000367-7.071zm8.6185 8.6185c-1.8912-1.8912-4.9364-1.8916-6.8276-.000363l-21.457 21.457c-1.8912 1.8912-1.8912 4.9368 0 6.828l7.1927 7.1927-31.82 31.82c-1.9587 1.9587-1.9587 5.1127-1e-5 7.0714 1.9587 1.9587 5.1123 1.9583 7.071-.00036l31.82-31.82 7.193 7.193c1.8912 1.8912 4.9364 1.8909 6.8276-.00036l21.457-21.457c1.8912-1.8912 1.8912-4.936 0-6.8273l-10.728-10.728zm30.075 30.075c-1.9587-1.9587-5.1127-1.9587-7.0714 0l-21.213 21.213c-1.9587 1.9587-1.9587 5.1127 0 7.0714 1.9587 1.9587 5.1127 1.9587 7.0714 0l21.213-21.213c1.9587-1.9587 1.9587-5.1127 0-7.0714z" style="paint-order:normal"/></g></svg>
