<?xml version="1.0" encoding="UTF-8"?>
<svg width="118.98mm" height="118.98mm" version="1.1" viewBox="0 0 118.98193 118.98193" xmlns="http://www.w3.org/2000/svg"><g transform="translate(-48.915 -92.17)"><path d="m54.883 176.45c-7.958 7.958-7.9584 20.771-3.67e-4 28.729 7.958 7.958 20.771 7.9577 28.729-3.7e-4l28.729-28.729c4.1162-4.1162 6.0976-9.5306 5.9558-14.901 5.3702 0.14176 10.785-1.8397 14.901-5.9558l28.729-28.729c7.958-7.958 7.958-20.771 0-28.729-7.958-7.958-20.771-7.958-28.729-2e-6l-28.729 28.729c-4.1161 4.1161-6.0975 9.5308-5.9558 14.901-5.3703-0.14186-10.785 1.8396-14.901 5.9558zm7.8723 0 20.857-20.857c5.7773-5.7773 15.079-5.7773 20.857 0 5.7773 5.7773 5.7773 15.079 0 20.857l-20.857 20.857c-5.7773 5.7773-15.079 5.7773-20.857 0-5.7773-5.7773-5.7773-15.079 2e-6 -20.857zm49.586-49.586 20.857-20.857c5.7773-5.7773 15.079-5.7773 20.857 0 5.7773 5.7773 5.7773 15.079 0 20.857l-20.857 20.857c-5.7773 5.7773-15.079 5.7773-20.857 0s-5.7773-15.079 0-20.857z"/></g></svg>
