<svg width="42.607mm" height="41.555mm" version="1.1" viewBox="0 0 42.606747 41.554668" xmlns="http://www.w3.org/2000/svg"><g transform="translate(-45.22 -99.33)"><path d="m66.524 99.33c-11.764 0-21.304 9.5374-21.304 21.303 0 9.4125 6.1041 17.398 14.569 20.215 1.0647.19717 1.4556-.46221 1.4556-1.0249 0-.508-.01976-2.1862-.02893-3.9663-5.9267 1.2887-7.1773-2.5135-7.1773-2.5135-.96908-2.4624-2.3654-3.1171-2.3654-3.1171-1.9329-1.3222.1457-1.295.1457-1.295 2.1392.14993 3.2657 2.1953 3.2657 2.1953 1.9001 3.2568 4.9837 2.3153 6.1994 1.7709.1912-1.3765.7433-2.317 1.3526-2.8487-4.7318-.53869-9.706-2.3654-9.706-10.528 0-2.3259.8322-4.2263 2.195-5.7182-.22119-.53692-.95038-2.7033.20638-5.6377 0 0 1.7889-.57256 5.86 2.1837 1.6993-.47202 3.5218-.70873 5.3322-.71685 1.8105.008 3.6343.24483 5.3368.71685 4.0661-2.7563 5.8526-2.1837 5.8526-2.1837 1.1596 2.9344.43004 5.1008.20884 5.6377 1.366 1.4919 2.1925 3.3923 2.1925 5.7182 0 8.1823-4.9837 9.984-9.7275 10.511.76412.66111 1.445 1.9576 1.445 3.9451 0 2.8501-.02469 5.1442-.02469 5.8462 0 .56692.38347 1.2312 1.4633 1.022 8.46-2.8201 14.556-10.803 14.556-20.212-1.1e-5-11.766-9.5381-21.303-21.303-21.303" fill="#fff" fill-rule="evenodd"/></g></svg>
