<svg width="56.063mm" height="68.227mm" version="1.1" viewBox="0 0 56.063167 68.227196" xmlns="http://www.w3.org/2000/svg" xmlns:osb="http://www.openswatchbook.org/uri/2009/osb"><g transform="translate(-67.859 -87.332)" stroke-width="0"><path transform="rotate(229)" d="m-155.63 5.4673c1.1045 0 1.9936.88915 1.9936 1.9936v8.9293c0 1.1045-.88915 1.9936-1.9936 1.9936-1.1045 0-1.9936-.88915-1.9936-1.9936v-8.9293c0-1.1045.88915-1.9936 1.9936-1.9936z" fill="#800080"/><g><path transform="rotate(-58.16)" d="m-27.111 147.87a24.023 24.023 0 0 1 -24.023 24.023 24.023 24.023 0 0 1 -24.023 -24.023 24.023 24.023 0 0 1 24.023 -24.023 24.023 24.023 0 0 1 24.023 24.023z" fill="#00009d"/><path transform="matrix(.26458 0 0 .26458 67.859 87.332)" d="m187.14 72.424a41.635 98.226 31.84 0 1 -25.441 92.475 41.635 98.226 31.84 0 1 -50.068 54.574 90.795 90.795 0 0 0 41.645 -7.6738 62.197 146.74 31.84 0 0 25.891 -36.053 62.197 146.74 31.84 0 0 27.404 -55.004 90.795 90.795 0 0 0 -19.43 -48.318z" fill="#00008b"/><path transform="matrix(.26458 0 0 .26458 67.859 87.332)" d="m175.8 60.471c-3.0308.45072-5.9771 1.7323-8.4707 3.9004l-96.619 84.006c-2.4781-.75704-5.1115-1.168-7.8438-1.168-14.024 0-25.442 10.726-26.555 24.453a90.795 90.795 0 0 0 32.117 34.404 90.795 90.795 0 0 0 21.092 9.5547v-39.51l93.955-81.688 11.584 13.324-7.0488 6.1289c-3.1502 2.7389-3.481 7.4787-.74219 10.629l18.314 21.066a90.795 90.795 0 0 0 1.3047 -21.469l-3.3027-3.7988 2.8281-2.457a90.795 90.795 0 0 0 -10 -31.508l-2.75-3.1621c.13738-.33813.26254-.68039.37695-1.0254a90.795 90.795 0 0 0 -18.24 -21.682z" fill="#00008b"/><g fill="#00a035"><path transform="rotate(-41.005)" d="m17.588 154.68c1.1045 0 1.9936.88915 1.9936 1.9936v8.9293c0 1.1045-.88915 1.9936-1.9936 1.9936s-1.9936-.88915-1.9936-1.9936v-8.9293c0-1.1045.88915-1.9936 1.9936-1.9936z"/><path transform="rotate(229)" d="m-156.67 6.6653c1.1045 0 1.9936.88915 1.9936 1.9936v8.9293c0 1.1045-.88916 1.9936-1.9936 1.9936s-1.9936-.88915-1.9936-1.9936v-8.9293c0-1.1045.88915-1.9936 1.9936-1.9936z"/></g><path transform="matrix(.26458 0 0 .26458 67.859 87.332)" d="m174.67.14844a62.197 146.74 31.84 0 0 -65.504 38.271c13.154-1.0518 26.617.75027 39.416 5.6289a41.635 98.226 31.84 0 1 19.568 1.4395 41.635 98.226 31.84 0 1 -16.449 105.41 41.635 98.226 31.84 0 1 -61.021 60.578c-.63164.33746-1.3029.6083-2.0176.80469a41.635 98.226 31.84 0 1 -24.15 .09766 41.635 98.226 31.84 0 1 -9.9766 -16.91c-10.054-9.3179-17.64-20.598-22.527-32.867a62.197 146.74 31.84 0 0 6.9121 90.988 62.197 146.74 31.84 0 0 130.25 -91.844 62.197 146.74 31.84 0 0 24.574 -157.47 62.197 146.74 31.84 0 0 -19.072 -4.1289z" fill="#80002f"/><path transform="matrix(.26458 0 0 .26458 67.859 87.332)" d="m32.008 162.6a62.197 146.74 31.84 0 0 6.9121 90.988 62.197 146.74 31.84 0 0 32.385 1.2051v-40.047a41.635 98.226 31.84 0 1 -6.793 -2.3691 41.635 98.226 31.84 0 1 -9.9766 -16.91c-10.054-9.3179-17.64-20.598-22.527-32.867z" fill="#6c0324"/></g><g fill="#00a035"><path d="m74.911 119.87c-3.9066 0-7.0518 3.1452-7.0518 7.0518v28.206c0 .14614.0058.29123.01447.43512h14.075c.0087-.14389.01447-.28898.01447-.43512v-28.206c0-3.9066-3.1452-7.0518-7.0518-7.0518z"/><path d="m102.59 101.04 8.6005 9.8919c.72466.83349 1.9793.92155 2.8128.19688.83349-.72466.92103-1.9792.19637-2.8127l-6.3262-7.276z"/><path d="m105.32 96.867c-.9851.02572-1.9678.38211-2.773 1.0821l-27.316 23.749v11.665l33.092-28.771c1.8403-1.6 2.0341-4.3692.43408-6.2094-.89999-1.0352-2.1704-1.5493-3.437-1.5162z"/></g><path transform="matrix(.26458 0 0 .26458 67.859 87.332)" d="m174.45 101a41.635 98.226 31.84 0 1 -5.6953 16.414l12.443 14.314c.95118 1.094 2.1461 1.8406 3.4297 2.2441a62.197 146.74 31.84 0 0 6.4648 -13.832l-16.643-19.141z" fill="#6c0324"/><path transform="rotate(-41.005)" d="m8.6589 154.68c1.1045 0 1.9936.88915 1.9936 1.9936v8.9293c0 1.1045-.88915 1.9936-1.9936 1.9936s-1.9936-.88915-1.9936-1.9936v-8.9293c0-1.1045.88915-1.9936 1.9936-1.9936z" fill="#00a035"/></g></svg>
