<svg width="498.48mm" height="68.219mm" version="1.1" viewBox="0 0 498.48288 68.21897" xmlns="http://www.w3.org/2000/svg" xmlns:osb="http://www.openswatchbook.org/uri/2009/osb"><g transform="translate(-30.879 -19.331)"><g transform="translate(-36.98 -68.01)" stroke-width="0"><rect transform="rotate(229)" x="-157.62" y="5.4673" width="3.9872" height="12.917" ry="1.9936" fill="#800080"/><g><circle transform="rotate(-58.16)" cx="-51.134" cy="147.87" r="24.023" fill="#00009d"/><path transform="matrix(.26458 0 0 .26458 67.859 87.332)" d="m187.14 72.424a41.635 98.226 31.84 0 1 -25.441 92.475 41.635 98.226 31.84 0 1 -50.068 54.574 90.795 90.795 0 0 0 41.645 -7.6738 62.197 146.74 31.84 0 0 25.891 -36.053 62.197 146.74 31.84 0 0 27.404 -55.004 90.795 90.795 0 0 0 -19.43 -48.318z" fill="#00008b"/><path transform="matrix(.26458 0 0 .26458 67.859 87.332)" d="m175.8 60.471c-3.0308.45072-5.9771 1.7323-8.4707 3.9004l-96.619 84.006c-2.4781-.75704-5.1115-1.168-7.8438-1.168-14.024 0-25.442 10.726-26.555 24.453a90.795 90.795 0 0 0 32.117 34.404 90.795 90.795 0 0 0 21.092 9.5547v-39.51l93.955-81.688 11.584 13.324-7.0488 6.1289c-3.1502 2.7389-3.481 7.4787-.74219 10.629l18.314 21.066a90.795 90.795 0 0 0 1.3047 -21.469l-3.3027-3.7988 2.8281-2.457a90.795 90.795 0 0 0 -10 -31.508l-2.75-3.1621c.13738-.33813.26254-.68039.37695-1.0254a90.795 90.795 0 0 0 -18.24 -21.682z" fill="#00008b"/><g fill="#00a035"><rect transform="rotate(-41.005)" x="15.595" y="154.68" width="3.9872" height="12.917" ry="1.9936"/><rect transform="rotate(229)" x="-158.67" y="6.6653" width="3.9872" height="12.917" ry="1.9936"/></g><path transform="matrix(.26458 0 0 .26458 67.859 87.332)" d="m174.67.14844a62.197 146.74 31.84 0 0 -65.504 38.271c13.154-1.0518 26.617.75027 39.416 5.6289a41.635 98.226 31.84 0 1 19.568 1.4395 41.635 98.226 31.84 0 1 -16.449 105.41 41.635 98.226 31.84 0 1 -61.021 60.578c-.63164.33746-1.3029.6083-2.0176.80469a41.635 98.226 31.84 0 1 -24.15 .0977 41.635 98.226 31.84 0 1 -9.9766 -16.91c-10.054-9.318-17.64-20.598-22.527-32.867a62.197 146.74 31.84 0 0 6.9121 90.988 62.197 146.74 31.84 0 0 130.25 -91.844 62.197 146.74 31.84 0 0 24.574 -157.47 62.197 146.74 31.84 0 0 -19.072 -4.1289z" fill="#80002f"/><path transform="matrix(.26458 0 0 .26458 67.859 87.332)" d="m32.008 162.6a62.197 146.74 31.84 0 0 6.9121 90.988 62.197 146.74 31.84 0 0 32.385 1.2051v-40.047a41.635 98.226 31.84 0 1 -6.793 -2.3691 41.635 98.226 31.84 0 1 -9.9766 -16.91c-10.054-9.3179-17.64-20.598-22.527-32.867z" fill="#6c0324"/></g><g fill="#00a035"><path d="m74.911 119.87c-3.9066 0-7.0518 3.1452-7.0518 7.0518v28.206c0 .14614.0058.29123.01447.43512h14.075c.0087-.14389.01447-.28898.01447-.43512v-28.206c0-3.9066-3.1452-7.0518-7.0518-7.0518z"/><path d="m102.59 101.04 8.6005 9.8919c.72466.83349 1.9793.92155 2.8128.19688.83349-.72466.92103-1.9792.19637-2.8127l-6.3262-7.276z"/><path d="m105.32 96.867c-.9851.02572-1.9678.38211-2.773 1.0821l-27.316 23.749v11.665l33.092-28.771c1.8403-1.6 2.0341-4.3692.43408-6.2094-.89999-1.0352-2.1704-1.5493-3.437-1.5162z"/></g><path transform="matrix(.26458 0 0 .26458 67.859 87.332)" d="m174.45 101a41.635 98.226 31.84 0 1 -5.6953 16.414l12.443 14.314c.95118 1.094 2.1461 1.8406 3.4297 2.2441a62.197 146.74 31.84 0 0 6.4648 -13.832z" fill="#6c0324"/><rect transform="rotate(-41.005)" x="6.6653" y="154.68" width="3.9872" height="12.917" ry="1.9936" fill="#00a035"/></g><path d="m363.83 29.969c-5.6848 0-9.5757 2.1432-11.681 4.9008-2.1048 2.7576-2.4813 5.7502-2.4813 7.5751v.65121h-1.4929a2.7235 2.7235 0 0 0 -1.7657 .65121v-10.422a2.7235 2.7235 0 0 0 -2.7232 -2.7232h-6.4838a2.7235 2.7235 0 0 0 -2.7232 2.7232v9.6497c-1.2433-.28642-2.5296-.46074-3.8661-.46074-4.8472 0-8.8053 1.676-11.282 4.6614-2.4762 2.9854-3.4079 6.9366-3.4079 11.189 0 1.9778.34534 3.8438.86998 5.6086a2.7235 2.7235 0 0 0 -1.9794 -.30116s-.22978.01726-.33461.03347c-.0975-.41538-.23164-1.212-.23166-2.5456v-27.835a2.7235 2.7235 0 0 0 -2.7232 -2.7232h-6.4838a2.7235 2.7235 0 0 0 -2.7232 2.7232v10.442c-1.8546-.85965-3.8446-1.2535-5.83-1.2535-2.1581 0-4.1828.74846-6.1131 1.8018a2.7235 2.7235 0 0 0 -2.2702 -1.22h-4.5327a2.7235 2.7235 0 0 0 -2.7232 2.7232v25.356a2.7235 2.7235 0 0 0 2.7232 2.7232h6.3268a2.7235 2.7235 0 0 0 2.7232 -2.7232v-16.798c.68552-.40131 1.3752-.88029 2.0205-.88029.9898 0 2.9149.54305 3.7065 1.0708a2.7235 2.7235 0 0 0 3.969 -1.0965v9.0062c0 2.5874.31697 5.4327 1.9948 7.8891s4.8233 4.0591 8.7926 4.0591c2.3643 0 4.3757-.64607 4.3757-.64607a2.7235 2.7235 0 0 0 1.8455 -3.2921l-.77218-2.9626c.43102.71702.68215 1.5567 1.2303 2.1853 2.5798 2.9582 6.4639 4.7155 10.934 4.7155 2.2687 0 4.5302-.63409 6.7514-1.5856l.036.04375a2.7235 2.7235 0 0 0 2.1209 1.0141h4.0591a2.7235 2.7235 0 0 0 2.7232 -2.7232v-18.226a2.7235 2.7235 0 0 0 1.7657 .65379h1.4929v17.572a2.7235 2.7235 0 0 0 2.7232 2.7232h6.4838a2.7235 2.7235 0 0 0 2.7232 -2.7232v-17.572h6.6614a2.7235 2.7235 0 0 0 2.7232 -2.7232v-.11834l.42984 1.6499a2.7235 2.7235 0 0 0 3.9458 1.7014c1.0364-.56836 3.9426-1.3539 5.2277-1.3539 1.5162 0 1.7221.16818 2.1286.296-2.6987.13768-5.3802.42666-7.8222 1.3642-1.8325.70352-3.5697 1.787-4.8339 3.4465-1.2642 1.6595-1.9485 3.8342-1.9485 6.247 0 3.1846 1.4646 6.0023 3.7039 7.7578 2.2394 1.7556 5.1168 2.5559 8.1388 2.5559 2.2578 0 4.3153-.55885 6.2341-1.3925a2.7235 2.7235 0 0 0 1.9897 .86484h5.0604a2.7235 2.7235 0 0 0 2.7232 -2.7232v-9.2713c.64621 3.2077 2.1949 6.0388 4.4967 8.1542 3.0946 2.8442 7.4218 4.368 12.327 4.368 4.5326 0 7.8672-1.1555 9.328-1.8429a2.7235 2.7235 0 0 0 1.4774 -3.1505l-1.2638-4.8493a2.7235 2.7235 0 0 0 -3.8069 -1.7709c-.97478.46418-2.4018 1.1068-5.2611 1.1068-2.0224 0-3.3576-.60629-4.2573-1.498-.89972-.89174-1.4543-2.161-1.4543-3.951 0-1.9144.52302-3.1692 1.3539-4.0076.83087-.83838 2.1259-1.4388 4.3577-1.4388 2.8888 0 4.0908.58357 5.0218 1.0914a2.7235 2.7235 0 0 0 3.8172 -1.3513 2.7235 2.7235 0 0 0 1.9613 .83911h1.4929v9.4c0 2.4649.24603 5.3291 2.1544 7.727 1.9084 2.3979 5.2348 3.6962 9.7424 3.6962 2.9775 0 6.0621-.78888 8.1928-1.6036a2.7235 2.7235 0 0 0 1.6911 -3.1067l-.94721-4.4812a2.7235 2.7235 0 0 0 -3.3924 -2.0592c-.83451.23181-2.6528.63833-3.9639.63833-1.2855 0-1.4599-.26145-1.4466-.2471.0134.01436-.10042-.1136-.10042-.7207v-9.243h6.0282a2.7235 2.7235 0 0 0 2.7232 -2.7232v-5.0604a2.7235 2.7235 0 0 0 -2.7232 -2.7232h-6.0282v-5.238a2.7235 2.7235 0 0 0 -2.7232 -2.7232h-6.4838a2.7235 2.7235 0 0 0 -2.7232 2.7232v5.238h-1.4929a2.7235 2.7235 0 0 0 -2.296 1.2587c-1.8189-1.0106-4.5347-1.8404-9.189-1.8404-4.8828 0-9.1746 1.4617-12.231 4.2985-2.6235 2.4347-3.9796 5.9379-4.3808 9.8093v-1.1042c0-4.1273-1.1564-7.6747-3.8069-9.9534-2.6504-2.2787-6.2734-3.0501-10.566-3.0501-1.8768 0-3.8805.2148-5.6704.54826-1.7899.33346-3.1759.56601-4.6434 1.5444a2.7235 2.7235 0 0 0 -.42986 .35778 2.7235 2.7235 0 0 0 -2.5842 -1.8687h-6.6614v-.86227c0-.84529.48121-1.7039 2.7078-1.7039 1.8695 0 2.5402.26004 3.3847.7207a2.7235 2.7235 0 0 0 3.9407 -1.704l1.2664-4.8493a2.7235 2.7235 0 0 0 -1.2973 -3.0578c-3.0223-1.7049-6.3635-1.6705-7.7707-1.6705zm-260.88 12.545c-4.6369 0-8.7377 1.523-11.608 4.386s-4.3989 6.9557-4.3989 11.57c0 4.5467 1.5269 8.6185 4.3705 11.495 2.8437 2.8768 6.9216 4.4606 11.531 4.4606 4.6157 0 8.7149-1.5971 11.583-4.489 2.8679-2.8919 4.4272-6.991 4.4272-11.572 0-4.547-1.5328-8.6038-4.3834-11.454-2.8507-2.8502-6.9232-4.3963-11.521-4.3963zm32.743 0c-2.9671 0-5.4587.77414-7.7192 1.7554l-.0489-.06431a2.7235 2.7235 0 0 0 -2.193 -1.1094h-4.0591a2.7235 2.7235 0 0 0 -2.7232 2.7232v39.008a2.7235 2.7235 0 0 0 2.7232 2.7232h6.4838a2.7235 2.7235 0 0 0 2.7232 -2.7232v-10.826c1.2129.27249 2.4343.42471 3.655.42471 4.4702 0 8.3543-1.7573 10.934-4.7155 1.6543-1.8969 2.5805-4.3117 3.1711-6.893.66035 2.8118 1.7274 5.3979 3.673 7.2997 2.9222 2.8565 7.1046 4.3088 11.907 4.3088 3.6866 0 7.2392-.63624 10.587-1.7142a2.7235 2.7235 0 0 0 1.8018 -3.2792l-1.2664-4.8493a2.7235 2.7235 0 0 0 -.70783 -1.2329 2.7235 2.7235 0 0 0 2.6409 -2.7181v10.543a2.7235 2.7235 0 0 0 2.7232 2.7232h6.4838a2.7235 2.7235 0 0 0 2.7232 -2.7232v-17.122c1.2759-.35473 2.7568-.81851 3.3384-.81851.9461 0 1.0936.17191 1.3153.45301.22167.2811.4942.97309.4942 2.0952v15.392a2.7235 2.7235 0 0 0 2.7232 2.7232h6.4863a2.7235 2.7235 0 0 0 2.7232 -2.7232v-14.602c0-3.73-.50431-7.138-2.4761-9.8556-1.9718-2.7176-5.4098-4.2033-9.5776-4.2033-2.52 0-5.0609.64876-7.5777 1.6061a2.7235 2.7235 0 0 0 -2.1235 -1.0244h-4.5327a2.7235 2.7235 0 0 0 -2.7232 2.7232v12.334c0-4.5661-1.0786-8.5091-3.5752-11.356-2.4966-2.8471-6.2903-4.283-10.641-4.283-7.1733 0-12.407 4.8133-14.278 11.091-.45085-2.3318-1.166-4.5235-2.5328-6.3319-2.2644-2.9962-6.0229-4.7592-10.556-4.7592zm129.21 0c-4.6369 0-8.7376 1.523-11.608 4.386s-4.3989 6.9557-4.3989 11.57c0 4.5467 1.5269 8.6185 4.3705 11.495 2.8437 2.8768 6.9216 4.4606 11.531 4.4606 4.6157 0 8.713-1.5969 11.58-4.489 2.8672-2.8921 4.4272-6.9913 4.4272-11.572 0-4.5467-1.5308-8.6036-4.3808-11.454-2.85-2.8504-6.9232-4.3963-11.521-4.3963zm196.45 0c-4.6369 0-8.7396 1.5232-11.611 4.386-2.8715 2.8628-4.3989 6.9554-4.3989 11.57 0 4.547 1.5288 8.6186 4.3731 11.495 2.8443 2.8766 6.9216 4.4606 11.531 4.4606 4.6157 0 8.713-1.5969 11.58-4.489 2.8672-2.8921 4.4272-6.9913 4.4272-11.572 0-4.5467-1.5308-8.6036-4.3808-11.454-2.85-2.8504-6.9232-4.3963-11.521-4.3963zm31.582 0c-2.1581 0-4.1828.74846-6.1131 1.8018a2.7235 2.7235 0 0 0 -2.2676 -1.22h-4.5353a2.7235 2.7235 0 0 0 -2.7232 2.7232v25.356a2.7235 2.7235 0 0 0 2.7232 2.7232h6.3268a2.7235 2.7235 0 0 0 2.7232 -2.7232v-16.798c.68553-.40131 1.3752-.88029 2.0205-.88029.98983 0 2.9188.54389 3.709 1.0708a2.7235 2.7235 0 0 0 3.9484 -1.0502l8.041 17.891-5.3229 12.339a2.7235 2.7235 0 0 0 2.5019 3.8017h7.1144a2.7235 2.7235 0 0 0 2.5302 -1.7142l15.552-39.008a2.7235 2.7235 0 0 0 -2.5302 -3.7322h-6.6948a2.7235 2.7235 0 0 0 -2.5688 1.8172l-4.4066 12.509-4.8776-12.587a2.7235 2.7235 0 0 0 -2.5379 -1.74h-7.274a2.7235 2.7235 0 0 0 -.9781 .18533c-1.4241-.46498-2.8843-.76705-4.3602-.76705zm-285.84.58172a2.7235 2.7235 0 0 0 -2.5611 3.6498l9.1735 25.356a2.7235 2.7235 0 0 0 2.5611 1.7966h6.1672a2.7235 2.7235 0 0 0 2.5868 -1.8713l3.2277-9.8016 3.135 9.781a2.7235 2.7235 0 0 0 2.5945 1.8918h6.0642a2.7235 2.7235 0 0 0 2.5585 -1.7915l9.225-25.356a2.7235 2.7235 0 0 0 -2.5585 -3.655h-6.8004a2.7235 2.7235 0 0 0 -2.6228 1.9871l-2.6898 9.5725-2.7747-9.5931a2.7235 2.7235 0 0 0 -2.6151 -1.9665h-7.0629a2.7235 2.7235 0 0 0 -2.6151 1.9588l-2.8159 9.6394-2.7001-9.6111a2.7235 2.7235 0 0 0 -2.6228 -1.9871zm-43.94 9.8736c1.007 0 1.2636.19067 1.5032.45815h-3.4208c.35967-.25858.83937-.45815 1.9176-.45815zm-60.32.05403c1.4333 0 2.208.45843 2.8957 1.3385.68767.88003 1.1814 2.3268 1.1814 4.108 0 1.8759-.47899 3.3165-1.13 4.1569-.65097.8404-1.3878 1.2921-2.9472 1.2921-1.3862 0-2.1267-.44754-2.8056-1.3359-.67892-.88833-1.166-2.3533-1.166-4.1132 0-1.6956.48505-3.171 1.1737-4.0797.68866-.9087 1.4333-1.3668 2.7979-1.3668zm161.96 0c1.4334 0 2.208.45843 2.8957 1.3385.68767.88003 1.1814 2.3268 1.1814 4.108 0 1.8759-.47899 3.3165-1.13 4.1569-.65097.8404-1.3878 1.2921-2.9472 1.2921-1.3862 0-2.1267-.44754-2.8056-1.3359-.67892-.88833-1.166-2.3533-1.166-4.1132 0-1.6956.48505-3.171 1.1737-4.0797.68866-.9087 1.4333-1.3668 2.7979-1.3668zm196.45 0c1.4334 0 2.208.45843 2.8957 1.3385.68767.88003 1.1814 2.3268 1.1814 4.108 0 1.8759-.47897 3.3165-1.13 4.1569-.65097.8404-1.3878 1.2921-2.9472 1.2921-1.3862 0-2.1267-.44754-2.8056-1.3359-.6789-.88833-1.166-2.3533-1.166-4.1132 0-1.6956.48507-3.171 1.1737-4.0797s1.4333-1.3668 2.7979-1.3668zm-327.14.21107c1.6129 0 1.959.30226 2.4247 1.0167.46564.71445.86228 2.2741.86228 4.4812 0 2.0525-.4867 3.3459-1.0682 4.0436-.58149.69775-1.2996 1.0888-2.8519 1.0888-1.0531 0-1.8531-.21671-2.5997-.5431v-9.2868c1.1021-.35457 2.2127-.80049 3.2329-.80049zm198.09 0c.87551 0 1.5743.33164 2.2856.59458v9.4258c-.78244.3714-1.6139.61002-2.7052.61002-1.5523 0-2.2704-.39103-2.8519-1.0888-.5815-.69774-1.0682-1.9911-1.0682-4.0436 0-2.1592.42519-3.5965.97295-4.3114.54775-.71488 1.2614-1.1866 3.3667-1.1866zm51.837 9.7733v.46845c-.66434.26229-1.3969.44272-2.4967.44272-.78772 0-1.3273-.19114-1.4723-.27541.10029-.07657.47771-.29221 1.1377-.44787.70018-.16513 1.8362-.13685 2.8313-.18789zm-222.3.34748h6.3216c-1.0045.15208-1.8595.50964-2.9909.50964-1.692 0-2.6412-.23259-3.3307-.50964zm218.29.28056c-.12586-.08039.0181.23785.0181 0 0-.01713-.00078.01186-.003.0026-.001-.000843-.0142-.0013-.0154-.0026z" style="font-feature-settings:normal;font-variant-caps:normal;font-variant-ligatures:normal;font-variant-numeric:normal"/><path d="m363.83 29.969c-5.6848 0-9.5757 2.1432-11.681 4.9008-2.1048 2.7576-2.4813 5.7502-2.4813 7.5751v.65121h-1.4929a2.7235 2.7235 0 0 0 -1.7657 .65121v-10.422a2.7235 2.7235 0 0 0 -2.7232 -2.7232h-6.4838a2.7235 2.7235 0 0 0 -2.7232 2.7232v9.6497c-1.2433-.28642-2.5296-.46074-3.8661-.46074-4.8472 0-8.8053 1.676-11.282 4.6614-2.4762 2.9854-3.4079 6.9366-3.4079 11.189 0 1.9778.34534 3.8438.86998 5.6086a2.7235 2.7235 0 0 0 -1.9794 -.30116s-.22978.01726-.33461.03347c-.0975-.41538-.23164-1.212-.23166-2.5456v-27.835a2.7235 2.7235 0 0 0 -2.7232 -2.7232h-6.4838a2.7235 2.7235 0 0 0 -2.7232 2.7232v10.442c-1.8546-.85965-3.8446-1.2535-5.83-1.2535-2.1581 0-4.1828.74846-6.1131 1.8018a2.7235 2.7235 0 0 0 -2.2702 -1.22h-4.5327a2.7235 2.7235 0 0 0 -2.7232 2.7232v25.356a2.7235 2.7235 0 0 0 2.7232 2.7232h6.3268a2.7235 2.7235 0 0 0 2.7232 -2.7232v-16.798c.68552-.40131 1.3752-.88029 2.0205-.88029.9898 0 2.9149.54305 3.7065 1.0708a2.7235 2.7235 0 0 0 3.969 -1.0965v9.0062c0 2.5874.31697 5.4327 1.9948 7.8891s4.8233 4.0591 8.7926 4.0591c2.3643 0 4.3757-.64607 4.3757-.64607a2.7235 2.7235 0 0 0 1.8455 -3.2921l-.77218-2.9626c.43102.71702.68215 1.5567 1.2303 2.1853 2.5798 2.9582 6.4639 4.7155 10.934 4.7155 2.2687 0 4.5303-.63409 6.7514-1.5856l.036.04375a2.7235 2.7235 0 0 0 2.1209 1.0141h4.0591a2.7235 2.7235 0 0 0 2.7232 -2.7232v-18.226a2.7235 2.7235 0 0 0 1.7657 .65379h1.4929v17.572a2.7235 2.7235 0 0 0 2.7232 2.7232h6.4838a2.7235 2.7235 0 0 0 2.7232 -2.7232v-17.572h6.6614a2.7235 2.7235 0 0 0 2.7232 -2.7232v-.11834l.42984 1.6499a2.7235 2.7235 0 0 0 3.9458 1.7014c1.0365-.56836 3.9426-1.3539 5.2277-1.3539 1.5162 0 1.7221.16818 2.1286.296-2.6987.13768-5.3802.42666-7.8222 1.3642-1.8325.70352-3.5697 1.787-4.8339 3.4465-1.2642 1.6595-1.9485 3.8342-1.9485 6.247 0 3.1846 1.4646 6.0023 3.7039 7.7578 2.2394 1.7556 5.1168 2.5559 8.1388 2.5559 2.2578 0 4.3153-.55885 6.2341-1.3925a2.7235 2.7235 0 0 0 1.9897 .86484h5.0604a2.7235 2.7235 0 0 0 2.7232 -2.7232v-9.2713c.64621 3.2077 2.1949 6.0388 4.4967 8.1542 3.0946 2.8442 7.4218 4.368 12.327 4.368 4.5326 0 7.8672-1.1555 9.328-1.8429a2.7235 2.7235 0 0 0 1.4774 -3.1505l-1.2638-4.8493a2.7235 2.7235 0 0 0 -3.8069 -1.7709c-.97478.46418-2.4018 1.1068-5.2611 1.1068-2.0224 0-3.3576-.60629-4.2573-1.498-.89972-.89174-1.4543-2.161-1.4543-3.951 0-1.9144.52302-3.1692 1.3539-4.0076.83087-.83838 2.1259-1.4388 4.3577-1.4388 2.8888 0 4.0908.58357 5.0218 1.0914a2.7235 2.7235 0 0 0 3.8172 -1.3513 2.7235 2.7235 0 0 0 1.9613 .83911h1.4929v9.4c0 2.4649.24603 5.3291 2.1544 7.727 1.9084 2.3979 5.2348 3.6962 9.7424 3.6962 2.9775 0 6.0621-.78888 8.1928-1.6036a2.7235 2.7235 0 0 0 1.6911 -3.1067l-.94721-4.4812a2.7235 2.7235 0 0 0 -3.3924 -2.0592c-.83451.23181-2.6528.63833-3.9639.63833-1.2855 0-1.4599-.26145-1.4466-.2471.0134.01436-.10042-.1136-.10042-.7207v-9.243h6.0282a2.7235 2.7235 0 0 0 2.7232 -2.7232v-5.0604a2.7235 2.7235 0 0 0 -2.7232 -2.7232h-6.0282v-5.238a2.7235 2.7235 0 0 0 -2.7232 -2.7232h-6.4838a2.7235 2.7235 0 0 0 -2.7232 2.7232v5.238h-1.4929a2.7235 2.7235 0 0 0 -2.296 1.2587c-1.8189-1.0106-4.5347-1.8404-9.189-1.8404-4.8828 0-9.1746 1.4617-12.231 4.2985-2.6235 2.4347-3.9796 5.9379-4.3808 9.8093v-1.1042c0-4.1273-1.1564-7.6747-3.8069-9.9534-2.6504-2.2787-6.2734-3.0501-10.566-3.0501-1.8768 0-3.8805.2148-5.6704.54826-1.7899.33346-3.1759.56601-4.6434 1.5444a2.7235 2.7235 0 0 0 -.42986 .35778 2.7235 2.7235 0 0 0 -2.5842 -1.8687h-6.6614v-.86227c0-.84529.48121-1.7039 2.7078-1.7039 1.8695 0 2.5402.26004 3.3847.7207a2.7235 2.7235 0 0 0 3.9407 -1.704l1.2664-4.8493a2.7235 2.7235 0 0 0 -1.2973 -3.0578c-3.0223-1.7049-6.3635-1.6705-7.7707-1.6705zm-260.88 12.545c-4.6369 0-8.7377 1.523-11.608 4.386s-4.3989 6.9557-4.3989 11.57c0 4.5467 1.5269 8.6185 4.3705 11.495 2.8437 2.8768 6.9216 4.4606 11.531 4.4606 4.6157 0 8.7149-1.5971 11.583-4.489 2.8679-2.8919 4.4272-6.991 4.4272-11.572 0-4.547-1.5328-8.6038-4.3834-11.454-2.8507-2.8502-6.9232-4.3963-11.521-4.3963zm32.743 0c-2.9671 0-5.4587.77414-7.7192 1.7554l-.0489-.06431a2.7235 2.7235 0 0 0 -2.193 -1.1094h-4.0591a2.7235 2.7235 0 0 0 -2.7232 2.7232v39.008a2.7235 2.7235 0 0 0 2.7232 2.7232h6.4838a2.7235 2.7235 0 0 0 2.7232 -2.7232v-10.826c1.2129.27249 2.4343.42471 3.655.42471 4.4702 0 8.3543-1.7573 10.934-4.7155 1.6543-1.8969 2.5805-4.3117 3.1711-6.893.66035 2.8118 1.7274 5.3979 3.673 7.2997 2.9222 2.8565 7.1046 4.3088 11.907 4.3088 3.6866 0 7.2392-.63624 10.587-1.7142a2.7235 2.7235 0 0 0 1.8018 -3.2792l-1.2664-4.8493a2.7235 2.7235 0 0 0 -.70783 -1.2329 2.7235 2.7235 0 0 0 2.6409 -2.7181v10.543a2.7235 2.7235 0 0 0 2.7232 2.7232h6.4838a2.7235 2.7235 0 0 0 2.7232 -2.7232v-17.122c1.2759-.35473 2.7568-.81851 3.3384-.81851.9461 0 1.0936.17191 1.3153.45301.22167.2811.4942.97309.4942 2.0952v15.392a2.7235 2.7235 0 0 0 2.7232 2.7232h6.4863a2.7235 2.7235 0 0 0 2.7232 -2.7232v-14.602c0-3.73-.50431-7.138-2.4761-9.8556-1.9718-2.7176-5.4098-4.2033-9.5776-4.2033-2.52 0-5.0609.64876-7.5777 1.6061a2.7235 2.7235 0 0 0 -2.1235 -1.0244h-4.5327a2.7235 2.7235 0 0 0 -2.7232 2.7232v12.334c0-4.5661-1.0786-8.5091-3.5752-11.356-2.4966-2.8471-6.2903-4.283-10.641-4.283-7.1733 0-12.407 4.8133-14.278 11.091-.45085-2.3318-1.166-4.5235-2.5328-6.3319-2.2644-2.9962-6.0229-4.7592-10.556-4.7592zm129.21 0c-4.6369 0-8.7376 1.523-11.608 4.386s-4.3989 6.9557-4.3989 11.57c0 4.5467 1.5269 8.6185 4.3705 11.495 2.8437 2.8768 6.9216 4.4606 11.531 4.4606 4.6157 0 8.713-1.5969 11.58-4.489 2.8672-2.8921 4.4272-6.9913 4.4272-11.572 0-4.5467-1.5308-8.6036-4.3808-11.454-2.85-2.8504-6.9232-4.3963-11.521-4.3963zm196.45 0c-4.6369 0-8.7396 1.5232-11.611 4.386-2.8715 2.8628-4.3989 6.9554-4.3989 11.57 0 4.547 1.5288 8.6186 4.3731 11.495 2.8443 2.8766 6.9216 4.4606 11.531 4.4606 4.6157 0 8.713-1.5969 11.58-4.489 2.8672-2.8921 4.4272-6.9913 4.4272-11.572 0-4.5467-1.5308-8.6036-4.3808-11.454-2.85-2.8504-6.9232-4.3963-11.521-4.3963zm31.582 0c-2.1581 0-4.1828.74846-6.1131 1.8018a2.7235 2.7235 0 0 0 -2.2676 -1.22h-4.5353a2.7235 2.7235 0 0 0 -2.7232 2.7232v25.356a2.7235 2.7235 0 0 0 2.7232 2.7232h6.3268a2.7235 2.7235 0 0 0 2.7232 -2.7232v-16.798c.68553-.40131 1.3752-.88029 2.0205-.88029.98983 0 2.9188.54389 3.709 1.0708a2.7235 2.7235 0 0 0 3.9484 -1.0502l8.041 17.891-5.3229 12.339a2.7235 2.7235 0 0 0 2.5019 3.8017h7.1144a2.7235 2.7235 0 0 0 2.5302 -1.7142l15.552-39.008a2.7235 2.7235 0 0 0 -2.5302 -3.7322h-6.6948a2.7235 2.7235 0 0 0 -2.5688 1.8172l-4.4066 12.509-4.8776-12.587a2.7235 2.7235 0 0 0 -2.5379 -1.74h-7.274a2.7235 2.7235 0 0 0 -.9781 .18533c-1.4241-.46498-2.8843-.76705-4.3602-.76705zm-285.84.58172a2.7235 2.7235 0 0 0 -2.5611 3.6498l9.1735 25.356a2.7235 2.7235 0 0 0 2.5611 1.7966h6.1672a2.7235 2.7235 0 0 0 2.5868 -1.8713l3.2277-9.8016 3.135 9.781a2.7235 2.7235 0 0 0 2.5945 1.8918h6.0642a2.7235 2.7235 0 0 0 2.5585 -1.7915l9.225-25.356a2.7235 2.7235 0 0 0 -2.5585 -3.655h-6.8004a2.7235 2.7235 0 0 0 -2.6228 1.9871l-2.6898 9.5725-2.7747-9.5931a2.7235 2.7235 0 0 0 -2.6151 -1.9665h-7.0629a2.7235 2.7235 0 0 0 -2.6151 1.9588l-2.8159 9.6394-2.7001-9.6111a2.7235 2.7235 0 0 0 -2.6228 -1.9871zm-43.94 9.8736c1.007 0 1.2636.19067 1.5032.45815h-3.4208c.35967-.25858.83937-.45815 1.9176-.45815zm-60.32.05403c1.4333 0 2.208.45843 2.8957 1.3385.68767.88003 1.1814 2.3268 1.1814 4.108 0 1.8759-.47899 3.3165-1.13 4.1569-.65097.8404-1.3878 1.2921-2.9472 1.2921-1.3862 0-2.1267-.44754-2.8056-1.3359-.67892-.88833-1.166-2.3533-1.166-4.1132 0-1.6956.48505-3.171 1.1737-4.0797.68866-.9087 1.4333-1.3668 2.7979-1.3668zm161.96 0c1.4334 0 2.208.45843 2.8957 1.3385.68767.88003 1.1814 2.3268 1.1814 4.108 0 1.8759-.47899 3.3165-1.13 4.1569-.65097.8404-1.3878 1.2921-2.9472 1.2921-1.3862 0-2.1267-.44754-2.8056-1.3359-.67892-.88833-1.166-2.3533-1.166-4.1132 0-1.6956.48505-3.171 1.1737-4.0797.68866-.9087 1.4333-1.3668 2.7979-1.3668zm196.45 0c1.4334 0 2.208.45843 2.8957 1.3385.68767.88003 1.1814 2.3268 1.1814 4.108 0 1.8759-.47897 3.3165-1.13 4.1569-.65097.8404-1.3878 1.2921-2.9472 1.2921-1.3862 0-2.1267-.44754-2.8056-1.3359-.6789-.88833-1.166-2.3533-1.166-4.1132 0-1.6956.48507-3.171 1.1737-4.0797s1.4333-1.3668 2.7979-1.3668zm-327.14.21107c1.6129 0 1.959.30226 2.4247 1.0167.46564.71445.86228 2.2741.86228 4.4812 0 2.0525-.4867 3.3459-1.0682 4.0436-.58149.69775-1.2996 1.0888-2.8519 1.0888-1.0531 0-1.8531-.21671-2.5997-.5431v-9.2868c1.1021-.35457 2.2127-.80049 3.2329-.80049zm198.09 0c.87551 0 1.5743.33164 2.2856.59458v9.4258c-.78244.3714-1.6139.61002-2.7052.61002-1.5523 0-2.2704-.39103-2.8519-1.0888-.5815-.69774-1.0682-1.9911-1.0682-4.0436 0-2.1592.42519-3.5965.97295-4.3114.54775-.71488 1.2614-1.1866 3.3667-1.1866zm51.837 9.7733v.46845c-.66434.26229-1.3969.44272-2.4967.44272-.78772 0-1.3273-.19114-1.4723-.27541.10029-.07657.47771-.29221 1.1377-.44787.70018-.16513 1.8362-.13685 2.8313-.18789zm-222.3.34748h6.3216c-1.0045.15208-1.8595.50964-2.9909.50964-1.692 0-2.6412-.23259-3.3307-.50964zm218.29.28056c-.12586-.08039.0181.23785.0181 0l-.003.0026c-.001-.000843-.0142-.0013-.0154-.0026z" style="font-feature-settings:normal;font-variant-caps:normal;font-variant-ligatures:normal;font-variant-numeric:normal"/><g fill="#fff"><path d="m102.85 71.702c8.0128 0 13.284-5.377 13.284-13.337 0-7.9074-5.1662-13.126-13.179-13.126-8.1183 0-13.284 5.1661-13.284 13.232 0 7.9074 5.1661 13.232 13.179 13.232zm0-21.403c4.3754 0 6.8003 3.6374 6.8003 8.171 0 4.639-2.2668 8.171-6.8003 8.171-4.3227 0-6.6949-3.6901-6.6949-8.171 0-4.3754 2.3722-8.171 6.6949-8.171z" style="font-feature-settings:normal;font-variant-caps:normal;font-variant-ligatures:normal;font-variant-numeric:normal"/><path d="m128.16 84.828v-14.655c2.1086 1.0543 4.2173 1.5288 6.3786 1.5288 7.5911 0 12.072-5.6406 12.072-13.337 0-7.6965-3.1102-13.126-10.912-13.126-3.4265 0-6.2205 1.0016-8.6454 2.3722l-1.3179-1.7923h-4.0591v39.01zm0-32.895c1.2652-.52716 3.6901-1.4233 5.9569-1.4233 4.5336 0 6.0096 3.2684 6.0096 8.2237 0 4.9553-2.3195 7.8547-6.6422 7.8547-2.0559 0-3.7956-.52716-5.3243-1.6342z" style="font-feature-settings:normal;font-variant-caps:normal;font-variant-ligatures:normal;font-variant-numeric:normal"/><path d="m165.06 66.588c-6.2205 0-7.6438-2.6885-7.9074-5.9569h17.396v-2.4777c0-8.2764-3.901-12.915-11.492-12.915-7.5384 0-12.441 5.9042-12.441 13.232 0 8.2237 5.0607 13.232 13.601 13.232 3.3738 0 6.6422-.57987 9.7524-1.5815l-1.2652-4.8499c-2.3195.89617-4.8499 1.3179-7.6438 1.3179zm-7.8546-10.438c.31629-3.0575 1.6342-5.9042 5.9569-5.9042 3.163 0 4.9026 1.8451 4.9026 5.9042z" style="font-feature-settings:normal;font-variant-caps:normal;font-variant-ligatures:normal;font-variant-numeric:normal"/><path d="m203.56 56.572c0-6.9058-2.1086-11.334-9.3307-11.334-2.8466 0-5.7987.73801-8.7508 2.2141l-.94889-1.6342h-4.5336v25.356h6.4841v-19.241c2.5831-.94888 4.5863-1.4233 6.0623-1.4233 3.163 0 4.5336 2.2141 4.5336 5.2716v15.393h6.484z" style="font-feature-settings:normal;font-variant-caps:normal;font-variant-ligatures:normal;font-variant-numeric:normal"/><path d="m219.23 64.585-5.2716-18.767h-6.8531l9.1726 25.356h6.1678l5.8515-17.765 5.6933 17.765h6.0623l9.2253-25.356h-6.8003l-5.2716 18.767-5.4297-18.767h-7.0639z" style="font-feature-settings:normal;font-variant-caps:normal;font-variant-ligatures:normal;font-variant-numeric:normal"/><path d="m264.8 71.702c8.0128 0 13.284-5.377 13.284-13.337 0-7.9074-5.1662-13.126-13.179-13.126-8.1182 0-13.284 5.1661-13.284 13.232 0 7.9074 5.1662 13.232 13.179 13.232zm0-21.403c4.3754 0 6.8004 3.6374 6.8004 8.171 0 4.639-2.2668 8.171-6.8004 8.171-4.3227 0-6.6949-3.6901-6.6949-8.171 0-4.3754 2.3722-8.171 6.6949-8.171z" style="font-feature-settings:normal;font-variant-caps:normal;font-variant-ligatures:normal;font-variant-numeric:normal"/><path d="m283.58 45.818v25.356h6.3259v-18.451c1.476-1.2652 3.0575-1.9505 4.7444-1.9505 1.6342 0 3.7955.57987 5.2189 1.5288l1.3179-6.0623c-1.476-.68531-3.0575-1.0016-4.6917-1.0016-2.6885 0-5.2189 1.107-7.5911 3.2684l-.79074-2.6885z" style="font-feature-settings:normal;font-variant-caps:normal;font-variant-ligatures:normal;font-variant-numeric:normal"/><path d="m313.95 66.483c-2.0559 0-2.4249-2.0559-2.4249-5.3243v-27.834h-6.484v29.152c0 4.639 1.3706 9.2253 8.0655 9.2253 1.8451 0 3.5847-.52716 3.5847-.52716l-1.2652-4.8499s-.6853.15814-1.476.15814z" style="font-feature-settings:normal;font-variant-caps:normal;font-variant-ligatures:normal;font-variant-numeric:normal"/><path d="m337.21 64.849c-1.5815 1.2125-3.3738 1.7396-5.4297 1.7396-4.3227 0-6.6422-2.8994-6.6422-7.8547 0-4.9553 1.7396-8.2237 7.0639-8.2237 1.8978 0 3.9537.63258 5.008 1.4233zm0-17.923c-1.8978-1.1597-4.0591-1.6869-6.5895-1.6869-8.54 0-11.966 5.4297-11.966 13.126 0 7.6965 4.4808 13.337 12.072 13.337 2.5304 0 5.0607-.68531 7.5911-2.1614l1.3179 1.6342h4.0591v-37.85h-6.4841z" style="font-feature-settings:normal;font-variant-caps:normal;font-variant-ligatures:normal;font-variant-numeric:normal"/><path d="m352.4 42.444v3.3738h-4.2173v5.0607h4.2173v20.296h6.484v-20.296h9.3834v-5.0607h-9.3834v-3.5847c0-2.4249 2.1086-4.4281 5.4297-4.4281 2.2141 0 3.532.42173 4.6917 1.0543l1.2652-4.8499c-2.0559-1.1598-5.2716-1.3179-6.4313-1.3179-10.121 0-11.439 6.9585-11.439 9.7524z" style="font-feature-settings:normal;font-variant-caps:normal;font-variant-ligatures:normal;font-variant-numeric:normal"/><path d="m386.76 65.165c-1.3706.84346-2.8994 1.476-5.2189 1.476s-4.2173-.89617-4.2173-3.0048c0-3.532 5.5352-3.532 9.4361-3.532zm0-9.5416c-7.8019 0-15.92.73803-15.92 8.4873 0 4.8499 4.0591 7.5911 9.1198 7.5911 2.9521 0 5.4297-.73803 7.3802-2.2668l.84345 1.7396h5.0607v-15.657c0-7.3275-3.7428-10.28-11.65-10.28-3.3211 0-7.5384.79073-8.8036 1.6342l1.2652 4.8499c1.6342-.89617 4.5336-1.6869 6.5368-1.6869 4.7971 0 6.1678 1.107 6.1678 5.5879z" style="font-feature-settings:normal;font-variant-caps:normal;font-variant-ligatures:normal;font-variant-numeric:normal"/><path d="m404.83 58.47c0-4.9026 2.8994-8.171 8.4345-8.171 3.3211 0 5.1662.79074 6.3259 1.4233l1.2652-4.8499c-1.2652-.79074-3.5847-1.6342-8.2764-1.6342-8.6981 0-14.233 5.1134-14.233 13.232 0 7.9074 5.746 13.232 14.444 13.232 4.0064 0 7.2748-1.1598 8.171-1.5815l-1.2652-4.8499c-1.107.52716-3.1102 1.3706-6.4313 1.3706-5.2189 0-8.4345-3.3738-8.4345-8.171z" style="font-feature-settings:normal;font-variant-caps:normal;font-variant-ligatures:normal;font-variant-numeric:normal"/><path d="m444.67 70.278-.94889-4.4809c-.94888.26358-2.8994.73803-4.6917.73803-3.4792 0-4.27-1.7396-4.27-3.6901v-11.967h8.7508v-5.0607h-8.7508v-7.9601h-6.484v7.9601h-4.2173v5.0607h4.2173v12.125c0 4.4808 1.107 8.6981 9.1726 8.6981 2.4249 0 5.4297-.73803 7.2221-1.4233z" style="font-feature-settings:normal;font-variant-caps:normal;font-variant-ligatures:normal;font-variant-numeric:normal"/><path d="m461.25 71.702c8.0128 0 13.284-5.377 13.284-13.337 0-7.9074-5.1661-13.126-13.179-13.126-8.1182 0-13.284 5.1661-13.284 13.232 0 7.9074 5.1662 13.232 13.179 13.232zm0-21.403c4.3754 0 6.8004 3.6374 6.8004 8.171 0 4.639-2.2668 8.171-6.8004 8.171-4.3227 0-6.6949-3.6901-6.6949-8.171 0-4.3754 2.3722-8.171 6.6949-8.171z" style="font-feature-settings:normal;font-variant-caps:normal;font-variant-ligatures:normal;font-variant-numeric:normal"/><path d="m480.02 45.818v25.356h6.3259v-18.451c1.476-1.2652 3.0575-1.9505 4.7444-1.9505 1.6342 0 3.7955.57987 5.2189 1.5288l1.3179-6.0623c-1.476-.68531-3.0575-1.0016-4.6917-1.0016-2.6885 0-5.2189 1.107-7.5911 3.2684l-.79074-2.6885z" style="font-feature-settings:normal;font-variant-caps:normal;font-variant-ligatures:normal;font-variant-numeric:normal"/><path d="m498.28 45.818 11.492 25.567-5.7987 13.443h7.1166l15.551-39.01h-6.6949l-6.8531 19.452-7.5384-19.452z" style="font-feature-settings:normal;font-variant-caps:normal;font-variant-ligatures:normal;font-variant-numeric:normal"/></g></g></svg>
