<?xml version="1.0" encoding="UTF-8"?>
<svg width="103.72mm" height="56.268mm" version="1.1" viewBox="0 0 103.71939 56.268425" xmlns="http://www.w3.org/2000/svg"><g transform="translate(-20.236 -57.685)"><g style="font-feature-settings:normal;font-variant-caps:normal;font-variant-ligatures:normal;font-variant-numeric:normal" aria-label="“"><path d="m30.467 94.903c5.6444 0 10.231-4.0569 10.231-9.525 0-5.1153-2.2931-8.2903-6.8792-9.7014 1.4111-3.5278 4.0569-8.1139 7.7611-13.935l-5.8208-4.0569c-10.407 9.1722-15.522 17.639-15.522 25.753 0 6.5264 3.8806 11.465 10.231 11.465zm27.164 0c5.6444 0 10.231-4.0569 10.231-9.525 0-5.1153-2.2931-8.2903-6.8792-9.7014 1.4111-3.5278 4.0569-8.1139 7.7611-13.935l-5.8208-4.0569c-10.407 9.1722-15.522 17.639-15.522 25.753 0 6.5264 3.8806 11.465 10.231 11.465z" stroke-width="4.9221" style="font-feature-settings:normal;font-variant-caps:normal;font-variant-ligatures:normal;font-variant-numeric:normal"/></g><g style="font-feature-settings:normal;font-variant-caps:normal;font-variant-ligatures:normal;font-variant-numeric:normal" aria-label="”"><path d="m86.561 76.735c-5.6444 0-10.231 4.0569-10.231 9.525 0 5.1153 2.2931 8.2903 6.8792 9.7014-1.4111 3.3514-5.9972 11.289-7.7611 14.111l5.6444 3.8806c4.5861-3.8806 8.2903-8.1139 11.289-12.524 2.9986-4.4097 4.4097-8.8194 4.4097-13.229 0-6.5264-3.8806-11.465-10.231-11.465zm27.164 0c-5.6444 0-10.231 4.0569-10.231 9.525 0 5.1153 2.293 8.2903 6.8792 9.7014-1.4111 3.3514-5.9972 11.289-7.7611 14.111l5.6444 3.8806c4.5861-3.8806 8.2903-8.1139 11.289-12.524 2.9986-4.4097 4.4097-8.8194 4.4097-13.229 0-6.5264-3.8806-11.465-10.231-11.465z" dominant-baseline="auto" stroke-width=".26458" style="font-feature-settings:normal;font-variant-alternates:normal;font-variant-caps:normal;font-variant-east-asian:normal;font-variant-ligatures:normal;font-variant-numeric:normal;font-variant-position:normal;shape-padding:0;text-decoration-color:#000000;text-decoration-line:none;text-decoration-style:solid;text-indent:0;text-orientation:mixed;text-transform:none;white-space:normal"/></g></g></svg>
