<svg width="91.206mm" height="91.206mm" version="1.1" viewBox="0 0 91.205574 91.205574" xmlns="http://www.w3.org/2000/svg">
<g transform="translate(-61.201 -95.836)">
<path transform="scale(.26458)" d="m232.26 363.16v342.82h59.412v-148.95h224v148.95h59.412v-275.83l-66.99-66.992h-33.295v10.48c0 1.8966-0.19125 3.7472-0.55469 5.5332-0.36359 1.786-0.90074 3.5071-1.5918 5.1465-0.69109 1.6394-1.5352 3.1958-2.5176 4.6523-0.98238 1.4565-2.1023 2.8132-3.3398 4.0508-1.2375 1.2375-2.5943 2.3575-4.0508 3.3398-1.4565 0.98237-3.013 1.8265-4.6523 2.5176-1.6394 0.69108-3.3605 1.2282-5.1465 1.5918-1.7861 0.36359-3.6366 0.55469-5.5332 0.55469h-128.5c-1.8966 0-3.7472-0.19125-5.5332-0.55469-1.786-0.36359-3.5071-0.90071-5.1465-1.5918-1.6394-0.69109-3.1958-1.5352-4.6523-2.5176-1.4565-0.98238-2.8132-2.1023-4.0508-3.3398-1.2375-1.2375-2.3575-2.5943-3.3398-4.0508-0.98238-1.4565-1.8265-3.013-2.5176-4.6523-0.69108-1.6394-1.2282-3.3605-1.5918-5.1465-0.36363-1.786-0.55469-3.6366-0.55469-5.5332v-10.48zm164.87 0c-9.4257 0-17.014 7.588-17.014 17.014 0 9.4257 7.588 17.014 17.014 17.014h21.273c9.4257 0 17.014-7.588 17.014-17.014 0-9.4257-7.588-17.014-17.014-17.014zm-79.486 210.15c-2.3359 0-4.2168 3.8665-4.2168 8.6699 0 4.8034 1.8809 8.6699 4.2168 8.6699h172.07c2.3359 0 4.2168-3.8665 4.2168-8.6699 0-4.8034-1.8809-8.6699-4.2168-8.6699zm0 31.619c-2.3359 0-4.2168 3.8665-4.2168 8.6699 0 4.8034 1.8809 8.6699 4.2168 8.6699h172.07c2.3359 0 4.2168-3.8665 4.2168-8.6699 0-4.8034-1.8809-8.6699-4.2168-8.6699zm0 31.617c-2.3359 0-4.2168 3.8665-4.2168 8.6699 0 4.8034 1.8809 8.6719 4.2168 8.6719h172.07c2.3359 0 4.2168-3.8684 4.2168-8.6719 0-4.8034-1.8809-8.6699-4.2168-8.6699zm0 31.619c-2.3359 0-4.2168 3.8665-4.2168 8.6699 0 4.8034 1.8809 8.6699 4.2168 8.6699h172.07c2.3359 0 4.2168-3.8665 4.2168-8.6699 0-4.8034-1.8809-8.6699-4.2168-8.6699z" stroke="#000" stroke-width="1.8898"/>
</g>
</svg>
