<svg width="242.18mm" height="209.69mm" version="1.1" viewBox="0 0 242.17902 209.69211" xmlns="http://www.w3.org/2000/svg"><path transform="matrix(.26459 0 0 .26459 -.0017041 0)" d="m457.65-0.0019531a251.88 251.88 0 0 0 -251.88 251.88 251.88 251.88 0 0 0 3.418 40.779 251.88 251.88 0 0 1 42.695 -3.9102 251.88 251.88 0 0 1 205.67 107.01 251.88 251.88 0 0 0 -42.352 104.13 251.88 251.88 0 0 0 0.02148 0.00195 251.88 251.88 0 0 0 -0.00195 0.00781 251.88 251.88 0 0 0 42.438 3.873 251.88 251.88 0 0 0 42.43 -3.6191 251.88 251.88 0 0 1 3.6797 40.484 251.88 251.88 0 0 1 -46.012 144.87 251.88 251.88 0 0 1 -46.215 -144.87 251.88 251.88 0 0 1 3.6562 -40.744 251.88 251.88 0 0 1 -206 -207.22 251.88 251.88 0 0 0 -209.19 247.97 251.88 251.88 0 0 0 251.88 251.88 251.88 251.88 0 0 0 205.87 -107.01 251.88 251.88 0 0 0 205.66 107 251.88 251.88 0 0 0 251.88 -251.88 251.88 251.88 0 0 0 -209.34 -248.25 251.88 251.88 0 0 1 -205.86 207.76 251.88 251.88 0 0 0 -35.385 -93.613 251.88 251.88 0 0 0 -0.00586 -0.00977 251.88 251.88 0 0 0 -7.1602 -10.766 251.88 251.88 0 0 1 205.86 -107 251.88 251.88 0 0 1 42.537 3.6328 251.88 251.88 0 0 0 3.5801 -40.504 251.88 251.88 0 0 0 -251.88 -251.88h-0.00782zm-42.453 499.89l0.00195 0.00196a251.88 251.88 0 0 1 0.00196 -0.00586 251.88 251.88 0 0 1 -0.00391 0v0.0039z" stroke-width=".99998" style="paint-order:normal"/></svg>
