<?xml version="1.0" encoding="UTF-8"?>
<svg width="100.2mm" height="100.26mm" version="1.1" viewBox="0 0 100.20467 100.26049" xmlns="http://www.w3.org/2000/svg"><g transform="translate(-80.647 -91.872)"><g style="font-feature-settings:normal;font-variant-caps:normal;font-variant-ligatures:normal;font-variant-numeric:normal" aria-label="☺"><path d="m107 126.76q0-3.2936 2.233-5.5266 2.2888-2.2888 5.5824-2.2888 3.2378 0 5.5266 2.2888 2.2888 2.233 2.2888 5.5266 0 3.2936-2.2888 5.5824-2.2888 2.2888-5.5266 2.2888-3.2936 0-5.5824-2.2888-2.233-2.3446-2.233-5.5824zm32.266 0q0-3.2936 2.2888-5.5266 2.2888-2.2888 5.5266-2.2888t5.5266 2.2888q2.3446 2.233 2.3446 5.5266 0 3.2378-2.3446 5.5824-2.2888 2.2888-5.5266 2.2888-3.2936 0-5.5824-2.2888-2.233-2.3446-2.233-5.5824zm-58.616 15.352q0-20.822 14.682-35.504 14.682-14.738 35.448-14.738 20.822 0 35.448 14.738 14.626 14.682 14.626 35.504 0 20.767-14.626 35.393-14.626 14.626-35.448 14.626-20.767 0-35.448-14.626-14.682-14.626-14.682-35.393zm7.5363 0q0 17.64 12.449 30.089 12.505 12.393 30.145 12.393 17.696 0 30.089-12.393 12.449-12.449 12.449-30.089 0-17.696-12.449-30.201-12.393-12.505-30.089-12.505-17.64 0-30.145 12.505-12.449 12.505-12.449 30.201zm13.175 15.687 6.4198-3.9635q1.5631 2.4004 3.796 4.5776 7.9271 7.927 19.204 7.927t19.204-7.927q2.1772-2.1772 3.796-4.6334l6.4198 4.0194q-2.0655 3.1262-4.8567 5.9732-10.16 10.104-24.563 10.104t-24.563-10.104q-2.847-2.847-4.8567-5.9732z" dominant-baseline="auto" stroke-width=".26458" style="font-feature-settings:normal;font-variant-alternates:normal;font-variant-caps:normal;font-variant-east-asian:normal;font-variant-ligatures:normal;font-variant-numeric:normal;font-variant-position:normal;shape-padding:0;text-decoration-color:#000000;text-decoration-line:none;text-decoration-style:solid;text-indent:0;text-orientation:mixed;text-transform:none;white-space:normal"/></g></g></svg>
