<svg width="100mm" height="100mm" version="1.1" viewBox="0 0 100 100" xmlns="http://www.w3.org/2000/svg"><g transform="translate(0,-197)"><path d="m40.238 274.83a10 10 0 0 1 11.395 -7.6965 10 10 0 0 1 8.3076 10.957 10 10 0 0 1 -10.487 8.8939 10 10 0 0 1 -9.4536 -9.9851" style="paint-order:normal"/><path d="m40.238 244.83a10 10 0 0 1 11.395 -7.6965 10 10 0 0 1 8.3076 10.957 10 10 0 0 1 -10.487 8.8939 10 10 0 0 1 -9.4536 -9.9851" style="paint-order:normal"/><path d="m40.238 214.83a10 10 0 0 1 11.395 -7.6965 10 10 0 0 1 8.3076 10.957 10 10 0 0 1 -10.487 8.8939 10 10 0 0 1 -9.4536 -9.9851" style="paint-order:normal"/></g></svg>
