<?xml version="1.0" encoding="UTF-8"?>
<svg width="113mm" height="156.53mm" version="1.1" viewBox="0 0 112.9971 156.52791" xmlns="http://www.w3.org/2000/svg"><g transform="translate(-17.681 -45.885)"><g stroke-width="1.2221" style="font-feature-settings:normal;font-variant-caps:normal;font-variant-ligatures:normal;font-variant-numeric:normal" aria-label="1. AB 2. CD 3. EF"><path d="m27.458 45.885-7.2349 3.0797 1.3199 2.7375 6.5016-2.4931v27.278h-9.0436v3.2264h21.265v-3.2264h-8.1637v-30.602z" style="font-feature-settings:normal;font-variant-caps:normal;font-variant-ligatures:normal;font-variant-numeric:normal"/><path d="m48.489 80.202c1.711 0 2.9331-1.271 2.9331-2.9331s-1.2221-2.9331-2.9331-2.9331-2.9331 1.271-2.9331 2.9331 1.2221 2.9331 2.9331 2.9331z" style="font-feature-settings:normal;font-variant-caps:normal;font-variant-ligatures:normal;font-variant-numeric:normal"/><path d="m96.808 79.713-11.537-33.828h-5.084l-11.488 33.828h4.2041l3.2753-9.9235h12.808l3.2753 9.9235zm-14.225-29.624 5.2795 16.132h-10.559z" style="font-feature-settings:normal;font-variant-caps:normal;font-variant-ligatures:normal;font-variant-numeric:normal"/><path d="m118.84 54.537c0 3.8619-3.1775 5.3773-6.8438 5.3773h-6.4527v-10.461h6.9416c4.2529 0 6.355 1.6132 6.355 5.084zm2.6886 15.252c0 4.7907-3.7641 6.355-9.0436 6.355h-6.9416v-12.661h6.9416c4.8884 0 9.0436 1.3688 9.0436 6.3061zm-3.0308-8.7014c2.7375-1.3199 4.2529-3.5197 4.2529-7.0882 0-5.4262-4.2041-8.1148-8.8481-8.1148h-12.417v33.828h12.905c6.3061 0 11.146-2.7375 11.146-9.2392 0-7.186-4.4974-8.897-7.0394-9.3858z" style="font-feature-settings:normal;font-variant-caps:normal;font-variant-ligatures:normal;font-variant-numeric:normal"/><path d="m18.414 109.63 1.6132 2.7375c2.0531-1.3688 4.3018-2.8353 7.8215-2.8353 4.1063 0 6.9905 2.1998 6.9905 6.5505 0 4.8396-3.813 9.1414-15.643 22.438v2.2976h20.043v-3.2264h-14.372c11.683-13.297 14.03-16.816 14.03-21.509 0-5.915-4.4485-9.7769-10.412-9.7769-4.7907 0-6.8927 1.3199-10.07 3.3241z" style="font-feature-settings:normal;font-variant-caps:normal;font-variant-ligatures:normal;font-variant-numeric:normal"/><path d="m48.489 141.31c1.711 0 2.9331-1.271 2.9331-2.9331s-1.2221-2.9331-2.9331-2.9331-2.9331 1.271-2.9331 2.9331 1.2221 2.9331 2.9331 2.9331z" style="font-feature-settings:normal;font-variant-caps:normal;font-variant-ligatures:normal;font-variant-numeric:normal"/><path d="m96.954 138.91-1.5643-3.373c-2.0531 1.3199-4.9862 2.1998-8.0659 2.1998-7.8215 0-12.368-5.9639-12.368-13.834s4.5463-14.03 12.368-14.03c3.0797 0 6.2572 0.97769 8.0659 2.1998l1.5643-3.373c-2.1509-1.3199-5.6217-2.3953-9.6302-2.3953-9.7769 0-16.425 7.8215-16.425 17.598s6.6483 17.403 16.425 17.403c3.2753 0 6.7949-0.78215 9.6302-2.3953z" style="font-feature-settings:normal;font-variant-caps:normal;font-variant-ligatures:normal;font-variant-numeric:normal"/><path d="m107.26 137.25v-26.691h7.5771c8.1637 0 11.781 6.5505 11.781 13.345 0 6.8438-3.4219 13.345-11.781 13.345zm7.8704 3.5686c10.119 0 15.545-7.1371 15.545-16.914 0-9.6791-5.475-16.914-15.545-16.914h-11.928v33.828z" style="font-feature-settings:normal;font-variant-caps:normal;font-variant-ligatures:normal;font-variant-numeric:normal"/><path d="m27.702 202.41c6.355 0 11.781-2.8353 11.781-9.4347 0-5.6217-2.8842-7.8215-6.9416-8.7992 2.6398-1.4176 5.1817-3.813 5.1817-8.017 0-4.9862-3.6174-8.7503-9.8747-8.7503-3.5686 0-6.0128 1.3199-9.1903 3.3241l1.6132 2.7375c2.0531-1.3688 4.5463-2.8353 7.5771-2.8353 3.6663 0 5.8172 2.1509 5.8172 5.8661 0 3.9596-3.8619 6.746-7.3327 6.746h-2.1998v3.2264h2.8842c1.9065 0 8.4081 0.68438 8.4081 6.2572 0 4.5951-3.4708 6.4527-8.0659 6.4527-3.2753 0-6.0128-1.1243-8.0659-2.4442l-1.6132 2.7375c3.1775 1.9554 5.5239 2.9331 10.021 2.9331z" style="font-feature-settings:normal;font-variant-caps:normal;font-variant-ligatures:normal;font-variant-numeric:normal"/><path d="m48.489 202.41c1.711 0 2.9331-1.271 2.9331-2.9331s-1.2221-2.9331-2.9331-2.9331-2.9331 1.271-2.9331 2.9331 1.2221 2.9331 2.9331 2.9331z" style="font-feature-settings:normal;font-variant-caps:normal;font-variant-ligatures:normal;font-variant-numeric:normal"/><path d="m72.366 201.92h19.847v-3.5686h-15.79v-12.661h14.47v-3.5686h-14.47v-10.461h15.79v-3.5686h-19.847z" style="font-feature-settings:normal;font-variant-caps:normal;font-variant-ligatures:normal;font-variant-numeric:normal"/><path d="m102.49 171.66h15.545v-3.5686h-19.603v33.828h4.0574v-15.692h14.128v-3.5686h-14.128z" style="font-feature-settings:normal;font-variant-caps:normal;font-variant-ligatures:normal;font-variant-numeric:normal"/></g></g></svg>
