<svg width="694.9mm" height="100mm" version="1.1" viewBox="0 0 694.90124 100" xmlns="http://www.w3.org/2000/svg"><g transform="translate(61.293 -30.29)"><g transform="matrix(1.4659 0 0 1.4659 -160.77 -97.74)" stroke-width="0"><rect transform="rotate(229)" x="-157.62" y="5.4673" width="3.9872" height="12.917" ry="1.9936" fill="#800080"/><g><circle transform="rotate(-58.16)" cx="-51.134" cy="147.87" r="24.023" fill="#00009d"/><path transform="matrix(.26458 0 0 .26458 67.859 87.332)" d="m187.14 72.424a41.635 98.226 31.84 0 1 -25.441 92.475 41.635 98.226 31.84 0 1 -50.068 54.574 90.795 90.795 0 0 0 41.645 -7.6738 62.197 146.74 31.84 0 0 25.891 -36.053 62.197 146.74 31.84 0 0 27.404 -55.004 90.795 90.795 0 0 0 -19.43 -48.318z" fill="#00008b"/><path transform="matrix(.26458 0 0 .26458 67.859 87.332)" d="m175.8 60.471c-3.0308.45072-5.9771 1.7323-8.4707 3.9004l-96.619 84.006c-2.4781-.75704-5.1115-1.168-7.8438-1.168-14.024 0-25.442 10.726-26.555 24.453a90.795 90.795 0 0 0 32.117 34.404 90.795 90.795 0 0 0 21.092 9.5547v-39.51l93.955-81.688 11.584 13.324-7.0488 6.1289c-3.1502 2.7389-3.481 7.4787-.74219 10.629l18.314 21.066a90.795 90.795 0 0 0 1.3047 -21.469l-3.3027-3.7988 2.8281-2.457a90.795 90.795 0 0 0 -10 -31.508l-2.75-3.1621c.13738-.33813.26254-.68039.37695-1.0254a90.795 90.795 0 0 0 -18.24 -21.682z" fill="#00008b"/><g fill="#00a035"><rect transform="rotate(-41.005)" x="15.595" y="154.68" width="3.9872" height="12.917" ry="1.9936"/><rect transform="rotate(229)" x="-158.67" y="6.6653" width="3.9872" height="12.917" ry="1.9936"/></g><path transform="matrix(.26458 0 0 .26458 67.859 87.332)" d="m174.67.14844a62.197 146.74 31.84 0 0 -65.504 38.271c13.154-1.0518 26.617.75027 39.416 5.6289a41.635 98.226 31.84 0 1 19.568 1.4395 41.635 98.226 31.84 0 1 -16.449 105.41 41.635 98.226 31.84 0 1 -61.021 60.578c-.63164.33746-1.3029.6083-2.0176.80469a41.635 98.226 31.84 0 1 -24.15 .0977 41.635 98.226 31.84 0 1 -9.9766 -16.91c-10.054-9.318-17.64-20.598-22.527-32.867a62.197 146.74 31.84 0 0 6.9121 90.988 62.197 146.74 31.84 0 0 130.25 -91.844 62.197 146.74 31.84 0 0 24.574 -157.47 62.197 146.74 31.84 0 0 -19.072 -4.1289z" fill="#80002f"/><path transform="matrix(.26458 0 0 .26458 67.859 87.332)" d="m32.008 162.6a62.197 146.74 31.84 0 0 6.9121 90.988 62.197 146.74 31.84 0 0 32.385 1.2051v-40.047a41.635 98.226 31.84 0 1 -6.793 -2.3691 41.635 98.226 31.84 0 1 -9.9766 -16.91c-10.054-9.3179-17.64-20.598-22.527-32.867z" fill="#6c0324"/></g><g fill="#00a035"><path d="m74.911 119.87c-3.9066 0-7.0518 3.1452-7.0518 7.0518v28.206c0 .14614.0058.29123.01447.43512h14.075c.0087-.14389.01447-.28898.01447-.43512v-28.206c0-3.9066-3.1452-7.0518-7.0518-7.0518z"/><path d="m102.59 101.04 8.6005 9.8919c.72466.83349 1.9793.92155 2.8128.19688.83349-.72466.92103-1.9792.19637-2.8127l-6.3262-7.276z"/><path d="m105.32 96.867c-.9851.02572-1.9678.38211-2.773 1.0821l-27.316 23.749v11.665l33.092-28.771c1.8403-1.6 2.0341-4.3692.43408-6.2094-.89999-1.0352-2.1704-1.5493-3.437-1.5162z"/></g><path transform="matrix(.26458 0 0 .26458 67.859 87.332)" d="m174.45 101a41.635 98.226 31.84 0 1 -5.6953 16.414l12.443 14.314c.95118 1.094 2.1461 1.8406 3.4297 2.2441a62.197 146.74 31.84 0 0 6.4648 -13.832z" fill="#6c0324"/><rect transform="rotate(-41.005)" x="6.6653" y="154.68" width="3.9872" height="12.917" ry="1.9936" fill="#00a035"/></g><path transform="matrix(.26458 0 0 .26458 -93.612 26.246)" d="m2315 77.172c-31.341 0-53.754 12.077-65.807 27.865-11.752 15.394-13.989 31.717-14.096 42.193h-3.6601a18.9 18.9 0 0 0 -18.898 18.898v1.7441c-1.8994-2.2708-3.9269-4.4426-6.209-6.4043-15.311-13.161-35.781-17.334-59.234-17.334-10.363 0-21.254 1.1662-31.068 2.9941-8.56 1.5942-15.352 2.7342-23.02 7.0039a18.9 18.9 0 0 0 -4.4258 -2.8945c-10.54-4.8937-21.84-7.1035-33-7.1035-11.225 0-22.074 2.8819-32.184 7.9004a18.9 18.9 0 0 0 -12.553 -4.8047h-24.197a18.9 18.9 0 0 0 -17.068 10.836 18.9 18.9 0 0 0 -2.9804 -2.3359c-10.434-6.5211-26.883-11.596-54.19-11.596-26.915 0-50.996 8.0992-68.248 24.109-7.5172 6.9759-13.436 15.423-17.836 24.814v-93.611a18.9 18.9 0 0 0 -18.898 -18.898h-34.607a18.9 18.9 0 0 0 -18.898 18.898v46.17c-5.3266-.8859-10.736-1.4824-16.272-1.4824-26.795 0-49.47 9.4575-63.572 26.457-14.102 17-19.195 39.156-19.195 62.5 0 8.1297.8734 16.034 2.4882 23.623a18.9 18.9 0 0 0 -2.2461 .0293c-.2298-2.3763-.4589-5.2081-.4589-8.7402v-148.56a18.9 18.9 0 0 0 -18.898 -18.898h-34.607a18.9 18.9 0 0 0 -18.898 18.898v49.322c-8.7014-3.116-17.761-4.6348-26.752-4.6348-11.225 0-22.074 2.8819-32.184 7.9004a18.9 18.9 0 0 0 -12.553 -4.8047h-24.197a18.9 18.9 0 0 0 -18.898 18.898v26.418c-4.0305-8.855-9.3873-16.893-16.168-23.674-16.104-16.105-39.084-24.738-64.57-24.738-25.498 0-48.483 8.4061-64.693 24.373a18.9 18.9 0 0 0 -18.73 -21.277h-36.295a18.9 18.9 0 0 0 -18.193 13.787l-10.211 36.354-10.559-36.494a18.9 18.9 0 0 0 -18.152 -13.646h-37.703a18.9 18.9 0 0 0 -18.139 13.6l-10.766 36.854-10.299-36.664a18.9 18.9 0 0 0 -18.193 -13.789h-36.578a18.9 18.9 0 0 0 -18.625 15.707c-11.799-12.227-29.777-18.803-50.088-18.803-13.29 0-26.69 2.5803-39.877 7.3359a18.9 18.9 0 0 0 -11.893 -4.2402h-24.197a18.9 18.9 0 0 0 -18.898 18.898v20.41c-2.9804-6.583-6.7086-12.676-11.432-18.062-14.241-16.241-35.963-24.342-60.07-24.342-34.295 0-61.591 19.68-75.41 47.338-2.6405-7.2319-6.1683-14.028-10.838-20.207-12.903-17.075-34.608-27.131-59.812-27.131-15.172 0-28.591 3.3021-40.432 8.0488a18.9 18.9 0 0 0 -12.746 -4.9531h-21.664a18.9 18.9 0 0 0 -18.898 18.898v27.057c-4.0576-9.1088-9.5066-17.37-16.449-24.312-16.105-16.105-39.084-24.738-64.57-24.738-25.673 0-48.817 8.5025-65.045 24.684-16.228 16.181-24.758 39.277-24.758 64.836 0 25.218 8.5329 48.178 24.594 64.424 16.061 16.245 39.077 25.098 64.646 25.098 25.611 0 48.727-8.9341 64.908-25.254 7.0357-7.0959 12.565-15.529 16.674-24.82v101.23a18.9 18.9 0 0 0 18.898 18.898h34.607a18.9 18.9 0 0 0 18.898 -18.898v-52.555c5.0445.83085 10.1 1.3945 15.145 1.3945 24.939 0 47.062-9.9402 61.65-26.666 5.6648-6.4948 10.168-13.876 13.596-21.871 4.0632 9.1409 9.5368 17.399 16.598 24.301 16.541 16.168 40.113 24.236 66.598 24.236 20.173 0 39.594-3.4741 57.846-9.3516a18.9 18.9 0 0 0 8.6543 -5.8418 18.9 18.9 0 0 0 17.711 12.379h34.607a18.9 18.9 0 0 0 18.898 -18.898v-88.885c6.2562-1.693 11.04-2.5098 13.457-2.5098 4.031 0 3.2344.30073 3.5918.75391.3574.45317 1.707 3.1488 1.707 8.4844v82.156a18.9 18.9 0 0 0 18.898 18.898h34.607a18.9 18.9 0 0 0 18.898 -18.898v-77.938c0-.71628-.077-1.3982-.084-2.1113l31.283 86.477a18.9 18.9 0 0 0 17.772 12.471h32.92a18.9 18.9 0 0 0 17.949 -12.986l13.035-39.576 12.637 39.432a18.9 18.9 0 0 0 17.996 13.131h32.356a18.9 18.9 0 0 0 17.758 -12.438l25.305-69.549c1.0059 23.341 9.3448 44.484 24.391 59.703 16.06 16.246 39.077 25.098 64.646 25.098 25.611 0 48.727-8.9341 64.908-25.254 6.8742-6.9331 12.31-15.142 16.393-24.18v27.721a18.9 18.9 0 0 0 18.898 18.898h33.764a18.9 18.9 0 0 0 18.898 -18.898v-88.531c2.2771-1.0416 4.343-1.457 6.4239-1.457 4.2506 0 14.163 2.8476 17.371 4.9863a18.9 18.9 0 0 0 19.228 1.002v37.576c0 14.241 1.6623 30.285 11.418 44.564 9.7557 14.28 28.346 23.572 50.527 23.572 13.448 0 24.615-3.627 24.615-3.627a18.9 18.9 0 0 0 13.377 -17.271c14.364 13.213 34.097 20.898 56.014 20.898 11.907 0 23.874-2.486 35.522-7.1426a18.9 18.9 0 0 0 12.029 4.3281h21.664a18.9 18.9 0 0 0 18.898 -18.898v-28.146c4.548 9.6033 10.703 18.253 18.467 25.389 17.43 16.02 41.674 24.471 68.742 24.471 25.031 0 42.936-6.136 51.658-10.24a18.9 18.9 0 0 0 4.5684 -3.0391 18.9 18.9 0 0 0 16.887 10.465h33.764a18.9 18.9 0 0 0 18.898 -18.898v-88.531c2.277-1.0416 4.343-1.457 6.4238-1.457 4.2509 0 14.166 2.8485 17.373 4.9863a18.9 18.9 0 0 0 27.93 -8.5195 18.9 18.9 0 0 0 6.5371 6.1543c-5.7539 3.5524-11.12 7.9522-15.488 13.686-7.3588 9.6585-11.287 22.339-11.287 35.979 0 18.215 8.5465 34.723 21.447 44.838s29.209 14.578 46.127 14.578c11.717 0 23.058-1.9292 33.373-6.0371a18.9 18.9 0 0 0 10.52 3.2227h27.01a18.9 18.9 0 0 0 18.898 -18.898v-83.564c0-2.0954-.1162-4.1482-.2285-6.2012a18.9 18.9 0 0 0 3.4922 .33984h3.6093v89.426a18.9 18.9 0 0 0 18.898 18.898h34.607a18.9 18.9 0 0 0 18.898 -18.898v-89.426h31.184a18.9 18.9 0 0 0 6.0352 -1.0098 18.9 18.9 0 0 0 6.0156 1.0098h3.6094v45.814c0 13.514 1.2635 29.897 12.447 43.949 11.184 14.052 30.59 21.375 55.408 21.375 16.778 0 33.376-4.2866 45.295-8.8438a18.9 18.9 0 0 0 11.74 -21.566l-.01-.043c1.7694 2.1693 3.6501 4.2501 5.6621 6.2168 16.541 16.168 40.113 24.236 66.598 24.236 20.173 0 39.594-3.474 57.846-9.3516a18.9 18.9 0 0 0 8.6543 -5.8418 18.9 18.9 0 0 0 17.711 12.379h33.762a18.9 18.9 0 0 0 18.898 -18.898v-88.531c2.277-1.0416 4.343-1.457 6.4238-1.457 4.2507 0 14.166 2.8486 17.373 4.9863a18.9 18.9 0 0 0 28.949 -11.711l7.0332-32.357a18.9 18.9 0 0 0 -10.508 -21.154c-10.54-4.8937-21.84-7.1035-33-7.1035-11.225 0-22.074 2.8819-32.184 7.9004a18.9 18.9 0 0 0 -12.553 -4.8047h-24.195a18.9 18.9 0 0 0 -18.898 18.898v20.41c-2.9805-6.583-6.7086-12.676-11.432-18.062-14.241-16.241-35.963-24.342-60.07-24.342-31.559 0-57.18 16.673-71.84 40.883v-18.889a18.9 18.9 0 0 0 -18.898 -18.898h-27.809v-23.588a18.9 18.9 0 0 0 -18.898 -18.898h-34.607a18.9 18.9 0 0 0 -5.1387 .73047 18.9 18.9 0 0 0 -9.4433 -18.83c-17.678-9.9722-35.705-9.4727-43.611-9.4727zm2.5333 65.088c9.4176 0 11.986 1.1333 15.992 3.3184a18.9 18.9 0 0 0 4.2032 1.6524h-30.277v-.23438c0-1.9869-.044-4.7363 10.082-4.7363zm36.762 1.5254v3.4453h-3.6094a18.9 18.9 0 0 0 -6.0352 1.0098 18.9 18.9 0 0 0 -1.2929 -.39453 18.9 18.9 0 0 0 10.938 -4.0605zm-386.54 59.779v58.977a18.9 18.9 0 0 0 -25.482 -9.6524c-4.983 2.3729-11.672 5.4785-26.199 5.4785-9.855 0-15.743-2.8546-19.652-6.7285s-6.4668-9.405-6.4668-17.984c0-9.3579 2.4588-14.788 5.955-18.316 3.4963-3.5286 9.112-6.3945 20.164-6.3945 14.727 0 20.108 2.7756 24.713 5.2871a18.9 18.9 0 0 0 26.969 -10.666zm-1445.8 5.3789c6.4402 0 9.0885 1.7227 12.014 5.4668 2.9251 3.7441 5.3828 10.515 5.3828 19.244 0 9.302-2.4128 16.032-5.1133 19.518-2.7005 3.4857-5.0924 5.1953-12.283 5.1953-6.1582 0-8.6108-1.6291-11.506-5.416-2.895-3.7869-5.3301-10.674-5.3301-19.297 0-8.2607 2.4146-15.237 5.3789-19.148s5.4519-5.5625 11.457-5.5625zm864.41 0c6.4401 0 9.0885 1.7227 12.014 5.4668 2.9251 3.7441 5.3828 10.515 5.3828 19.244 0 9.302-2.4128 16.032-5.1133 19.518-2.7005 3.4857-5.0924 5.1953-12.283 5.1953-6.1583 0-8.6093-1.6293-11.504-5.416s-5.3301-10.674-5.3301-19.297c0-8.2613 2.4151-15.237 5.3789-19.148 2.9639-3.9115 5.4499-5.5625 11.455-5.5625zm1076.6 1.0527c-1.9514 7.612-3.0527 15.541-3.0527 23.658 0 7.3721.7618 14.5 2.1192 21.354a18.9 18.9 0 0 0 -11.492 -.45312c-4.2655 1.1848-13.752 3.25-19.982 3.25-2.3812 0-3.1331-.18143-3.8691-.31836-.011-.23819-.023-.13992-.023-.47852v-44.971h27.809a18.9 18.9 0 0 0 8.4921 -2.041zm-1774.2.0723c7.557 0 7.5418.78185 9.2754 3.4434 1.7336 2.6615 3.9004 10.203 3.9004 21.551 0 10.275-2.4556 16.096-4.6934 18.781-2.2377 2.6852-4.5485 4.2422-11.859 4.2422-3.7858 0-6.8166-.38097-9.5176-1.1777v-44.633c4.5651-1.2551 9.2874-2.207 12.895-2.207zm1057.2 0c2.3528 0 5.1857.63296 7.8301 1.3516v45.289c-2.8586.94068-6.0455 1.377-10.082 1.377-7.3109 0-9.6216-1.5569-11.859-4.2422-2.2377-2.6852-4.6933-8.5059-4.6933-18.781 0-11.012 2.2568-17.706 4.2988-20.371 2.042-2.6655 4.1641-4.623 14.506-4.623zm-831.24 51.029v10.707l-1.7285-6.625a18.9 18.9 0 0 0 -.93359 -2.6543 18.9 18.9 0 0 0 2.6621 -1.4277zm1701.9 0v10.707l-1.7285-6.625a18.9 18.9 0 0 0 -.9336 -2.6543 18.9 18.9 0 0 0 2.6621 -1.4277z" style="font-feature-settings:normal;font-variant-caps:normal;font-variant-ligatures:normal;font-variant-numeric:normal"/><path d="m518.91 51.665c-14.293 0-16.154 9.8263-16.154 13.772v4.7646h-5.9552v7.1463h5.9552v28.661h9.1565v-28.661h13.251v-7.1463h-13.251v-5.0622c0-3.4244 2.9778-6.2534 7.6678-6.2534 3.1266 0 4.9877.59547 6.6254 1.4888l1.7864-6.8487c-2.9033-1.6378-7.4444-1.8609-9.0821-1.8609zm-188.87.89349v41.167c0 6.551 1.9352 13.028 11.389 13.028 2.6055 0 5.0622-.74466 5.0622-.74466l-1.7865-6.8487s-.96796.22324-2.0846.22324c-2.9033 0-3.4241-2.9034-3.4241-7.5189v-39.306zm45.418 0v19.206c-2.68-1.6378-5.7321-2.3823-9.3054-2.3823-12.06 0-16.899 7.6676-16.899 18.536 0 10.869 6.3277 18.835 17.048 18.835 3.5733 0 7.1465-.96811 10.72-3.0525l1.8614 2.3079h5.732v-53.45zm158.85 6.4017v11.241h-5.9552v7.1463h5.9552v17.122c0 6.3277 1.5634 12.283 12.953 12.283 3.4244 0 7.6678-1.0425 10.199-2.0102l-1.34-6.3278c-1.34.37222-4.0944 1.0423-6.6255 1.0423-4.9132 0-6.0301-2.4567-6.0301-5.2111v-16.899h12.358v-7.1463h-12.358v-11.241zm-489.66 10.422c-11.464 0-18.76 7.2954-18.76 18.685 0 11.166 7.2959 18.686 18.611 18.686 11.315 0 18.76-7.5936 18.76-18.835 0-11.166-7.2954-18.536-18.611-18.536zm46.239 0c-4.8388 0-8.7847 1.4147-12.209 3.3502l-1.8609-2.5311h-5.7319v55.088h9.1565v-20.695c2.9777 1.4888 5.955 2.159 9.0072 2.159 10.72 0 17.048-7.9658 17.048-18.835 0-10.869-4.3918-18.536-15.409-18.536zm38.645 0c-10.645 0-17.568 8.3376-17.568 18.685 0 11.613 7.1463 18.686 19.206 18.686 4.7644 0 9.3801-.81903 13.772-2.2334l-1.787-6.8487c-3.2755 1.2655-6.8487 1.8609-10.794 1.8609-8.7843 0-10.794-3.7964-11.166-8.4119h24.566v-3.499c0-11.688-5.5086-18.239-16.228-18.239zm44.018 0c-4.0199 0-8.1886 1.0425-12.357 3.1269l-1.34-2.3079h-6.4022v35.807h9.1566v-27.172c3.6477-1.34 6.4763-2.0097 8.5607-2.0097 4.4666 0 6.4022 3.1268 6.4022 7.4445v21.737h9.1565v-20.621c0-9.7521-2.9778-16.005-13.176-16.005zm99.807 0c-11.464 0-18.76 7.2954-18.76 18.685 0 11.166 7.2954 18.686 18.611 18.686 11.315 0 18.76-7.5936 18.76-18.835 0-11.166-7.2954-18.536-18.611-18.536zm44.601 0c-3.7966 0-7.3698 1.5636-10.72 4.6157l-1.1167-3.7967h-6.4022v35.807h8.9333v-26.055c2.0844-1.7866 4.3176-2.7544 6.6998-2.7544 2.3077 0 5.3596.81906 7.3696 2.159l1.8614-8.5612c-2.0844-.96777-4.3177-1.4144-6.6254-1.4144zm94.43 0c-12.283 0-20.1 7.2209-20.1 18.685 0 11.166 8.1141 18.686 20.397 18.686 5.6577 0 10.273-1.6379 11.539-2.2334l-1.787-6.8487c-1.5633.74444-4.3917 1.9353-9.0816 1.9353-7.3699 0-11.911-4.7645-11.911-11.539 0-6.9232 4.0944-11.538 11.911-11.538 4.6899 0 7.295 1.1164 8.9328 2.0097l1.787-6.8487c-1.7866-1.1167-5.0622-2.3079-11.688-2.3079zm37.881 0c-3.7966 0-7.3698 1.5636-10.72 4.6157l-1.1167-3.7967h-6.4022v35.807h8.9333v-26.055c2.0844-1.7866 4.3177-2.7544 6.6998-2.7544 2.3078 0 5.3601.81906 7.3701 2.159l1.8609-8.5612c-2.0844-.96777-4.3177-1.4144-6.6254-1.4144zm24.213 0c-4.6899 0-10.646 1.1168-12.432 2.3079l1.787 6.8487c2.3077-1.2655 6.4021-2.3823 9.2309-2.3823 6.7744 0 8.7096 1.5633 8.7096 7.891-11.018 0-22.482 1.0422-22.482 11.985 0 6.8488 5.7322 10.72 12.879 10.72 4.1688 0 7.6677-1.0425 10.422-3.2014l1.1912 2.4567h7.1463v-22.11c0-10.348-5.2852-14.516-16.452-14.516zm105.34 0c-10.645 0-17.568 8.3376-17.568 18.685 0 11.613 7.1463 18.686 19.206 18.686 4.7644 0 9.3801-.81903 13.772-2.2334l-1.787-6.8487c-3.2755 1.2655-6.8487 1.8609-10.794 1.8609-8.7843 0-10.794-3.7964-11.166-8.4119h24.566v-3.499c0-11.688-5.5087-18.239-16.228-18.239zm42.157 0c-3.7966 0-7.3698 1.5636-10.72 4.6157l-1.1168-3.7967h-6.4017v35.807h8.9328v-26.055c2.0844-1.7866 4.3177-2.7544 6.6998-2.7544 2.3077 0 5.3601.81906 7.3701 2.159l1.8609-8.5612c-2.0844-.96777-4.3177-1.4144-6.6254-1.4144zm-430.25.81907 12.953 35.807h8.71l8.2631-25.087 8.0398 25.087h8.5607l13.028-35.807h-9.603l-7.4445 26.502-7.6672-26.502h-9.9756l-7.7422 26.502-7.444-26.502zm-62.049 6.2534c4.4666 0 6.9231 2.6053 6.9231 8.3375h-15.335c.44665-4.3177 2.3075-8.3375 8.4119-8.3375zm450.29 0c4.4666 0 6.9231 2.6053 6.9231 8.3375h-15.335c.44664-4.3177 2.3075-8.3375 8.4119-8.3375zm-535.48.07441c6.1788 0 9.603 5.1362 9.603 11.538 0 6.551-3.2009 11.539-9.603 11.539-6.1043 0-9.4547-5.2112-9.4547-11.539 0-6.1788 3.3504-11.538 9.4547-11.538zm228.71 0c6.1788 0 9.603 5.1362 9.603 11.538 0 6.551-3.2009 11.539-9.603 11.539-6.1044 0-9.4542-5.2112-9.4542-11.539 0-6.1788 3.3498-11.538 9.4542-11.538zm-184.56.29766c6.4021 0 8.4863 4.6156 8.4863 11.613 0 6.9977-3.2754 11.092-9.3798 11.092-2.9033 0-5.3596-.74457-7.5184-2.3079v-18.388c1.7866-.74444 5.2108-2.0097 8.4119-2.0097zm279.73 0c2.68 0 5.5831.89304 7.072 2.0097v18.239c-2.2333 1.7122-4.7645 2.4567-7.6678 2.4567-6.1043 0-9.3798-4.0942-9.3798-11.092 0-6.9977 2.4569-11.613 9.9756-11.613zm113.39 13.549v7.1468c-1.9355 1.1911-4.0941 2.0841-7.3696 2.0841-3.2755 0-5.9557-1.2654-5.9557-4.2431 0-4.9877 7.8165-4.9878 13.325-4.9878z" fill="#fff" style="font-feature-settings:normal;font-variant-caps:normal;font-variant-ligatures:normal;font-variant-numeric:normal"/></g></svg>
