<svg width="61.803mm" height="100mm" version="1.1" viewBox="0 0 61.803459 100.0001" xmlns="http://www.w3.org/2000/svg"><g transform="translate(-101.8 -86.74)"><path d="m110.08 86.74c-4.5901 0-8.2853 3.6952-8.2853 8.2853v83.43c0 4.5901 3.6952 8.2853 8.2853 8.2853h45.233c4.5901 0 8.2853-3.6952 8.2853-8.2853v-83.43c0-4.5901-3.6952-8.2853-8.2853-8.2853zm-2.1048 9.9999h49.442v75h-49.442zm18.471 78.75h12.5c2.0775 0 3.7502 1.6727 3.7502 3.7502s-1.6727 3.7502-3.7502 3.7502h-12.5c-2.0775 0-3.7502-1.6727-3.7502-3.7502s1.6727-3.7502 3.7502-3.7502z" style="paint-order:normal"/></g></svg>
