<?xml version="1.0" encoding="UTF-8"?>
<svg width="150.73mm" height="150.73mm" version="1.1" viewBox="0 0 150.73051 150.73051" xmlns="http://www.w3.org/2000/svg"><g transform="translate(6.4507 -15.582)"><path d="m10.231 31.127a55 55 0 0 0 -16.681 39.455 55 55 0 0 0 55 55 55 55 0 0 0 55 -55 55 55 0 0 0 -55 -55 55 55 0 0 0 -38.319 15.545zm10.034 11.171a40 40 45 0 1 56.568 -3.64e-4 40 40 45 0 1 0 56.569 40 40 45 0 1 -56.568 -3.65e-4 40 40 45 0 1 0 -56.568z" style="paint-order:normal"/><path d="m80.64 113.28 10.607-10.607 53.033 53.033-10.607 10.607z" stroke-width="0" style="paint-order:normal"/></g></svg>
