<?xml version="1.0" encoding="UTF-8"?>
<svg width="106.94mm" height="105.86mm" version="1.1" viewBox="0 0 106.94364 105.86" xmlns="http://www.w3.org/2000/svg"><g transform="translate(-38.827 -120.9)"><g style="font-feature-settings:normal;font-variant-caps:normal;font-variant-ligatures:normal;font-variant-numeric:normal" aria-label="S"><path d="m88.393 226.76c21.586 0 37.702-11.532 37.702-27.796 0-33.118-56.478-27.648-56.478-50.269 0-10.645 9.0188-17.003 23.508-17.003 8.2796 0 19.22 2.6613 24.691 6.6532l4.7312-10.202c-7.9838-4.5833-17.446-7.2446-29.718-7.2446-19.073 0-35.484 8.1317-35.484 27.796 0 33.118 56.478 27.648 56.478 50.269 0 8.5752-9.6102 17.003-25.134 17.003-11.68 0-23.212-4.4355-28.978-8.1317l-4.7312 10.202c7.9839 4.4355 17.742 8.7231 33.414 8.7231z" stroke-width="3.6962" style="font-feature-settings:normal;font-variant-caps:normal;font-variant-ligatures:normal;font-variant-numeric:normal"/></g><path d="m40.821 168.19h102.96c1.1045 0 1.9936 0.88916 1.9936 1.9936v7.3078c0 1.1045-0.88915 1.9936-1.9936 1.9936h-102.96c-1.1045 0-1.9936-0.88916-1.9936-1.9936v-7.3078c0-1.1045 0.88915-1.9936 1.9936-1.9936z" stroke-width="0"/></g></svg>
