<?xml version="1.0" encoding="UTF-8"?>
<svg width="65.253mm" height="103.14mm" version="1.1" viewBox="0 0 65.253082 103.13543" xmlns="http://www.w3.org/2000/svg"><g transform="translate(-60.729 -77.066)"><g aria-label="· AB · XY · MN"><path d="m60.729 87.281h3.2907v3.9613h-3.2907z" dominant-baseline="auto" stroke-width=".26458" style="font-variant-alternates:normal;font-variant-caps:normal;font-variant-east-asian:normal;font-variant-ligatures:normal;font-variant-numeric:normal;font-variant-position:normal;shape-padding:0;text-decoration-color:#000000;text-decoration-line:none;text-decoration-style:solid;text-indent:0;text-orientation:mixed;text-transform:none;white-space:normal"/><path d="m88.567 80.169-4.2733 11.588h8.5621zm-1.7779-3.1036h3.5715l8.874 23.285h-3.2751l-2.121-5.9732h-10.496l-2.121 5.9732h-3.3219z" stroke-width=".79851"/><path d="m105.77 89.231v8.5309h5.0531q2.5421 0 3.7586-1.0449 1.2321-1.0605 1.2321-3.2283 0-2.1834-1.2321-3.2127-1.2165-1.0449-3.7586-1.0449zm0-9.5759v7.0181h4.6632q2.3082 0 3.4311-0.85777 1.1385-0.87337 1.1385-2.6513 0-1.7623-1.1385-2.6357-1.1229-0.87337-3.4311-0.87337zm-3.1504-2.5889h8.0475q3.6026 0 5.5521 1.4972 1.9495 1.4972 1.9495 4.2577 0 2.1366-0.99813 3.3999-0.99814 1.2633-2.932 1.5752 2.3238 0.49907 3.6026 2.0898 1.2945 1.5752 1.2945 3.9458 0 3.1192-2.121 4.8191-2.121 1.7-6.0356 1.7h-8.3594z" stroke-width=".79851"/><path d="m60.729 127.21h3.2907v3.9614h-3.2907z" dominant-baseline="auto" stroke-width=".26458" style="font-variant-alternates:normal;font-variant-caps:normal;font-variant-east-asian:normal;font-variant-ligatures:normal;font-variant-numeric:normal;font-variant-position:normal;shape-padding:0;text-decoration-color:#000000;text-decoration-line:none;text-decoration-style:solid;text-indent:0;text-orientation:mixed;text-transform:none;white-space:normal"/><path d="m79.662 116.99h3.3843l5.7861 8.6557 5.8173-8.6557h3.3843l-7.486 11.182 7.9851 12.102h-3.3843l-6.5503-9.9034-6.597 9.9034h-3.3999l8.3126-12.43z" stroke-width=".79851"/><path d="m99.484 116.99h3.3843l6.4567 9.5759 6.4099-9.5759h3.3843l-8.2346 12.196v11.089h-3.166v-11.089z" stroke-width=".79851"/><path d="m60.729 167.13h3.2907v3.9614h-3.2907z" dominant-baseline="auto" stroke-width=".26458" style="font-variant-alternates:normal;font-variant-caps:normal;font-variant-east-asian:normal;font-variant-ligatures:normal;font-variant-numeric:normal;font-variant-position:normal;shape-padding:0;text-decoration-color:#000000;text-decoration-line:none;text-decoration-style:solid;text-indent:0;text-orientation:mixed;text-transform:none;white-space:normal"/><path d="m80.785 156.92h4.6944l5.942 15.845 5.9732-15.845h4.6944v23.285h-3.0724v-20.446l-6.0044 15.97h-3.166l-6.0044-15.97v20.446h-3.0568z" stroke-width=".79851"/><path d="m108.36 156.92h4.2421l10.324 19.479v-19.479h3.0568v23.285h-4.2421l-10.324-19.479v19.479h-3.0568z" stroke-width=".79851"/></g></g></svg>
