<?xml version="1.0" encoding="UTF-8" standalone="no"?>
<!-- Created with Inkscape (http://www.inkscape.org/) -->

<svg
   xmlns:dc="http://purl.org/dc/elements/1.1/"
   xmlns:cc="http://creativecommons.org/ns#"
   xmlns:rdf="http://www.w3.org/1999/02/22-rdf-syntax-ns#"
   xmlns:svg="http://www.w3.org/2000/svg"
   xmlns="http://www.w3.org/2000/svg"
   xmlns:sodipodi="http://sodipodi.sourceforge.net/DTD/sodipodi-0.dtd"
   xmlns:inkscape="http://www.inkscape.org/namespaces/inkscape"
   width="387.66263mm"
   height="246.51125mm"
   viewBox="0 0 387.66263 246.51125"
   version="1.1"
   id="svg95"
   inkscape:version="0.92.2 (5c3e80d, 2017-08-06)"
   sodipodi:docname="cloud.svg">
  <defs
     id="defs89" />
  <sodipodi:namedview
     id="base"
     pagecolor="#ffffff"
     bordercolor="#666666"
     borderopacity="1.0"
     inkscape:pageopacity="0.0"
     inkscape:pageshadow="2"
     inkscape:zoom="0.24748737"
     inkscape:cx="-162.12439"
     inkscape:cy="145.70065"
     inkscape:document-units="mm"
     inkscape:current-layer="layer1"
     showgrid="false"
     inkscape:window-width="1366"
     inkscape:window-height="731"
     inkscape:window-x="0"
     inkscape:window-y="0"
     inkscape:window-maximized="1" />
  <metadata
     id="metadata92">
    <rdf:RDF>
      <cc:Work
         rdf:about="">
        <dc:format>image/svg+xml</dc:format>
        <dc:type
           rdf:resource="http://purl.org/dc/dcmitype/StillImage" />
        <dc:title></dc:title>
      </cc:Work>
    </rdf:RDF>
  </metadata>
  <g
     inkscape:label="Layer 1"
     inkscape:groupmode="layer"
     id="layer1"
     transform="translate(20.004871,62.073547)">
    <path
       style="opacity:1;fill:#000000;fill-opacity:1;fill-rule:nonzero;stroke:none;stroke-width:20.90367508;stroke-linecap:round;stroke-linejoin:round;stroke-miterlimit:4;stroke-dasharray:none;stroke-opacity:1;paint-order:normal"
       d="M 153.70339,-62.073547 A 111.66875,111.66875 0 0 0 44.706949,25.663732 c -36.87677,7.188827 -64.71185,39.662492 -64.71182,78.642748 -4e-5,44.25516 35.87587,80.13106 80.13103,80.13102 H 299.82108 c 0.59526,0 1.13673,-0.007 1.64333,-0.0202 0.0565,-0.001 0.11303,-0.003 0.16949,-0.004 0.31483,-0.009 0.61598,-0.0199 0.89606,-0.0341 36.20871,-1.42276 65.12788,-31.22092 65.1278,-67.77838 8e-5,-31.362346 -21.28464,-57.749056 -50.19537,-65.514868 a 80.130951,80.130951 0 0 0 -73.49112,-66.99746 111.66875,111.66875 0 0 0 -90.26788,-46.162039 z"
       id="path99-7"
       inkscape:connector-curvature="0" />
  </g>
</svg>
