<?xml version="1.0" encoding="UTF-8" standalone="no"?>
<!-- Created with Inkscape (http://www.inkscape.org/) -->

<svg
   xmlns:dc="http://purl.org/dc/elements/1.1/"
   xmlns:cc="http://creativecommons.org/ns#"
   xmlns:rdf="http://www.w3.org/1999/02/22-rdf-syntax-ns#"
   xmlns:svg="http://www.w3.org/2000/svg"
   xmlns="http://www.w3.org/2000/svg"
   xmlns:sodipodi="http://sodipodi.sourceforge.net/DTD/sodipodi-0.dtd"
   xmlns:inkscape="http://www.inkscape.org/namespaces/inkscape"
   width="242.17902mm"
   height="209.69211mm"
   viewBox="0 0 242.17902 209.69211"
   version="1.1"
   id="svg8"
   inkscape:version="0.92.2 (5c3e80d, 2017-08-06)"
   sodipodi:docname="color.svg">
  <defs
     id="defs2" />
  <sodipodi:namedview
     id="base"
     pagecolor="#ffffff"
     bordercolor="#666666"
     borderopacity="1.0"
     inkscape:pageopacity="0.0"
     inkscape:pageshadow="2"
     inkscape:zoom="0.35"
     inkscape:cx="374.03609"
     inkscape:cy="408.23811"
     inkscape:document-units="mm"
     inkscape:current-layer="layer1"
     showgrid="true"
     inkscape:window-width="1366"
     inkscape:window-height="731"
     inkscape:window-x="0"
     inkscape:window-y="0"
     inkscape:window-maximized="1" />
  <metadata
     id="metadata5">
    <rdf:RDF>
      <cc:Work
         rdf:about="">
        <dc:format>image/svg+xml</dc:format>
        <dc:type
           rdf:resource="http://purl.org/dc/dcmitype/StillImage" />
        <dc:title></dc:title>
      </cc:Work>
    </rdf:RDF>
  </metadata>
  <g
     inkscape:label="Layer 1"
     inkscape:groupmode="layer"
     id="layer1"
     transform="translate(-0.15399577,-47.154226)">
    <path
       style="opacity:1;fill:#000000;fill-opacity:1;fill-rule:nonzero;stroke:none;stroke-width:23.8390007;stroke-linecap:round;stroke-linejoin:round;stroke-miterlimit:4;stroke-dasharray:none;paint-order:normal"
       d="m 458.24414,178.2207 a 251.88868,251.88868 0 0 0 -251.88867,251.88868 251.88868,251.88868 0 0 0 3.41797,40.78124 251.88868,251.88868 0 0 1 42.69726,-3.91015 251.88868,251.88868 0 0 1 205.67188,107.00586 251.88868,251.88868 0 0 1 205.87304,-107.00586 251.88868,251.88868 0 0 1 42.53711,3.63281 251.88868,251.88868 0 0 0 3.58008,-40.5039 A 251.88868,251.88868 0 0 0 458.24414,178.2207 Z m 248.30859,292.39258 a 251.88868,251.88868 0 0 1 -205.875,207.76563 251.88868,251.88868 0 0 1 3.68165,40.49023 A 251.88868,251.88868 0 0 1 458.34375,863.75195 251.88868,251.88868 0 0 0 664.01562,970.75781 251.88868,251.88868 0 0 0 915.9043,718.86914 251.88868,251.88868 0 0 0 706.55273,470.61328 Z M 458.34375,863.75195 A 251.88868,251.88868 0 0 1 412.12695,718.86914 251.88868,251.88868 0 0 1 415.7832,678.12305 251.88868,251.88868 0 0 1 209.77344,470.89062 251.88868,251.88868 0 0 0 0.58203125,718.86914 251.88868,251.88868 0 0 0 252.4707,970.75781 251.88868,251.88868 0 0 0 458.34375,863.75195 Z M 415.7832,678.12305 a 251.88868,251.88868 0 0 0 42.46094,3.875 251.88868,251.88868 0 0 0 42.43359,-3.61914 251.88868,251.88868 0 0 0 -42.53515,-104.39258 251.88868,251.88868 0 0 0 -42.35938,104.13672 z"
       id="path3759-6"
       inkscape:connector-curvature="0"
       transform="scale(0.26458333)" />
    <path
       style="opacity:1;fill:#000000;fill-opacity:1;fill-rule:nonzero;stroke:none;stroke-width:23.8390007;stroke-linecap:round;stroke-linejoin:round;stroke-miterlimit:4;stroke-dasharray:none;paint-order:normal"
       d="m 458.14258,573.98633 a 251.88868,251.88868 0 0 0 -42.33789,104.13867 251.88868,251.88868 0 0 0 42.43945,3.87305 251.88868,251.88868 0 0 0 42.45117,-3.6211 251.88868,251.88868 0 0 0 -42.55273,-104.39062 z"
       id="path4655"
       inkscape:connector-curvature="0"
       transform="scale(0.26458333)" />
  </g>
</svg>
