<?xml version="1.0" encoding="UTF-8" standalone="no"?>
<!-- Created with Inkscape (http://www.inkscape.org/) -->

<svg
   xmlns:dc="http://purl.org/dc/elements/1.1/"
   xmlns:cc="http://creativecommons.org/ns#"
   xmlns:rdf="http://www.w3.org/1999/02/22-rdf-syntax-ns#"
   xmlns:svg="http://www.w3.org/2000/svg"
   xmlns="http://www.w3.org/2000/svg"
   xmlns:sodipodi="http://sodipodi.sourceforge.net/DTD/sodipodi-0.dtd"
   xmlns:inkscape="http://www.inkscape.org/namespaces/inkscape"
   width="100.20467mm"
   height="100.26049mm"
   viewBox="0 0 100.20467 100.26049"
   version="1.1"
   id="svg1128"
   inkscape:version="0.92+devel unknown"
   sodipodi:docname="emoji.svg">
  <defs
     id="defs1122" />
  <sodipodi:namedview
     id="base"
     pagecolor="#ffffff"
     bordercolor="#666666"
     borderopacity="1.0"
     inkscape:pageopacity="0.0"
     inkscape:pageshadow="2"
     inkscape:zoom="0.35"
     inkscape:cx="-616.23536"
     inkscape:cy="163.64906"
     inkscape:document-units="mm"
     inkscape:current-layer="layer1"
     inkscape:document-rotation="0"
     showgrid="false"
     inkscape:window-width="1366"
     inkscape:window-height="731"
     inkscape:window-x="0"
     inkscape:window-y="0"
     inkscape:window-maximized="1" />
  <metadata
     id="metadata1125">
    <rdf:RDF>
      <cc:Work
         rdf:about="">
        <dc:format>image/svg+xml</dc:format>
        <dc:type
           rdf:resource="http://purl.org/dc/dcmitype/StillImage" />
        <dc:title />
      </cc:Work>
    </rdf:RDF>
  </metadata>
  <g
     inkscape:label="Layer 1"
     inkscape:groupmode="layer"
     id="layer1"
     transform="translate(-80.646797,-91.871661)">
    <g
       aria-label="☺"
       style="font-style:normal;font-variant:normal;font-weight:normal;font-stretch:normal;font-size:114.32821655px;font-family:Cantarell;-inkscape-font-specification:'Cantarell, Normal';font-variant-ligatures:normal;font-variant-caps:normal;font-variant-numeric:normal;font-feature-settings:normal;text-align:start;writing-mode:lr-tb;text-anchor:start;fill:#000000;fill-opacity:1;stroke:none;stroke-width:2.85819626"
       id="text1132">
      <path
         d="m 106.99588,126.76186 q 0,-3.29363 2.23297,-5.5266 2.2888,-2.2888 5.58243,-2.2888 3.23781,0 5.52661,2.2888 2.2888,2.23297 2.2888,5.5266 0,3.29364 -2.2888,5.58244 -2.2888,2.28879 -5.52661,2.28879 -3.29363,0 -5.58243,-2.28879 -2.23297,-2.34463 -2.23297,-5.58244 z m 32.26646,0 q 0,-3.29363 2.2888,-5.5266 2.28879,-2.2888 5.5266,-2.2888 3.23781,0 5.52661,2.2888 2.34462,2.23297 2.34462,5.5266 0,3.23781 -2.34462,5.58244 -2.2888,2.28879 -5.52661,2.28879 -3.29363,0 -5.58243,-2.28879 -2.23297,-2.34463 -2.23297,-5.58244 z m -58.615543,15.35169 q 0,-20.82247 14.681797,-35.50427 14.681796,-14.737619 35.448446,-14.737619 20.82247,0 35.44845,14.737619 14.62597,14.6818 14.62597,35.50427 0,20.76665 -14.62597,35.39262 -14.62598,14.62598 -35.44845,14.62598 -20.76665,0 -35.448446,-14.62598 Q 80.646797,162.8802 80.646797,142.11355 Z m 7.536284,0 q 0,17.64049 12.448829,30.08931 12.50464,12.393 30.14513,12.393 17.69631,0 30.08931,-12.393 12.44883,-12.44882 12.44883,-30.08931 0,-17.69631 -12.44883,-30.20096 -12.393,-12.504645 -30.08931,-12.504645 -17.64049,0 -30.14513,12.504645 -12.448829,12.50465 -12.448829,30.20096 z m 13.174539,15.68664 6.4198,-3.96353 q 1.56308,2.40045 3.79605,4.5776 7.92706,7.92705 19.20357,7.92705 11.27651,0 19.20357,-7.92705 2.17715,-2.17715 3.79605,-4.63342 l 6.4198,4.01935 q -2.0655,3.12616 -4.85672,5.9732 -10.16002,10.1042 -24.5627,10.1042 -14.40268,0 -24.5627,-10.1042 -2.84704,-2.84704 -4.85672,-5.9732 z"
         style="font-style:normal;font-variant:normal;font-weight:normal;font-stretch:normal;font-size:114.32821655px;line-height:normal;font-family:Cantarell;-inkscape-font-specification:'Cantarell, Normal';font-variant-ligatures:normal;font-variant-position:normal;font-variant-caps:normal;font-variant-numeric:normal;font-variant-alternates:normal;font-variant-east-asian:normal;font-feature-settings:normal;text-indent:0;text-align:start;text-decoration:none;text-decoration-line:none;text-decoration-style:solid;text-decoration-color:#000000;letter-spacing:normal;word-spacing:normal;text-transform:none;writing-mode:lr-tb;direction:ltr;text-orientation:mixed;dominant-baseline:auto;baseline-shift:baseline;text-anchor:start;white-space:normal;shape-padding:0;opacity:1;vector-effect:none;fill:#000000;fill-opacity:1;stroke-width:0.26458332;stroke-linecap:butt;stroke-linejoin:miter;stroke-miterlimit:4;stroke-dasharray:none;stroke-dashoffset:0;stroke-opacity:1"
         id="path9" />
    </g>
  </g>
</svg>
