<?xml version="1.0" encoding="UTF-8" standalone="no"?>
<!-- Created with Inkscape (http://www.inkscape.org/) -->

<svg
   xmlns:dc="http://purl.org/dc/elements/1.1/"
   xmlns:cc="http://creativecommons.org/ns#"
   xmlns:rdf="http://www.w3.org/1999/02/22-rdf-syntax-ns#"
   xmlns:svg="http://www.w3.org/2000/svg"
   xmlns="http://www.w3.org/2000/svg"
   xmlns:sodipodi="http://sodipodi.sourceforge.net/DTD/sodipodi-0.dtd"
   xmlns:inkscape="http://www.inkscape.org/namespaces/inkscape"
   width="112.9971mm"
   height="156.52791mm"
   viewBox="0 0 112.9971 156.52791"
   version="1.1"
   id="svg122"
   inkscape:version="0.92+devel unknown"
   sodipodi:docname="nlist.svg">
  <defs
     id="defs116" />
  <sodipodi:namedview
     id="base"
     pagecolor="#ffffff"
     bordercolor="#666666"
     borderopacity="1.0"
     inkscape:pageopacity="0.0"
     inkscape:pageshadow="2"
     inkscape:zoom="0.35"
     inkscape:cx="-378.25321"
     inkscape:cy="202.50506"
     inkscape:document-units="mm"
     inkscape:current-layer="layer1"
     inkscape:document-rotation="0"
     showgrid="false"
     inkscape:window-width="1366"
     inkscape:window-height="731"
     inkscape:window-x="0"
     inkscape:window-y="0"
     inkscape:window-maximized="1" />
  <metadata
     id="metadata119">
    <rdf:RDF>
      <cc:Work
         rdf:about="">
        <dc:format>image/svg+xml</dc:format>
        <dc:type
           rdf:resource="http://purl.org/dc/dcmitype/StillImage" />
        <dc:title />
      </cc:Work>
    </rdf:RDF>
  </metadata>
  <g
     inkscape:label="Layer 1"
     inkscape:groupmode="layer"
     id="layer1"
     transform="translate(-17.680685,-45.884888)">
    <g
       aria-label="1. AB
2. CD
3. EF"
       style="font-style:normal;font-variant:normal;font-weight:normal;font-stretch:normal;font-size:48.88441849px;font-family:Cantarell;-inkscape-font-specification:'Cantarell, Normal';font-variant-ligatures:normal;font-variant-caps:normal;font-variant-numeric:normal;font-feature-settings:normal;text-align:start;writing-mode:lr-tb;text-anchor:start;fill:#000000;fill-opacity:1;stroke:none;stroke-width:1.22212303"
       id="text126">
      <path
         d="m 27.457569,45.884888 -7.234894,3.079719 1.319879,2.737527 6.501628,-2.493105 v 27.277505 h -9.043618 v 3.226372 H 40.265286 V 76.486534 H 32.101588 V 45.884888 Z"
         style="font-style:normal;font-variant:normal;font-weight:normal;font-stretch:normal;font-size:48.88441849px;font-family:Cantarell;-inkscape-font-specification:'Cantarell, Normal';font-variant-ligatures:normal;font-variant-caps:normal;font-variant-numeric:normal;font-feature-settings:normal;text-align:start;writing-mode:lr-tb;text-anchor:start;stroke-width:1.22212303"
         id="path11" />
      <path
         d="m 48.488561,80.20175 c 1.710955,0 2.933065,-1.270995 2.933065,-2.933065 0,-1.66207 -1.22211,-2.933065 -2.933065,-2.933065 -1.710955,0 -2.933065,1.270995 -2.933065,2.933065 0,1.66207 1.22211,2.933065 2.933065,2.933065 z"
         style="font-style:normal;font-variant:normal;font-weight:normal;font-stretch:normal;font-size:48.88441849px;font-family:Cantarell;-inkscape-font-specification:'Cantarell, Normal';font-variant-ligatures:normal;font-variant-caps:normal;font-variant-numeric:normal;font-feature-settings:normal;text-align:start;writing-mode:lr-tb;text-anchor:start;stroke-width:1.22212303"
         id="path13" />
      <path
         d="M 96.807754,79.712906 85.271031,45.884888 H 80.187052 L 68.699213,79.712906 h 4.20406 l 3.275256,-9.923537 h 12.807718 l 3.275256,9.923537 z M 82.582388,50.088948 87.861905,66.220806 H 77.302871 Z"
         style="font-style:normal;font-variant:normal;font-weight:normal;font-stretch:normal;font-size:48.88441849px;font-family:Cantarell;-inkscape-font-specification:'Cantarell, Normal';font-variant-ligatures:normal;font-variant-caps:normal;font-variant-numeric:normal;font-feature-settings:normal;text-align:start;writing-mode:lr-tb;text-anchor:start;stroke-width:1.22212303"
         id="path15" />
      <path
         d="m 118.84011,54.53743 c 0,3.861869 -3.17749,5.377286 -6.84382,5.377286 h -6.45274 V 49.453451 h 6.94159 c 4.25294,0 6.35497,1.613186 6.35497,5.083979 z m 2.68864,15.251939 c 0,4.790673 -3.7641,6.354974 -9.04361,6.354974 h -6.94159 V 63.483279 h 6.94159 c 4.88844,0 9.04361,1.368764 9.04361,6.30609 z m -3.03083,-8.701427 c 2.73753,-1.319879 4.25294,-3.519678 4.25294,-7.08824 0,-5.426171 -4.20406,-8.114814 -8.84808,-8.114814 h -12.41664 v 33.828018 h 12.90549 c 6.30609,0 11.14565,-2.737528 11.14565,-9.239155 0,-7.18601 -4.49737,-8.896964 -7.03936,-9.385809 z"
         style="font-style:normal;font-variant:normal;font-weight:normal;font-stretch:normal;font-size:48.88441849px;font-family:Cantarell;-inkscape-font-specification:'Cantarell, Normal';font-variant-ligatures:normal;font-variant-caps:normal;font-variant-numeric:normal;font-feature-settings:normal;text-align:start;writing-mode:lr-tb;text-anchor:start;stroke-width:1.22212303"
         id="path17" />
      <path
         d="m 18.413951,109.63017 1.613186,2.73753 c 2.053146,-1.36877 4.301829,-2.8353 7.821507,-2.8353 4.106291,0 6.990472,2.1998 6.990472,6.55051 0,4.83956 -3.812985,9.14139 -15.643014,22.43795 v 2.29757 h 20.042611 v -3.22637 H 24.866694 c 11.683376,-13.29656 14.029828,-16.81624 14.029828,-21.50915 0,-5.91501 -4.448482,-9.77688 -10.412381,-9.77688 -4.790673,0 -6.892703,1.31988 -10.07019,3.32414 z"
         style="font-style:normal;font-variant:normal;font-weight:normal;font-stretch:normal;font-size:48.88441849px;font-family:Cantarell;-inkscape-font-specification:'Cantarell, Normal';font-variant-ligatures:normal;font-variant-caps:normal;font-variant-numeric:normal;font-feature-settings:normal;text-align:start;writing-mode:lr-tb;text-anchor:start;stroke-width:1.22212303"
         id="path19" />
      <path
         d="m 48.488561,141.30727 c 1.710955,0 2.933065,-1.27099 2.933065,-2.93306 0,-1.66207 -1.22211,-2.93307 -2.933065,-2.93307 -1.710955,0 -2.933065,1.271 -2.933065,2.93307 0,1.66207 1.22211,2.93306 2.933065,2.93306 z"
         style="font-style:normal;font-variant:normal;font-weight:normal;font-stretch:normal;font-size:48.88441849px;font-family:Cantarell;-inkscape-font-specification:'Cantarell, Normal';font-variant-ligatures:normal;font-variant-caps:normal;font-variant-numeric:normal;font-feature-settings:normal;text-align:start;writing-mode:lr-tb;text-anchor:start;stroke-width:1.22212303"
         id="path21" />
      <path
         d="m 96.954407,138.91194 -1.564301,-3.37303 c -2.053146,1.31988 -4.986211,2.1998 -8.065929,2.1998 -7.821507,0 -12.367758,-5.9639 -12.367758,-13.83429 0,-7.87039 4.546251,-14.02983 12.367758,-14.02983 3.079718,0 6.257205,0.97769 8.065929,2.1998 l 1.564301,-3.37302 c -2.150914,-1.31988 -5.621708,-2.39534 -9.63023,-2.39534 -9.776884,0 -16.425165,7.82151 -16.425165,17.59839 0,9.77688 6.648281,17.40285 16.425165,17.40285 3.275256,0 6.794934,-0.78215 9.63023,-2.39533 z"
         style="font-style:normal;font-variant:normal;font-weight:normal;font-stretch:normal;font-size:48.88441849px;font-family:Cantarell;-inkscape-font-specification:'Cantarell, Normal';font-variant-ligatures:normal;font-variant-caps:normal;font-variant-numeric:normal;font-feature-settings:normal;text-align:start;writing-mode:lr-tb;text-anchor:start;stroke-width:1.22212303"
         id="path23" />
      <path
         d="m 107.26215,137.24987 v -26.6909 h 7.57708 c 8.1637,0 11.78115,6.55052 11.78115,13.34545 0,6.84382 -3.42191,13.34545 -11.78115,13.34545 z m 7.87039,3.56856 c 10.11907,0 15.54524,-7.13713 15.54524,-16.91401 0,-9.67911 -5.47505,-16.91401 -15.54524,-16.91401 h -11.9278 v 33.82802 z"
         style="font-style:normal;font-variant:normal;font-weight:normal;font-stretch:normal;font-size:48.88441849px;font-family:Cantarell;-inkscape-font-specification:'Cantarell, Normal';font-variant-ligatures:normal;font-variant-caps:normal;font-variant-numeric:normal;font-feature-settings:normal;text-align:start;writing-mode:lr-tb;text-anchor:start;stroke-width:1.22212303"
         id="path25" />
      <path
         d="m 27.701991,202.4128 c 6.354974,0 11.781144,-2.8353 11.781144,-9.4347 0,-5.6217 -2.88418,-7.8215 -6.941587,-8.79919 2.639759,-1.41765 5.181748,-3.81299 5.181748,-8.01705 0,-4.98621 -3.617447,-8.75031 -9.874652,-8.75031 -3.568563,0 -6.012784,1.31988 -9.190271,3.32414 l 1.613186,2.73753 c 2.053146,-1.36876 4.546251,-2.8353 7.577085,-2.8353 3.666331,0 5.817246,2.15092 5.817246,5.86613 0,3.95964 -3.861869,6.74605 -7.332663,6.74605 h -2.199799 v 3.22638 h 2.884181 c 1.906492,0 8.40812,0.68438 8.40812,6.2572 0,4.59514 -3.470794,6.45274 -8.065929,6.45274 -3.275256,0 -6.012784,-1.12434 -8.065929,-2.44422 l -1.613186,2.73753 c 3.177487,1.95538 5.523939,2.93307 10.021306,2.93307 z"
         style="font-style:normal;font-variant:normal;font-weight:normal;font-stretch:normal;font-size:48.88441849px;font-family:Cantarell;-inkscape-font-specification:'Cantarell, Normal';font-variant-ligatures:normal;font-variant-caps:normal;font-variant-numeric:normal;font-feature-settings:normal;text-align:start;writing-mode:lr-tb;text-anchor:start;stroke-width:1.22212303"
         id="path27" />
      <path
         d="m 48.488561,202.4128 c 1.710955,0 2.933065,-1.271 2.933065,-2.93307 0,-1.66207 -1.22211,-2.93306 -2.933065,-2.93306 -1.710955,0 -2.933065,1.27099 -2.933065,2.93306 0,1.66207 1.22211,2.93307 2.933065,2.93307 z"
         style="font-style:normal;font-variant:normal;font-weight:normal;font-stretch:normal;font-size:48.88441849px;font-family:Cantarell;-inkscape-font-specification:'Cantarell, Normal';font-variant-ligatures:normal;font-variant-caps:normal;font-variant-numeric:normal;font-feature-settings:normal;text-align:start;writing-mode:lr-tb;text-anchor:start;stroke-width:1.22212303"
         id="path29" />
      <path
         d="m 72.365545,201.92395 h 19.847074 v -3.56856 H 76.422951 v -12.66106 h 14.469788 v -3.56857 H 76.422951 V 171.6645 h 15.789668 v -3.56857 H 72.365545 Z"
         style="font-style:normal;font-variant:normal;font-weight:normal;font-stretch:normal;font-size:48.88441849px;font-family:Cantarell;-inkscape-font-specification:'Cantarell, Normal';font-variant-ligatures:normal;font-variant-caps:normal;font-variant-numeric:normal;font-feature-settings:normal;text-align:start;writing-mode:lr-tb;text-anchor:start;stroke-width:1.22212303"
         id="path31" />
      <path
         d="m 102.48827,171.6645 h 15.54525 v -3.56857 H 98.430868 v 33.82802 h 4.057402 v -15.6919 h 14.1276 v -3.56856 h -14.1276 z"
         style="font-style:normal;font-variant:normal;font-weight:normal;font-stretch:normal;font-size:48.88441849px;font-family:Cantarell;-inkscape-font-specification:'Cantarell, Normal';font-variant-ligatures:normal;font-variant-caps:normal;font-variant-numeric:normal;font-feature-settings:normal;text-align:start;writing-mode:lr-tb;text-anchor:start;stroke-width:1.22212303"
         id="path33" />
    </g>
  </g>
</svg>
