<?xml version="1.0" encoding="UTF-8" standalone="no"?>
<!-- Created with Inkscape (http://www.inkscape.org/) -->

<svg
   xmlns:dc="http://purl.org/dc/elements/1.1/"
   xmlns:cc="http://creativecommons.org/ns#"
   xmlns:rdf="http://www.w3.org/1999/02/22-rdf-syntax-ns#"
   xmlns:svg="http://www.w3.org/2000/svg"
   xmlns="http://www.w3.org/2000/svg"
   xmlns:sodipodi="http://sodipodi.sourceforge.net/DTD/sodipodi-0.dtd"
   xmlns:inkscape="http://www.inkscape.org/namespaces/inkscape"
   width="103.71939mm"
   height="56.268425mm"
   viewBox="0 0 103.71939 56.268425"
   version="1.1"
   id="svg62"
   inkscape:version="0.92+devel unknown"
   sodipodi:docname="quote.svg">
  <defs
     id="defs56" />
  <sodipodi:namedview
     id="base"
     pagecolor="#ffffff"
     bordercolor="#666666"
     borderopacity="1.0"
     inkscape:pageopacity="0.0"
     inkscape:pageshadow="2"
     inkscape:zoom="0.35"
     inkscape:cx="-552.19726"
     inkscape:cy="-65.92989"
     inkscape:document-units="mm"
     inkscape:current-layer="layer1"
     inkscape:document-rotation="0"
     showgrid="false"
     inkscape:window-width="1366"
     inkscape:window-height="731"
     inkscape:window-x="0"
     inkscape:window-y="0"
     inkscape:window-maximized="1" />
  <metadata
     id="metadata59">
    <rdf:RDF>
      <cc:Work
         rdf:about="">
        <dc:format>image/svg+xml</dc:format>
        <dc:type
           rdf:resource="http://purl.org/dc/dcmitype/StillImage" />
        <dc:title />
      </cc:Work>
    </rdf:RDF>
  </metadata>
  <g
     inkscape:label="Layer 1"
     inkscape:groupmode="layer"
     id="layer1"
     transform="translate(-20.236119,-57.684993)">
    <g
       style="font-style:normal;font-variant:normal;font-weight:normal;font-stretch:normal;font-size:324.24157715px;font-family:Cantarell;-inkscape-font-specification:'Cantarell, Normal';font-variant-ligatures:normal;font-variant-caps:normal;font-variant-numeric:normal;font-feature-settings:normal;text-align:start;writing-mode:lr-tb;text-anchor:start;fill:#000000;fill-opacity:1;stroke:none;stroke-width:8.10607147"
       id="text66" />
    <g
       aria-label="“"
       style="font-style:normal;font-variant:normal;font-weight:normal;font-stretch:normal;font-size:176.3888855px;font-family:Cantarell;-inkscape-font-specification:'Cantarell, Normal';font-variant-ligatures:normal;font-variant-caps:normal;font-variant-numeric:normal;font-feature-settings:normal;text-align:start;writing-mode:lr-tb;text-anchor:start;fill:#000000;fill-opacity:1;stroke:none;stroke-width:4.92208958"
       id="text70">
      <path
         d="m 30.466674,94.903048 c 5.644445,0 10.230556,-4.056944 10.230556,-9.525 0,-5.115278 -2.293056,-8.290277 -6.879167,-9.701389 1.411111,-3.527777 4.056945,-8.113888 7.761111,-13.934722 L 35.758341,57.684993 C 25.351397,66.857215 20.236119,75.323882 20.236119,83.43777 c 0,6.526389 3.880556,11.465278 10.230555,11.465278 z m 27.163889,0 c 5.644444,0 10.230555,-4.056944 10.230555,-9.525 0,-5.115278 -2.293055,-8.290277 -6.879166,-9.701389 1.411111,-3.527777 4.056944,-8.113888 7.761111,-13.934722 L 62.922229,57.684993 C 52.515285,66.857215 47.400007,75.323882 47.400007,83.43777 c 0,6.526389 3.880556,11.465278 10.230556,11.465278 z"
         style="font-style:normal;font-variant:normal;font-weight:normal;font-stretch:normal;font-size:176.3888855px;font-family:Cantarell;-inkscape-font-specification:'Cantarell, Normal';font-variant-ligatures:normal;font-variant-caps:normal;font-variant-numeric:normal;font-feature-settings:normal;text-align:start;writing-mode:lr-tb;text-anchor:start;stroke-width:4.92208958"
         id="path16" />
    </g>
    <g
       aria-label="”"
       style="font-style:normal;font-variant:normal;font-weight:normal;font-stretch:normal;font-size:176.3888855px;font-family:Cantarell;-inkscape-font-specification:'Cantarell, Normal';font-variant-ligatures:normal;font-variant-caps:normal;font-variant-numeric:normal;font-feature-settings:normal;text-align:start;writing-mode:lr-tb;text-anchor:start;fill:#000000;fill-opacity:1;stroke:none;stroke-width:0.26458332"
       id="text76">
      <path
         d="m 86.561063,76.735362 c -5.644444,0 -10.230555,4.056945 -10.230555,9.525 0,5.115278 2.293055,8.290278 6.879166,9.701389 -1.411111,3.351389 -5.997222,11.288889 -7.761111,14.111109 l 5.644445,3.88056 c 4.586111,-3.88056 8.290277,-8.11389 11.288888,-12.52361 2.998611,-4.409726 4.409723,-8.819448 4.409723,-13.22917 0,-6.526389 -3.880556,-11.465278 -10.230556,-11.465278 z m 27.163887,0 c -5.64444,0 -10.23055,4.056945 -10.23055,9.525 0,5.115278 2.29305,8.290278 6.87916,9.701389 -1.41111,3.351389 -5.99722,11.288889 -7.76111,14.111109 l 5.64445,3.88056 c 4.58611,-3.88056 8.29027,-8.11389 11.28888,-12.52361 2.99862,-4.409726 4.40973,-8.819448 4.40973,-13.22917 0,-6.526389 -3.88056,-11.465278 -10.23056,-11.465278 z"
         style="font-style:normal;font-variant:normal;font-weight:normal;font-stretch:normal;font-size:176.3888855px;line-height:normal;font-family:Cantarell;-inkscape-font-specification:'Cantarell, Normal';font-variant-ligatures:normal;font-variant-position:normal;font-variant-caps:normal;font-variant-numeric:normal;font-variant-alternates:normal;font-variant-east-asian:normal;font-feature-settings:normal;text-indent:0;text-align:start;text-decoration:none;text-decoration-line:none;text-decoration-style:solid;text-decoration-color:#000000;letter-spacing:normal;word-spacing:normal;text-transform:none;writing-mode:lr-tb;direction:ltr;text-orientation:mixed;dominant-baseline:auto;baseline-shift:baseline;text-anchor:start;white-space:normal;shape-padding:0;opacity:1;vector-effect:none;fill:#000000;fill-opacity:1;stroke-width:0.26458332;stroke-linecap:butt;stroke-linejoin:miter;stroke-miterlimit:4;stroke-dasharray:none;stroke-dashoffset:0;stroke-opacity:1"
         id="path13" />
    </g>
  </g>
</svg>
