<?xml version="1.0" encoding="UTF-8" standalone="no"?>
<!-- Created with Inkscape (http://www.inkscape.org/) -->

<svg
   xmlns:dc="http://purl.org/dc/elements/1.1/"
   xmlns:cc="http://creativecommons.org/ns#"
   xmlns:rdf="http://www.w3.org/1999/02/22-rdf-syntax-ns#"
   xmlns:svg="http://www.w3.org/2000/svg"
   xmlns="http://www.w3.org/2000/svg"
   xmlns:sodipodi="http://sodipodi.sourceforge.net/DTD/sodipodi-0.dtd"
   xmlns:inkscape="http://www.inkscape.org/namespaces/inkscape"
   width="106.94364mm"
   height="105.86mm"
   viewBox="0 0 106.94364 105.86"
   version="1.1"
   id="svg976"
   inkscape:version="0.92+devel unknown"
   sodipodi:docname="strikethrough.svg">
  <defs
     id="defs970" />
  <sodipodi:namedview
     id="base"
     pagecolor="#ffffff"
     bordercolor="#666666"
     borderopacity="1.0"
     inkscape:pageopacity="0.0"
     inkscape:pageshadow="2"
     inkscape:zoom="0.35"
     inkscape:cx="-268.17673"
     inkscape:cy="65.971169"
     inkscape:document-units="mm"
     inkscape:current-layer="layer1"
     inkscape:document-rotation="0"
     showgrid="false"
     inkscape:window-width="1366"
     inkscape:window-height="731"
     inkscape:window-x="0"
     inkscape:window-y="0"
     inkscape:window-maximized="1" />
  <metadata
     id="metadata973">
    <rdf:RDF>
      <cc:Work
         rdf:about="">
        <dc:format>image/svg+xml</dc:format>
        <dc:type
           rdf:resource="http://purl.org/dc/dcmitype/StillImage" />
        <dc:title />
      </cc:Work>
    </rdf:RDF>
  </metadata>
  <g
     inkscape:label="Layer 1"
     inkscape:groupmode="layer"
     id="layer1"
     transform="translate(-38.827117,-120.90439)">
    <g
       aria-label="S"
       style="font-style:normal;font-variant:normal;font-weight:normal;font-stretch:normal;font-size:147.84916687px;font-family:Cantarell;-inkscape-font-specification:'Cantarell, Normal';font-variant-ligatures:normal;font-variant-caps:normal;font-variant-numeric:normal;font-feature-settings:normal;text-align:start;writing-mode:lr-tb;text-anchor:start;fill:#000000;fill-opacity:1;stroke:none;stroke-width:3.69621873"
       id="text980">
      <path
         d="m 88.392533,226.7644 c 21.585977,0 37.701537,-11.53224 37.701537,-27.79565 0,-33.11821 -56.478382,-27.64779 -56.478382,-50.26871 0,-10.64514 9.0188,-17.00266 23.508018,-17.00266 8.279554,0 19.220394,2.66129 24.690814,6.65321 l 4.73117,-10.20159 c -7.98385,-4.58332 -17.4462,-7.24461 -29.717682,-7.24461 -19.072543,0 -35.4838,8.13171 -35.4838,27.79565 0,33.11821 56.478382,27.64779 56.478382,50.26871 0,8.57525 -9.6102,17.00266 -25.134359,17.00266 -11.680084,0 -23.212319,-4.43548 -28.978437,-8.13171 l -4.731173,10.20159 c 7.983855,4.43548 17.7419,8.72311 33.413912,8.72311 z"
         style="font-style:normal;font-variant:normal;font-weight:normal;font-stretch:normal;font-size:147.84916687px;font-family:Cantarell;-inkscape-font-specification:'Cantarell, Normal';font-variant-ligatures:normal;font-variant-caps:normal;font-variant-numeric:normal;font-feature-settings:normal;text-align:start;writing-mode:lr-tb;text-anchor:start;stroke-width:3.69621873"
         id="path15" />
    </g>
    <path
       style="fill:#000000;stroke:#000000;stroke-width:0"
       d="M 40.820735,168.1869 H 143.77714 c 1.10447,0 1.99362,0.88916 1.99362,1.99362 v 7.30776 c 0,1.10446 -0.88915,1.99362 -1.99362,1.99362 H 40.820735 c -1.104464,0 -1.993617,-0.88916 -1.993617,-1.99362 v -7.30776 c 0,-1.10446 0.889153,-1.99362 1.993617,-1.99362 z"
       id="rect984" />
  </g>
</svg>
