<?xml version="1.0" encoding="UTF-8" standalone="no"?>
<!-- Created with Inkscape (http://www.inkscape.org/) -->

<svg
   xmlns:dc="http://purl.org/dc/elements/1.1/"
   xmlns:cc="http://creativecommons.org/ns#"
   xmlns:rdf="http://www.w3.org/1999/02/22-rdf-syntax-ns#"
   xmlns:svg="http://www.w3.org/2000/svg"
   xmlns="http://www.w3.org/2000/svg"
   xmlns:sodipodi="http://sodipodi.sourceforge.net/DTD/sodipodi-0.dtd"
   xmlns:inkscape="http://www.inkscape.org/namespaces/inkscape"
   width="65.253082mm"
   height="103.13543mm"
   viewBox="0 0 65.253082 103.13543"
   version="1.1"
   id="svg176"
   inkscape:version="0.92+devel unknown"
   sodipodi:docname="ulist.svg">
  <defs
     id="defs170" />
  <sodipodi:namedview
     id="base"
     pagecolor="#ffffff"
     bordercolor="#666666"
     borderopacity="1.0"
     inkscape:pageopacity="0.0"
     inkscape:pageshadow="2"
     inkscape:zoom="0.49497475"
     inkscape:cx="-90.978776"
     inkscape:cy="144.72349"
     inkscape:document-units="mm"
     inkscape:current-layer="layer1"
     inkscape:document-rotation="0"
     showgrid="false"
     inkscape:window-width="1366"
     inkscape:window-height="731"
     inkscape:window-x="0"
     inkscape:window-y="0"
     inkscape:window-maximized="1" />
  <metadata
     id="metadata173">
    <rdf:RDF>
      <cc:Work
         rdf:about="">
        <dc:format>image/svg+xml</dc:format>
        <dc:type
           rdf:resource="http://purl.org/dc/dcmitype/StillImage" />
        <dc:title />
      </cc:Work>
    </rdf:RDF>
  </metadata>
  <g
     inkscape:label="Layer 1"
     inkscape:groupmode="layer"
     id="layer1"
     transform="translate(-60.728657,-77.065836)">
    <g
       aria-label="· AB
· XY
· MN"
       style="font-style:normal;font-weight:normal;font-size:31.94032288px;font-family:sans-serif;fill:#000000;fill-opacity:1;stroke:none;stroke-width:0.79850805"
       id="text188">
      <path
         d="m 60.728657,87.281125 h 3.290727 v 3.961349 h -3.290727 z"
         style="font-style:normal;font-variant:normal;font-weight:normal;font-stretch:normal;font-size:31.94032288px;line-height:normal;font-variant-ligatures:normal;font-variant-position:normal;font-variant-caps:normal;font-variant-numeric:normal;font-variant-alternates:normal;font-variant-east-asian:normal;text-indent:0;text-align:start;text-decoration:none;text-decoration-line:none;text-decoration-style:solid;text-decoration-color:#000000;letter-spacing:normal;word-spacing:normal;text-transform:none;writing-mode:lr-tb;direction:ltr;text-orientation:mixed;dominant-baseline:auto;baseline-shift:baseline;text-anchor:start;white-space:normal;shape-padding:0;opacity:1;vector-effect:none;fill:#000000;fill-opacity:1;stroke-width:0.26458332;stroke-linecap:butt;stroke-linejoin:miter;stroke-miterlimit:4;stroke-dasharray:none;stroke-dashoffset:0;stroke-opacity:1"
         id="path14" />
      <path
         d="M 88.567268,80.169412 84.294002,91.757137 H 92.85613 Z M 86.78934,77.065836 h 3.571452 l 8.874045,23.284624 H 95.959706 L 93.838669,94.377242 H 83.342655 l -2.121037,5.973218 h -3.321919 z"
         style="stroke-width:0.79850805"
         id="path16" />
      <path
         d="m 105.7695,89.230608 v 8.530935 h 5.05306 q 2.54213,0 3.7586,-1.044922 1.23208,-1.060519 1.23208,-3.228344 0,-2.18342 -1.23208,-3.212747 -1.21647,-1.044922 -3.7586,-1.044922 z m 0,-9.575859 v 7.018137 h 4.66317 q 2.30818,0 3.43108,-0.857772 1.1385,-0.873368 1.1385,-2.651296 0,-1.762333 -1.1385,-2.635701 -1.1229,-0.873368 -3.43108,-0.873368 z m -3.15036,-2.588913 h 8.04746 q 3.60265,0 5.55213,1.497203 1.94948,1.497202 1.94948,4.25767 0,2.136633 -0.99813,3.399897 -0.99814,1.263265 -2.93202,1.575182 2.32378,0.499068 3.60264,2.089846 1.29446,1.575182 1.29446,3.945752 0,3.119173 -2.12104,4.819121 -2.12104,1.699953 -6.0356,1.699953 h -8.35938 z"
         style="stroke-width:0.79850805"
         id="path18" />
      <path
         d="m 60.728657,127.20653 h 3.290727 v 3.96135 h -3.290727 z"
         style="font-style:normal;font-variant:normal;font-weight:normal;font-stretch:normal;font-size:31.94032288px;line-height:normal;font-variant-ligatures:normal;font-variant-position:normal;font-variant-caps:normal;font-variant-numeric:normal;font-variant-alternates:normal;font-variant-east-asian:normal;text-indent:0;text-align:start;text-decoration:none;text-decoration-line:none;text-decoration-style:solid;text-decoration-color:#000000;letter-spacing:normal;word-spacing:normal;text-transform:none;writing-mode:lr-tb;direction:ltr;text-orientation:mixed;dominant-baseline:auto;baseline-shift:baseline;text-anchor:start;white-space:normal;shape-padding:0;opacity:1;vector-effect:none;fill:#000000;fill-opacity:1;stroke-width:0.26458332;stroke-linecap:butt;stroke-linejoin:miter;stroke-miterlimit:4;stroke-dasharray:none;stroke-dashoffset:0;stroke-opacity:1"
         id="path20" />
      <path
         d="m 79.662032,116.99124 h 3.384301 l 5.786065,8.6557 5.817256,-8.6557 h 3.384302 l -7.486014,11.18223 7.985081,12.10239 h -3.384302 l -6.550261,-9.90337 -6.597049,9.90337 h -3.399898 l 8.312594,-12.4299 z"
         style="stroke-width:0.79850805"
         id="path22" />
      <path
         d="m 99.484369,116.99124 h 3.384301 l 6.45669,9.57586 6.4099,-9.57586 h 3.3843 l -8.23462,12.19596 v 11.08866 h -3.16596 V 129.1872 Z"
         style="stroke-width:0.79850805"
         id="path24" />
      <path
         d="m 60.728657,167.13193 h 3.290727 v 3.96135 h -3.290727 z"
         style="font-style:normal;font-variant:normal;font-weight:normal;font-stretch:normal;font-size:31.94032288px;line-height:normal;font-variant-ligatures:normal;font-variant-position:normal;font-variant-caps:normal;font-variant-numeric:normal;font-variant-alternates:normal;font-variant-east-asian:normal;text-indent:0;text-align:start;text-decoration:none;text-decoration-line:none;text-decoration-style:solid;text-decoration-color:#000000;letter-spacing:normal;word-spacing:normal;text-transform:none;writing-mode:lr-tb;direction:ltr;text-orientation:mixed;dominant-baseline:auto;baseline-shift:baseline;text-anchor:start;white-space:normal;shape-padding:0;opacity:1;vector-effect:none;fill:#000000;fill-opacity:1;stroke-width:0.26458332;stroke-linecap:butt;stroke-linejoin:miter;stroke-miterlimit:4;stroke-dasharray:none;stroke-dashoffset:0;stroke-opacity:1"
         id="path26" />
      <path
         d="m 80.784934,156.91664 h 4.694354 l 5.942023,15.8454 5.973214,-15.8454 h 4.694355 v 23.28462 h -3.072385 v -20.44617 l -6.004407,15.97016 h -3.165959 l -6.004407,-15.97016 v 20.44617 h -3.056788 z"
         style="stroke-width:0.79850805"
         id="path28" />
      <path
         d="m 108.35842,156.91664 h 4.24207 l 10.32446,19.47923 v -19.47923 h 3.05679 v 23.28462 h -4.24208 L 111.4152,160.72203 v 19.47923 h -3.05678 z"
         style="stroke-width:0.79850805"
         id="path30" />
    </g>
  </g>
</svg>
