<?xml version="1.0" encoding="UTF-8" standalone="no"?>
<!-- Created with Inkscape (http://www.inkscape.org/) -->

<svg
   xmlns:osb="http://www.openswatchbook.org/uri/2009/osb"
   xmlns:dc="http://purl.org/dc/elements/1.1/"
   xmlns:cc="http://creativecommons.org/ns#"
   xmlns:rdf="http://www.w3.org/1999/02/22-rdf-syntax-ns#"
   xmlns:svg="http://www.w3.org/2000/svg"
   xmlns="http://www.w3.org/2000/svg"
   xmlns:sodipodi="http://sodipodi.sourceforge.net/DTD/sodipodi-0.dtd"
   xmlns:inkscape="http://www.inkscape.org/namespaces/inkscape"
   width="498.48288mm"
   height="68.218971mm"
   viewBox="0 0 498.48288 68.21897"
   version="1.1"
   id="svg29"
   inkscape:version="0.92+devel unknown"
   sodipodi:docname="header.svg"
   inkscape:export-xdpi="96"
   inkscape:export-ydpi="96">
  <defs
     id="defs23">
    <linearGradient
       osb:paint="solid"
       id="linearGradient6082">
      <stop
         id="stop6080"
         offset="0"
         style="stop-color:#ff0000;stop-opacity:1;" />
    </linearGradient>
  </defs>
  <sodipodi:namedview
     id="base"
     pagecolor="#ffffff"
     bordercolor="#666666"
     borderopacity="1.0"
     inkscape:pageopacity="0.0"
     inkscape:pageshadow="2"
     inkscape:zoom="0.5573222"
     inkscape:cx="1510.7334"
     inkscape:cy="146.15864"
     inkscape:document-units="mm"
     inkscape:current-layer="layer1"
     inkscape:document-rotation="0"
     showgrid="false"
     inkscape:window-width="1366"
     inkscape:window-height="731"
     inkscape:window-x="0"
     inkscape:window-y="0"
     inkscape:window-maximized="1" />
  <metadata
     id="metadata26">
    <rdf:RDF>
      <cc:Work
         rdf:about="">
        <dc:format>image/svg+xml</dc:format>
        <dc:type
           rdf:resource="http://purl.org/dc/dcmitype/StillImage" />
        <dc:title></dc:title>
      </cc:Work>
    </rdf:RDF>
  </metadata>
  <g
     inkscape:label="Layer 1"
     inkscape:groupmode="layer"
     id="layer1"
     transform="translate(-30.879329,-19.331156)">
    <g
       transform="translate(-36.980094,-68.009625)"
       id="layer1-6"
       inkscape:label="Layer 1">
      <rect
         transform="rotate(-131.00471)"
         style="fill:#800080;stroke:#000000;stroke-width:0"
         id="rect4502"
         width="3.9872315"
         height="12.916506"
         x="-157.62346"
         y="5.4673133"
         ry="1.9936157" />
      <circle
         transform="rotate(-58.159577)"
         r="24.022873"
         cy="147.86513"
         cx="-51.133606"
         id="circle4294"
         style="fill:#00009d;fill-opacity:1;stroke:#000000;stroke-width:0" />
      <path
         inkscape:connector-curvature="0"
         id="path6192"
         transform="matrix(0.26458333,0,0,0.26458333,67.859423,87.332479)"
         d="m 187.14258,72.423828 a 41.635419,98.226391 31.840423 0 1 -25.44141,92.474612 41.635419,98.226391 31.840423 0 1 -50.06836,54.57422 90.795109,90.795109 0 0 0 41.64453,-7.67383 62.197311,146.73606 31.840423 0 0 25.89063,-36.05274 62.197311,146.73606 31.840423 0 0 27.4043,-55.0039 90.795109,90.795109 0 0 0 -19.42969,-48.318362 z"
         style="fill:#00008b;fill-opacity:1;stroke:#000000;stroke-width:0" />
      <path
         inkscape:connector-curvature="0"
         id="rect6202"
         transform="matrix(0.26458333,0,0,0.26458333,67.859423,87.332479)"
         d="m 175.80273,60.470703 c -3.03076,0.450716 -5.97709,1.73233 -8.4707,3.900391 L 70.712891,148.37695 c -2.478085,-0.75704 -5.111492,-1.16797 -7.84375,-1.16797 -14.023537,0 -25.44219,10.72573 -26.554688,24.45313 a 90.79511,90.79511 0 0 0 32.117188,34.4043 90.79511,90.79511 0 0 0 21.091797,9.55468 v -39.50976 l 93.955082,-81.687502 11.58398,13.324222 -7.04883,6.1289 c -3.1502,2.73888 -3.48102,7.47871 -0.74219,10.62891 l 18.31446,21.06641 a 90.79511,90.79511 0 0 0 1.30468,-21.46875 l -3.30273,-3.79883 2.82813,-2.45703 a 90.79511,90.79511 0 0 0 -10,-31.507816 l -2.75,-3.16211 c 0.13738,-0.33813 0.26254,-0.680393 0.37695,-1.02539 A 90.79511,90.79511 0 0 0 175.80273,60.470703 Z"
         style="fill:#00008b;fill-opacity:1;stroke:#000000;stroke-width:0" />
      <g
         style="fill:#00a035;fill-opacity:1"
         id="g4548">
        <rect
           ry="1.9936157"
           y="154.67783"
           x="15.594605"
           height="12.916506"
           width="3.9872315"
           id="rect4506"
           style="fill:#00a035;fill-opacity:1;stroke:#000000;stroke-width:0"
           transform="rotate(-41.004706)" />
        <rect
           transform="rotate(-131.00471)"
           style="fill:#00a035;fill-opacity:1;stroke:#000000;stroke-width:0"
           id="rect4500"
           width="3.9872315"
           height="12.916506"
           x="-158.66505"
           y="6.6653295"
           ry="1.9936157" />
      </g>
      <path
         inkscape:connector-curvature="0"
         id="path4267"
         transform="matrix(0.26458333,0,0,0.26458333,67.859423,87.332479)"
         d="m 174.66992,0.1484375 a 62.197311,146.73606 31.840423 0 0 -65.5039,38.2714845 c 13.15423,-1.051802 26.61723,0.750274 39.41601,5.628906 a 41.635419,98.226391 31.840423 0 1 19.56836,1.439453 41.635419,98.226391 31.840423 0 1 -16.44922,105.410159 41.635419,98.226391 31.840423 0 1 -61.021482,60.57812 c -0.631636,0.33746 -1.302892,0.6083 -2.017579,0.80469 a 41.635419,98.226391 31.840423 0 1 -24.15039,0.0977 41.635419,98.226391 31.840423 0 1 -9.976563,-16.91016 C 44.480762,186.15084 36.895217,174.87097 32.007812,162.60156 a 62.197311,146.73606 31.840423 0 0 6.91211,90.98828 A 62.197311,146.73606 31.840423 0 0 169.16797,161.74609 62.197311,146.73606 31.840423 0 0 193.74219,4.2773438 62.197311,146.73606 31.840423 0 0 174.66992,0.1484375 Z"
         style="fill:#80002f;fill-opacity:1;stroke:#000000;stroke-width:0" />
      <path
         inkscape:connector-curvature="0"
         id="path6246"
         transform="matrix(0.26458333,0,0,0.26458333,67.859423,87.332479)"
         d="m 32.007812,162.60156 a 62.19731,146.73606 31.840423 0 0 6.91211,90.98828 62.19731,146.73606 31.840423 0 0 32.384766,1.20508 v -40.04687 a 41.635418,98.22639 31.840423 0 1 -6.792969,-2.36914 41.635418,98.22639 31.840423 0 1 -9.976563,-16.91016 C 44.480762,186.15084 36.895217,174.87097 32.007812,162.60156 Z"
         style="fill:#6c0324;fill-opacity:1;stroke:#000000;stroke-width:0" />
      <path
         inkscape:connector-curvature="0"
         id="rect4458"
         d="m 74.911191,119.86658 c -3.906605,0 -7.051768,3.14517 -7.051768,7.05177 v 28.20603 c 0,0.14614 0.0058,0.29123 0.01447,0.43512 h 14.074592 c 0.0087,-0.14389 0.01447,-0.28898 0.01447,-0.43512 v -28.20603 c 0,-3.9066 -3.145163,-7.05177 -7.051764,-7.05177 z"
         style="fill:#00a035;fill-opacity:1;stroke:#000000;stroke-width:0" />
      <path
         inkscape:connector-curvature="0"
         id="rect4472-5"
         d="m 102.59426,101.03828 8.60051,9.8919 c 0.72466,0.83349 1.97926,0.92155 2.81275,0.19688 0.83349,-0.72466 0.92103,-1.97925 0.19637,-2.81274 l -6.32623,-7.27604 z"
         style="fill:#00a035;fill-opacity:1;stroke:#000000;stroke-width:0" />
      <path
         inkscape:connector-curvature="0"
         id="rect4472"
         d="m 105.32329,96.866955 c -0.9851,0.02572 -1.96784,0.382111 -2.77295,1.082103 L 75.234683,121.69851 v 11.66492 l 33.091527,-28.77085 c 1.84026,-1.59998 2.03406,-4.36917 0.43408,-6.209438 -0.89999,-1.035151 -2.17043,-1.549263 -3.437,-1.516187 z"
         style="fill:#00a035;fill-opacity:1;stroke:#000000;stroke-width:0" />
      <path
         inkscape:connector-curvature="0"
         id="rect6100"
         transform="matrix(0.26458333,0,0,0.26458333,67.859423,87.332479)"
         d="m 174.44727,101 a 41.635419,98.226391 31.840423 0 1 -5.69532,16.41406 l 12.44336,14.31446 c 0.95118,1.09402 2.14606,1.84063 3.42969,2.24414 a 62.197311,146.73606 31.840423 0 0 6.46484,-13.83204 z"
         style="fill:#6c0324;fill-opacity:1;stroke:#000000;stroke-width:0" />
      <rect
         transform="rotate(-41.004706)"
         ry="1.9936157"
         y="154.67783"
         x="6.6653295"
         height="12.916506"
         width="3.9872315"
         id="rect4504"
         style="fill:#00a035;fill-opacity:1;stroke:#000000;stroke-width:0" />
    </g>
    <path
       inkscape:connector-curvature="0"
       id="path220"
       d="m 363.83407,29.968521 c -5.68481,0 -9.57569,2.143218 -11.68054,4.900781 -2.10484,2.757577 -2.48128,5.750207 -2.48128,7.575109 v 0.651206 h -1.49289 a 2.7235048,2.7235048 0 0 0 -1.76571,0.651206 V 33.324945 a 2.7235048,2.7235048 0 0 0 -2.72324,-2.723233 h -6.48375 a 2.7235048,2.7235048 0 0 0 -2.72323,2.723233 v 9.649693 c -1.24331,-0.286423 -2.52955,-0.460736 -3.86606,-0.460736 -4.84722,0 -8.80532,1.675972 -11.28158,4.661406 -2.47625,2.985447 -3.40788,6.936568 -3.40788,11.188924 0,1.977787 0.34534,3.843754 0.86998,5.608615 a 2.7235048,2.7235048 0 0 0 -1.97936,-0.301156 c 0,0 -0.22978,0.01726 -0.33461,0.03347 -0.0975,-0.415375 -0.23164,-1.21202 -0.23166,-2.545625 V 33.324958 a 2.7235048,2.7235048 0 0 0 -2.72323,-2.723233 h -6.48375 a 2.7235048,2.7235048 0 0 0 -2.72322,2.723233 v 10.442477 c -1.85461,-0.859652 -3.8446,-1.25352 -5.82998,-1.25352 -2.15812,0 -4.18281,0.748464 -6.1131,1.801761 a 2.7235048,2.7235048 0 0 0 -2.27022,-1.220046 h -4.53271 a 2.7235048,2.7235048 0 0 0 -2.72323,2.723234 v 25.355875 a 2.7235048,2.7235048 0 0 0 2.72323,2.723234 h 6.32675 a 2.7235048,2.7235048 0 0 0 2.72323,-2.723234 V 54.377213 c 0.68552,-0.401314 1.3752,-0.880289 2.02054,-0.880289 0.9898,0 2.91491,0.543049 3.70647,1.070759 a 2.7235048,2.7235048 0 0 0 3.96902,-1.096497 v 9.00621 c 0,2.587428 0.31697,5.432695 1.9948,7.889128 1.67783,2.456433 4.82332,4.059106 8.79257,4.059106 2.36426,0 4.37571,-0.646067 4.37571,-0.646067 a 2.7235048,2.7235048 0 0 0 1.84551,-3.29206 l -0.77218,-2.962609 c 0.43102,0.71702 0.68215,1.556693 1.23034,2.185271 2.57983,2.958155 6.46393,4.715465 10.9341,4.715465 2.26874,0 4.53025,-0.634087 6.75143,-1.585554 l 0.036,0.04375 a 2.7235048,2.7235048 0 0 0 2.12092,1.014131 h 4.05911 a 2.7235048,2.7235048 0 0 0 2.72323,-2.723234 v -18.22607 a 2.7235048,2.7235048 0 0 0 1.76572,0.653789 h 1.49288 v 17.572281 a 2.7235048,2.7235048 0 0 0 2.72323,2.723234 h 6.48376 a 2.7235048,2.7235048 0 0 0 2.72323,-2.723234 V 53.602445 h 6.66136 a 2.7235048,2.7235048 0 0 0 2.72322,-2.723234 v -0.118343 l 0.42984,1.649891 a 2.7235048,2.7235048 0 0 0 3.94585,1.70138 c 1.03644,-0.568365 3.94257,-1.3539 5.22768,-1.3539 1.51622,0 1.72211,0.168184 2.12865,0.296003 -2.69868,0.137677 -5.38017,0.426657 -7.8222,1.364194 -1.8325,0.703524 -3.5697,1.787001 -4.83386,3.446499 -1.26417,1.659499 -1.94848,3.834187 -1.94848,6.24696 0,3.184588 1.46456,6.002286 3.7039,7.757843 2.23936,1.75557 5.11685,2.555931 8.1388,2.555931 2.25783,0 4.31532,-0.55885 6.23408,-1.392501 a 2.7235048,2.7235048 0 0 0 1.98966,0.864844 h 5.06036 a 2.7235048,2.7235048 0 0 0 2.72324,-2.723233 v -9.271336 c 0.64621,3.207664 2.19494,6.038777 4.49667,8.154241 3.09462,2.844213 7.42179,4.367985 12.32659,4.367985 4.53263,0 7.8672,-1.155523 9.32797,-1.842944 a 2.7235048,2.7235048 0 0 0 1.47743,-3.150496 l -1.2638,-4.849306 a 2.7235048,2.7235048 0 0 0 -3.80686,-1.77087 c -0.97478,0.464175 -2.40181,1.106789 -5.26113,1.106789 -2.02238,0 -3.35757,-0.606294 -4.2573,-1.498035 -0.89972,-0.891741 -1.45428,-2.160956 -1.45428,-3.950989 0,-1.914398 0.52302,-3.169248 1.3539,-4.00763 0.83087,-0.838381 2.12589,-1.438836 4.35768,-1.438836 2.88881,0 4.0908,0.583573 5.02175,1.091357 a 2.7235048,2.7235048 0 0 0 3.81716,-1.351318 2.7235048,2.7235048 0 0 0 1.96134,0.839106 h 1.49288 v 9.400025 c 0,2.464881 0.24603,5.329072 2.1544,7.726966 1.90836,2.397894 5.23475,3.696181 9.74236,3.696181 2.97753,0 6.06212,-0.788882 8.19284,-1.603569 a 2.7235048,2.7235048 0 0 0 1.69109,-3.106742 L 446.388,65.234129 a 2.7235048,2.7235048 0 0 0 -3.39245,-2.059152 c -0.83451,0.231811 -2.6528,0.638331 -3.96388,0.638331 -1.28551,0 -1.45994,-0.26145 -1.44655,-0.247099 0.0134,0.01436 -0.10042,-0.113599 -0.10042,-0.720696 v -9.243016 h 6.02817 a 2.7235048,2.7235048 0 0 0 2.72322,-2.723233 v -5.060361 a 2.7235048,2.7235048 0 0 0 -2.72322,-2.723233 h -6.02817 v -5.237968 a 2.7235048,2.7235048 0 0 0 -2.72323,-2.723234 h -6.48375 a 2.7235048,2.7235048 0 0 0 -2.72324,2.723234 v 5.237968 h -1.49288 a 2.7235048,2.7235048 0 0 0 -2.29596,1.258659 c -1.81893,-1.010599 -4.53466,-1.840374 -9.18895,-1.840374 -4.88281,0 -9.17463,1.461727 -12.23137,4.298481 -2.62351,2.434728 -3.97962,5.937895 -4.38084,9.809285 v -1.104219 c 0,-4.127344 -1.15642,-7.674726 -3.80686,-9.95342 -2.65045,-2.278706 -6.27337,-3.050127 -10.56602,-3.050127 -1.87676,0 -3.88047,0.214797 -5.6704,0.548255 -1.78993,0.333457 -3.17589,0.566006 -4.64338,1.544357 a 2.7235048,2.7235048 0 0 0 -0.42986,0.357785 2.7235048,2.7235048 0 0 0 -2.58422,-1.868682 h -6.66136 v -0.862274 c 0,-0.845287 0.48121,-1.703937 2.70779,-1.703937 1.86954,0 2.54017,0.26004 3.38473,0.720697 a 2.7235048,2.7235048 0 0 0 3.94069,-1.70395 l 1.26639,-4.849306 a 2.7235048,2.7235048 0 0 0 -1.29728,-3.057837 c -3.02234,-1.704925 -6.36347,-1.670489 -7.77071,-1.670489 z M 102.94982,42.513902 c -4.63688,0 -8.737656,1.523008 -11.608463,4.386 -2.870807,2.862992 -4.398862,6.95569 -4.398862,11.569864 0,4.546699 1.526882,8.618456 4.370541,11.495207 2.84366,2.876764 6.921571,4.460643 11.531254,4.460643 4.61566,0 8.71488,-1.597058 11.58272,-4.488951 2.86786,-2.891892 4.42719,-6.990969 4.42719,-11.572433 0,-4.547003 -1.53276,-8.603789 -4.38342,-11.454037 -2.85066,-2.850249 -6.92323,-4.396293 -11.52096,-4.396293 z m 32.74309,0 c -2.96713,0 -5.45867,0.774136 -7.71925,1.755438 l -0.0489,-0.06431 a 2.7235048,2.7235048 0 0 0 -2.19299,-1.109372 h -4.05911 a 2.7235048,2.7235048 0 0 0 -2.72322,2.723233 V 84.82695 a 2.7235048,2.7235048 0 0 0 2.72322,2.72322 h 6.48375 a 2.7235048,2.7235048 0 0 0 2.72324,-2.72322 v -10.826 c 1.21294,0.272493 2.4343,0.424706 3.65499,0.424706 4.47018,0 8.35427,-1.75731 10.93409,-4.715464 1.6543,-1.896871 2.58046,-4.311673 3.1711,-6.893013 0.66035,2.811806 1.72739,5.397851 3.67301,7.299703 2.92223,2.856482 7.10463,4.308774 11.90705,4.308774 3.68664,0 7.23915,-0.636235 10.58661,-1.714242 a 2.7235048,2.7235048 0 0 0 1.80176,-3.279198 l -1.26638,-4.849306 a 2.7235048,2.7235048 0 0 0 -0.70783,-1.232921 2.7235048,2.7235048 0 0 0 2.64086,-2.718081 v 10.542858 a 2.7235048,2.7235048 0 0 0 2.72322,2.723233 h 6.48377 a 2.7235048,2.7235048 0 0 0 2.72322,-2.723233 V 54.052915 c 1.27587,-0.354728 2.75677,-0.818508 3.33841,-0.818508 0.9461,0 1.09362,0.171914 1.31527,0.453013 0.22167,0.281099 0.4942,0.973093 0.4942,2.095182 v 15.392164 a 2.7235048,2.7235048 0 0 0 2.72323,2.723233 h 6.48632 a 2.7235048,2.7235048 0 0 0 2.72324,-2.723233 V 56.572763 c 0,-3.730023 -0.50431,-7.137989 -2.47614,-9.855608 -1.97181,-2.717633 -5.40979,-4.203253 -9.57762,-4.203253 -2.51995,0 -5.06088,0.648755 -7.57768,1.606138 a 2.7235048,2.7235048 0 0 0 -2.1235,-1.024423 h -4.53272 a 2.7235048,2.7235048 0 0 0 -2.72322,2.723234 v 12.334313 c 0,-4.566112 -1.07861,-8.509088 -3.5752,-11.356226 -2.49659,-2.847125 -6.29031,-4.283036 -10.64067,-4.283036 -7.1733,0 -12.40659,4.813315 -14.27765,11.091113 -0.45085,-2.331777 -1.16602,-4.523479 -2.53275,-6.331896 -2.26441,-2.996214 -6.02292,-4.759217 -10.55573,-4.759217 z m 129.21435,0 c -4.63688,0 -8.73765,1.523008 -11.60846,4.386 -2.87081,2.862992 -4.39886,6.95569 -4.39886,11.569864 0,4.546699 1.52688,8.618456 4.37054,11.495207 2.84366,2.876764 6.92157,4.460643 11.53125,4.460643 4.61567,0 8.71296,-1.596913 11.58015,-4.488951 2.8672,-2.892051 4.42719,-6.991259 4.42719,-11.572433 0,-4.546713 -1.53084,-8.603631 -4.38085,-11.454037 -2.85002,-2.850407 -6.92323,-4.396293 -11.52096,-4.396293 z m 196.45081,0 c -4.63688,0 -8.73959,1.523166 -11.61104,4.386 -2.87146,2.862834 -4.39887,6.9554 -4.39887,11.569864 0,4.546989 1.52882,8.618601 4.37313,11.495207 2.8443,2.876605 6.92157,4.460643 11.53125,4.460643 4.61566,0 8.71296,-1.596913 11.58016,-4.488951 2.86719,-2.892051 4.42718,-6.991259 4.42718,-11.572433 0,-4.5467 -1.53084,-8.603631 -4.38085,-11.454037 -2.85002,-2.850407 -6.92322,-4.396293 -11.52096,-4.396293 z m 31.58225,0 c -2.15813,0 -4.18282,0.748464 -6.11311,1.801761 a 2.7235048,2.7235048 0 0 0 -2.26764,-1.220046 h -4.53529 a 2.7235048,2.7235048 0 0 0 -2.72322,2.723234 v 25.355875 a 2.7235048,2.7235048 0 0 0 2.72322,2.723234 h 6.32676 a 2.7235048,2.7235048 0 0 0 2.72322,-2.723234 V 54.3772 c 0.68553,-0.401314 1.3752,-0.880289 2.02054,-0.880289 0.98983,0 2.91876,0.543893 3.70905,1.070759 a 2.7235048,2.7235048 0 0 0 3.94842,-1.050174 l 8.04099,17.891466 -5.32291,12.339466 a 2.7235048,2.7235048 0 0 0 2.50188,3.801702 h 7.11437 a 2.7235048,2.7235048 0 0 0 2.53018,-1.714242 l 15.55174,-39.00806 a 2.7235048,2.7235048 0 0 0 -2.53018,-3.732211 h -6.69482 a 2.7235048,2.7235048 0 0 0 -2.56879,1.817207 l -4.40659,12.509338 -4.87761,-12.586565 a 2.7235048,2.7235048 0 0 0 -2.5379,-1.73998 h -7.27396 a 2.7235048,2.7235048 0 0 0 -0.9781,0.185331 c -1.4241,-0.46498 -2.88433,-0.767046 -4.36025,-0.767046 z m -285.83603,0.581715 a 2.7235048,2.7235048 0 0 0 -2.56107,3.649845 l 9.17353,25.355889 a 2.7235048,2.7235048 0 0 0 2.56107,1.796609 h 6.16716 a 2.7235048,2.7235048 0 0 0 2.58681,-1.871252 l 3.22772,-9.801563 3.13505,9.780965 a 2.7235048,2.7235048 0 0 0 2.59453,1.89185 h 6.06422 a 2.7235048,2.7235048 0 0 0 2.55848,-1.791469 l 9.225,-25.355876 a 2.7235048,2.7235048 0 0 0 -2.55848,-3.654998 h -6.80036 a 2.7235048,2.7235048 0 0 0 -2.62284,1.987079 l -2.68977,9.572479 -2.77471,-9.593064 a 2.7235048,2.7235048 0 0 0 -2.61511,-1.966494 h -7.0629 a 2.7235048,2.7235048 0 0 0 -2.61512,1.958771 l -2.81589,9.639401 -2.70007,-9.611093 a 2.7235048,2.7235048 0 0 0 -2.62283,-1.987079 z m -43.93972,9.873637 c 1.00697,0 1.26363,0.190667 1.50318,0.458153 h -3.42076 c 0.35967,-0.258577 0.83937,-0.458153 1.91758,-0.458153 z m -60.32028,0.05403 c 1.43334,0 2.20801,0.45843 2.89569,1.338455 0.68767,0.880026 1.18143,2.326756 1.18143,4.108012 0,1.87593 -0.47899,3.316506 -1.12996,4.156903 -0.65097,0.840398 -1.38783,1.29212 -2.94716,1.29212 -1.38618,0 -2.12668,-0.447544 -2.80559,-1.335872 -0.67892,-0.888328 -1.166,-2.353285 -1.166,-4.113151 0,-1.695582 0.485051,-3.171002 1.17372,-4.079704 0.68866,-0.908702 1.43329,-1.366763 2.79787,-1.366763 z m 161.95744,0 c 1.43335,0 2.20802,0.45843 2.89569,1.338455 0.68767,0.880026 1.18143,2.326756 1.18143,4.108012 0,1.87593 -0.47899,3.316519 -1.12996,4.156903 -0.65097,0.840398 -1.38782,1.29212 -2.94716,1.29212 -1.38616,0 -2.12668,-0.447544 -2.80559,-1.335872 -0.67892,-0.888328 -1.166,-2.353285 -1.166,-4.113151 0,-1.695582 0.48505,-3.171002 1.17372,-4.079704 0.68866,-0.908702 1.43331,-1.366763 2.79787,-1.366763 z m 196.45081,0 c 1.43335,0 2.20802,0.45843 2.89569,1.338455 0.68767,0.880026 1.18143,2.326756 1.18143,4.108012 0,1.87593 -0.47897,3.316506 -1.12996,4.156903 -0.65097,0.840398 -1.38783,1.29212 -2.94716,1.29212 -1.38618,0 -2.12668,-0.447544 -2.80559,-1.335872 -0.6789,-0.888328 -1.166,-2.353285 -1.166,-4.113151 0,-1.695582 0.48507,-3.171002 1.17373,-4.079704 0.68866,-0.908702 1.43328,-1.366763 2.79786,-1.366763 z m -327.14004,0.21107 c 1.61286,0 1.95903,0.302264 2.42466,1.0167 0.46564,0.71445 0.86228,2.274082 0.86228,4.481242 0,2.052523 -0.4867,3.345908 -1.06819,4.043647 -0.58149,0.697753 -1.29965,1.088787 -2.85192,1.088787 -1.05312,0 -1.85309,-0.216708 -2.59969,-0.543102 v -9.286781 c 1.10206,-0.35457 2.21266,-0.800493 3.23286,-0.800493 z m 198.08528,0 c 0.87551,0 1.57428,0.331639 2.28565,0.594578 v 9.425776 c -0.78244,0.371398 -1.61392,0.610022 -2.70521,0.610022 -1.55229,0 -2.27043,-0.391034 -2.85192,-1.088787 -0.5815,-0.697739 -1.06819,-1.991111 -1.06819,-4.043647 0,-2.159164 0.42519,-3.596472 0.97295,-4.311357 0.54775,-0.714884 1.26137,-1.186585 3.36672,-1.186585 z m 51.83656,9.773255 v 0.468446 c -0.66434,0.262293 -1.39687,0.442721 -2.49672,0.442721 -0.78772,0 -1.32726,-0.191142 -1.47229,-0.275406 0.10029,-0.07657 0.47771,-0.292208 1.13769,-0.447874 0.70018,-0.165127 1.83616,-0.136846 2.83132,-0.187887 z m -222.30088,0.34748 h 6.32159 c -1.00448,0.15208 -1.85947,0.509641 -2.99092,0.509641 -1.69197,0 -2.64122,-0.232588 -3.33067,-0.509641 z m 218.29327,0.280558 c -0.12586,-0.08039 0.0181,0.237847 0.0181,0 0,-0.01713 -7.8e-4,0.01186 -0.003,0.0026 -10e-4,-8.43e-4 -0.0142,-0.0013 -0.0154,-0.0026 z"
       style="font-style:normal;font-variant:normal;font-weight:bold;font-stretch:normal;font-size:medium;font-family:Cantarell;-inkscape-font-specification:'Cantarell, Bold';font-variant-ligatures:normal;font-variant-caps:normal;font-variant-numeric:normal;font-feature-settings:normal;text-align:start;writing-mode:lr-tb;text-anchor:start;fill:#000000;fill-opacity:1;stroke:none;stroke-width:1.31785715" />
    <path
       inkscape:connector-curvature="0"
       id="path226"
       d="m 363.83407,29.968521 c -5.68481,0 -9.57569,2.143218 -11.68054,4.900781 -2.10484,2.757577 -2.48128,5.750207 -2.48128,7.575109 v 0.651206 h -1.49289 a 2.7235048,2.7235048 0 0 0 -1.76571,0.651206 V 33.324945 a 2.7235048,2.7235048 0 0 0 -2.72324,-2.723233 h -6.48375 a 2.7235048,2.7235048 0 0 0 -2.72323,2.723233 v 9.649693 c -1.24331,-0.286423 -2.52955,-0.460736 -3.86606,-0.460736 -4.84722,0 -8.80532,1.675972 -11.28158,4.661406 -2.47625,2.985447 -3.40788,6.936568 -3.40788,11.188924 0,1.977787 0.34534,3.843754 0.86998,5.608615 a 2.7235048,2.7235048 0 0 0 -1.97936,-0.301156 c 0,0 -0.22978,0.01726 -0.33461,0.03347 -0.0975,-0.415375 -0.23164,-1.21202 -0.23166,-2.545625 V 33.324958 a 2.7235048,2.7235048 0 0 0 -2.72323,-2.723233 h -6.48375 a 2.7235048,2.7235048 0 0 0 -2.72322,2.723233 v 10.442477 c -1.85461,-0.859652 -3.8446,-1.25352 -5.82998,-1.25352 -2.15812,0 -4.18281,0.748464 -6.1131,1.801761 a 2.7235048,2.7235048 0 0 0 -2.27022,-1.220046 h -4.53271 a 2.7235048,2.7235048 0 0 0 -2.72323,2.723234 v 25.355875 a 2.7235048,2.7235048 0 0 0 2.72323,2.723234 h 6.32675 a 2.7235048,2.7235048 0 0 0 2.72323,-2.723234 V 54.377213 c 0.68552,-0.401314 1.3752,-0.880289 2.02054,-0.880289 0.9898,0 2.91491,0.543049 3.70647,1.070759 a 2.7235048,2.7235048 0 0 0 3.96902,-1.096497 v 9.00621 c 0,2.587428 0.31697,5.432695 1.9948,7.889128 1.67783,2.456433 4.82332,4.059106 8.79257,4.059106 2.36426,0 4.37571,-0.646067 4.37571,-0.646067 a 2.7235048,2.7235048 0 0 0 1.84551,-3.29206 l -0.77218,-2.962609 c 0.43102,0.71702 0.68215,1.556693 1.23034,2.185271 2.57983,2.958155 6.46393,4.715465 10.9341,4.715465 2.26874,0 4.53026,-0.634087 6.75143,-1.585554 l 0.036,0.04375 a 2.7235048,2.7235048 0 0 0 2.12092,1.014131 h 4.05911 a 2.7235048,2.7235048 0 0 0 2.72323,-2.723234 v -18.22607 a 2.7235048,2.7235048 0 0 0 1.76572,0.653789 h 1.49288 v 17.572281 a 2.7235048,2.7235048 0 0 0 2.72323,2.723234 h 6.48376 a 2.7235048,2.7235048 0 0 0 2.72323,-2.723234 V 53.602445 h 6.66136 a 2.7235048,2.7235048 0 0 0 2.72322,-2.723234 v -0.118343 l 0.42984,1.649891 a 2.7235048,2.7235048 0 0 0 3.94585,1.70138 c 1.03646,-0.568365 3.94257,-1.3539 5.22768,-1.3539 1.51622,0 1.72211,0.168184 2.12865,0.296003 -2.69868,0.137677 -5.38017,0.426657 -7.8222,1.364194 -1.8325,0.703524 -3.5697,1.787001 -4.83386,3.446499 -1.26417,1.659499 -1.94847,3.834187 -1.94848,6.24696 0,3.184588 1.46456,6.002286 3.7039,7.757843 2.23936,1.75557 5.11685,2.555931 8.1388,2.555931 2.25783,0 4.31532,-0.55885 6.23408,-1.392501 a 2.7235048,2.7235048 0 0 0 1.98966,0.864844 h 5.06036 a 2.7235048,2.7235048 0 0 0 2.72324,-2.723233 v -9.271336 c 0.64621,3.207664 2.19494,6.038777 4.49667,8.154241 3.09462,2.844213 7.42179,4.367985 12.32659,4.367985 4.53263,0 7.8672,-1.155523 9.32797,-1.842944 a 2.7235048,2.7235048 0 0 0 1.47743,-3.150496 l -1.2638,-4.849306 a 2.7235048,2.7235048 0 0 0 -3.80686,-1.77087 c -0.97478,0.464175 -2.40181,1.106789 -5.26113,1.106789 -2.02238,0 -3.35757,-0.606294 -4.2573,-1.498035 -0.89972,-0.891741 -1.45428,-2.160956 -1.45428,-3.950989 0,-1.914398 0.52302,-3.169248 1.3539,-4.00763 0.83087,-0.838381 2.12589,-1.438836 4.35768,-1.438836 2.88881,0 4.0908,0.583573 5.02175,1.091357 a 2.7235048,2.7235048 0 0 0 3.81716,-1.351318 2.7235048,2.7235048 0 0 0 1.96134,0.839106 h 1.49288 v 9.400025 c 0,2.464881 0.24603,5.329072 2.1544,7.726966 1.90836,2.397894 5.23475,3.696181 9.74236,3.696181 2.97753,0 6.06212,-0.788882 8.19284,-1.603569 a 2.7235048,2.7235048 0 0 0 1.69109,-3.106742 L 446.388,65.234129 a 2.7235048,2.7235048 0 0 0 -3.39245,-2.059152 c -0.83451,0.231811 -2.65278,0.638331 -3.96388,0.638331 -1.28551,0 -1.45994,-0.26145 -1.44655,-0.247099 0.0134,0.01436 -0.10042,-0.113599 -0.10042,-0.720696 v -9.243016 h 6.02817 a 2.7235048,2.7235048 0 0 0 2.72322,-2.723233 v -5.060361 a 2.7235048,2.7235048 0 0 0 -2.72322,-2.723233 h -6.02817 v -5.237968 a 2.7235048,2.7235048 0 0 0 -2.72323,-2.723234 h -6.48375 a 2.7235048,2.7235048 0 0 0 -2.72324,2.723234 v 5.237968 h -1.49288 a 2.7235048,2.7235048 0 0 0 -2.29596,1.258659 c -1.81893,-1.010599 -4.53466,-1.840374 -9.18895,-1.840374 -4.88281,0 -9.17463,1.461727 -12.23137,4.298481 -2.62351,2.434728 -3.97962,5.937895 -4.38084,9.809285 v -1.104219 c 0,-4.127344 -1.15642,-7.674726 -3.80686,-9.95342 -2.65045,-2.278706 -6.27337,-3.050127 -10.56602,-3.050127 -1.87676,0 -3.88047,0.214797 -5.6704,0.548255 -1.78993,0.333457 -3.17589,0.566006 -4.64338,1.544357 a 2.7235048,2.7235048 0 0 0 -0.42986,0.357785 2.7235048,2.7235048 0 0 0 -2.58422,-1.868682 h -6.66136 v -0.862274 c 0,-0.845287 0.48121,-1.703937 2.70779,-1.703937 1.86954,0 2.54017,0.26004 3.38473,0.720697 a 2.7235048,2.7235048 0 0 0 3.94069,-1.70395 l 1.26639,-4.849306 a 2.7235048,2.7235048 0 0 0 -1.29728,-3.057837 c -3.02234,-1.704925 -6.36347,-1.670489 -7.77071,-1.670489 z M 102.94982,42.513902 c -4.63688,0 -8.737656,1.523008 -11.608463,4.386 -2.870807,2.862992 -4.398862,6.95569 -4.398862,11.569864 0,4.546699 1.526882,8.618456 4.370541,11.495207 2.84366,2.876764 6.921571,4.460643 11.531254,4.460643 4.61566,0 8.71489,-1.597058 11.58272,-4.488951 2.86787,-2.891892 4.42719,-6.990969 4.42719,-11.572433 0,-4.547003 -1.53276,-8.603789 -4.38342,-11.454037 -2.85066,-2.850249 -6.92323,-4.396293 -11.52096,-4.396293 z m 32.74309,0 c -2.96713,0 -5.45867,0.774136 -7.71925,1.755438 l -0.0489,-0.06431 a 2.7235048,2.7235048 0 0 0 -2.19299,-1.109372 h -4.05911 a 2.7235048,2.7235048 0 0 0 -2.72322,2.723233 V 84.82695 a 2.7235048,2.7235048 0 0 0 2.72322,2.72322 h 6.48375 a 2.7235048,2.7235048 0 0 0 2.72324,-2.72322 v -10.826 c 1.21294,0.272493 2.4343,0.424706 3.65499,0.424706 4.47018,0 8.35427,-1.75731 10.93409,-4.715464 1.6543,-1.896871 2.58046,-4.311673 3.1711,-6.893013 0.66035,2.811806 1.72739,5.397851 3.67301,7.299703 2.92223,2.856482 7.10463,4.308774 11.90705,4.308774 3.68664,0 7.23915,-0.636235 10.58661,-1.714242 a 2.7235048,2.7235048 0 0 0 1.80176,-3.279198 l -1.26638,-4.849306 a 2.7235048,2.7235048 0 0 0 -0.70783,-1.232921 2.7235048,2.7235048 0 0 0 2.64086,-2.718081 v 10.542858 a 2.7235048,2.7235048 0 0 0 2.72322,2.723233 h 6.48377 a 2.7235048,2.7235048 0 0 0 2.72322,-2.723233 V 54.052915 c 1.27587,-0.354728 2.75677,-0.818508 3.33841,-0.818508 0.9461,0 1.09362,0.171914 1.31527,0.453013 0.22167,0.281099 0.4942,0.973093 0.4942,2.095182 v 15.392164 a 2.7235048,2.7235048 0 0 0 2.72323,2.723233 h 6.48632 a 2.7235048,2.7235048 0 0 0 2.72324,-2.723233 V 56.572763 c 0,-3.730023 -0.50431,-7.137989 -2.47614,-9.855608 -1.97181,-2.717633 -5.40979,-4.203253 -9.57762,-4.203253 -2.51995,0 -5.06088,0.648755 -7.57768,1.606138 a 2.7235048,2.7235048 0 0 0 -2.1235,-1.024423 h -4.53272 a 2.7235048,2.7235048 0 0 0 -2.72322,2.723234 v 12.334313 c 0,-4.566112 -1.07861,-8.509088 -3.5752,-11.356226 -2.49659,-2.847125 -6.29031,-4.283036 -10.64067,-4.283036 -7.1733,0 -12.40659,4.813315 -14.27765,11.091113 -0.45085,-2.331777 -1.16602,-4.523479 -2.53275,-6.331896 -2.26441,-2.996214 -6.02292,-4.759217 -10.55573,-4.759217 z m 129.21435,0 c -4.63688,0 -8.73765,1.523008 -11.60846,4.386 -2.87081,2.862992 -4.39886,6.95569 -4.39886,11.569864 0,4.546699 1.52688,8.618456 4.37054,11.495207 2.84366,2.876764 6.92157,4.460643 11.53125,4.460643 4.61567,0 8.71296,-1.596913 11.58015,-4.488951 2.8672,-2.892051 4.42719,-6.991259 4.42719,-11.572433 0,-4.546713 -1.53084,-8.603631 -4.38085,-11.454037 -2.85002,-2.850407 -6.92323,-4.396293 -11.52096,-4.396293 z m 196.45081,0 c -4.63688,0 -8.73959,1.523166 -11.61104,4.386 -2.87146,2.862834 -4.39887,6.9554 -4.39887,11.569864 0,4.546989 1.52882,8.618601 4.37313,11.495207 2.8443,2.876605 6.92157,4.460643 11.53125,4.460643 4.61566,0 8.71296,-1.596913 11.58016,-4.488951 2.86719,-2.892051 4.42718,-6.991259 4.42718,-11.572433 0,-4.5467 -1.53084,-8.603631 -4.38085,-11.454037 -2.85002,-2.850407 -6.92322,-4.396293 -11.52096,-4.396293 z m 31.58225,0 c -2.15813,0 -4.18282,0.748464 -6.11311,1.801761 a 2.7235048,2.7235048 0 0 0 -2.26764,-1.220046 h -4.53529 a 2.7235048,2.7235048 0 0 0 -2.72322,2.723234 v 25.355875 a 2.7235048,2.7235048 0 0 0 2.72322,2.723234 h 6.32676 a 2.7235048,2.7235048 0 0 0 2.72322,-2.723234 V 54.3772 c 0.68553,-0.401314 1.3752,-0.880289 2.02054,-0.880289 0.98983,0 2.91876,0.543893 3.70905,1.070759 a 2.7235048,2.7235048 0 0 0 3.94842,-1.050174 l 8.04099,17.891466 -5.32291,12.339466 a 2.7235048,2.7235048 0 0 0 2.50188,3.801702 h 7.11437 a 2.7235048,2.7235048 0 0 0 2.53018,-1.714242 l 15.55174,-39.00806 a 2.7235048,2.7235048 0 0 0 -2.53018,-3.732211 h -6.69482 a 2.7235048,2.7235048 0 0 0 -2.56879,1.817207 l -4.40659,12.509338 -4.87761,-12.586565 a 2.7235048,2.7235048 0 0 0 -2.5379,-1.73998 h -7.27396 a 2.7235048,2.7235048 0 0 0 -0.9781,0.185331 c -1.4241,-0.46498 -2.88434,-0.767046 -4.36025,-0.767046 z m -285.83603,0.581715 a 2.7235048,2.7235048 0 0 0 -2.56107,3.649845 l 9.17353,25.355889 a 2.7235048,2.7235048 0 0 0 2.56107,1.796609 h 6.16716 a 2.7235048,2.7235048 0 0 0 2.58681,-1.871252 l 3.22772,-9.801563 3.13505,9.780965 a 2.7235048,2.7235048 0 0 0 2.59453,1.89185 h 6.06422 a 2.7235048,2.7235048 0 0 0 2.55848,-1.791469 l 9.225,-25.355876 a 2.7235048,2.7235048 0 0 0 -2.55848,-3.654998 h -6.80036 a 2.7235048,2.7235048 0 0 0 -2.62284,1.987079 l -2.68977,9.572479 -2.77471,-9.593064 a 2.7235048,2.7235048 0 0 0 -2.61511,-1.966494 h -7.0629 a 2.7235048,2.7235048 0 0 0 -2.61512,1.958771 l -2.81589,9.639401 -2.70007,-9.611093 a 2.7235048,2.7235048 0 0 0 -2.62283,-1.987079 z m -43.93972,9.873637 c 1.00697,0 1.26363,0.190667 1.50318,0.458153 h -3.42076 c 0.35967,-0.258577 0.83937,-0.458153 1.91758,-0.458153 z m -60.32028,0.05403 c 1.43334,0 2.20801,0.45843 2.89569,1.338455 0.68767,0.880026 1.18143,2.326756 1.18143,4.108012 0,1.87593 -0.47899,3.316506 -1.12996,4.156903 -0.65097,0.840398 -1.38783,1.29212 -2.94716,1.29212 -1.38618,0 -2.12668,-0.447544 -2.80559,-1.335872 -0.67892,-0.888328 -1.166,-2.353285 -1.166,-4.113151 0,-1.695582 0.485051,-3.171002 1.17372,-4.079704 0.68866,-0.908702 1.43329,-1.366763 2.79787,-1.366763 z m 161.95744,0 c 1.43335,0 2.20802,0.45843 2.89569,1.338455 0.68767,0.880026 1.18143,2.326756 1.18143,4.108012 0,1.87593 -0.47899,3.316519 -1.12996,4.156903 -0.65097,0.840398 -1.38782,1.29212 -2.94716,1.29212 -1.38616,0 -2.12668,-0.447544 -2.80559,-1.335872 -0.67892,-0.888328 -1.166,-2.353285 -1.166,-4.113151 0,-1.695582 0.48505,-3.171002 1.17372,-4.079704 0.68866,-0.908702 1.43331,-1.366763 2.79787,-1.366763 z m 196.45081,0 c 1.43335,0 2.20802,0.45843 2.89569,1.338455 0.68767,0.880026 1.18143,2.326756 1.18143,4.108012 0,1.87593 -0.47897,3.316506 -1.12996,4.156903 -0.65097,0.840398 -1.38783,1.29212 -2.94716,1.29212 -1.38618,0 -2.12668,-0.447544 -2.80559,-1.335872 -0.6789,-0.888328 -1.166,-2.353285 -1.166,-4.113151 0,-1.695582 0.48507,-3.171002 1.17373,-4.079704 0.68866,-0.908702 1.43328,-1.366763 2.79786,-1.366763 z m -327.14004,0.21107 c 1.61286,0 1.95903,0.302264 2.42466,1.0167 0.46564,0.71445 0.86228,2.274082 0.86228,4.481242 0,2.052523 -0.4867,3.345908 -1.06819,4.043647 -0.58149,0.697753 -1.29965,1.088787 -2.85192,1.088787 -1.05312,0 -1.85309,-0.216708 -2.59969,-0.543102 v -9.286781 c 1.10206,-0.35457 2.21267,-0.800493 3.23286,-0.800493 z m 198.08528,0 c 0.87551,0 1.57428,0.331639 2.28565,0.594578 v 9.425776 c -0.78244,0.371398 -1.61392,0.610022 -2.70521,0.610022 -1.55229,0 -2.27043,-0.391034 -2.85192,-1.088787 -0.5815,-0.697739 -1.06819,-1.991111 -1.06819,-4.043647 0,-2.159177 0.42519,-3.596472 0.97295,-4.311357 0.54775,-0.714884 1.26137,-1.186585 3.36672,-1.186585 z m 51.83656,9.773255 v 0.468446 c -0.66434,0.262293 -1.39687,0.442721 -2.49672,0.442721 -0.78772,0 -1.32726,-0.191142 -1.47229,-0.275406 0.10029,-0.07657 0.47771,-0.292208 1.13769,-0.447874 0.70018,-0.165127 1.83616,-0.136846 2.83132,-0.187887 z m -222.30088,0.34748 h 6.32159 c -1.00448,0.15208 -1.85947,0.509641 -2.99092,0.509641 -1.69197,0 -2.64122,-0.232588 -3.33067,-0.509641 z m 218.29327,0.280558 c -0.12586,-0.08039 0.0181,0.237847 0.0181,0 0,0 -0.003,0.0026 -0.003,0.0026 -10e-4,-8.43e-4 -0.0142,-0.0013 -0.0154,-0.0026 z"
       style="font-style:normal;font-variant:normal;font-weight:bold;font-stretch:normal;font-size:medium;font-family:Cantarell;-inkscape-font-specification:'Cantarell, Bold';font-variant-ligatures:normal;font-variant-caps:normal;font-variant-numeric:normal;font-feature-settings:normal;text-align:start;writing-mode:lr-tb;text-anchor:start;fill:#000000;fill-opacity:1;stroke:none;stroke-width:1.31785715" />
    <path
       inkscape:connector-curvature="0"
       id="path73"
       style="font-style:normal;font-variant:normal;font-weight:bold;font-stretch:normal;font-size:medium;font-family:Cantarell;-inkscape-font-specification:'Cantarell, Bold';font-variant-ligatures:normal;font-variant-caps:normal;font-variant-numeric:normal;font-feature-settings:normal;text-align:start;writing-mode:lr-tb;text-anchor:start;fill:#ffffff;fill-opacity:1;stroke:none;stroke-width:1.31785715;stroke-opacity:1"
       d="m 102.84537,71.701698 c 8.01281,0 13.28439,-5.377016 13.28439,-13.337124 0,-7.90738 -5.16615,-13.126239 -13.17896,-13.126239 -8.118255,0 -13.2844,5.166145 -13.2844,13.231681 0,7.907381 5.166145,13.231682 13.17897,13.231682 z m 0,-21.402647 c 4.37542,0 6.80034,3.637391 6.80034,8.170965 0,4.638989 -2.26678,8.170952 -6.80034,8.170952 -4.322706,0 -6.694928,-3.690106 -6.694928,-8.170952 0,-4.375418 2.372222,-8.170965 6.694928,-8.170965 z" />
    <path
       inkscape:connector-curvature="0"
       id="path75"
       style="font-style:normal;font-variant:normal;font-weight:bold;font-stretch:normal;font-size:medium;font-family:Cantarell;-inkscape-font-specification:'Cantarell, Bold';font-variant-ligatures:normal;font-variant-caps:normal;font-variant-numeric:normal;font-feature-settings:normal;text-align:start;writing-mode:lr-tb;text-anchor:start;fill:#ffffff;fill-opacity:1;stroke:none;stroke-width:1.31785715;stroke-opacity:1"
       d="m 128.15557,84.827951 v -14.65502 c 2.10863,1.054325 4.21727,1.528767 6.37862,1.528767 7.59108,0 12.07193,-5.6406 12.07193,-13.337124 0,-7.69651 -3.11023,-13.126239 -10.91217,-13.126239 -3.42654,0 -6.22049,1.001597 -8.64541,2.372208 l -1.3179,-1.792338 h -4.05912 v 39.009746 z m 0,-32.894704 c 1.26518,-0.527156 3.69012,-1.423326 5.9569,-1.423326 4.53356,0 6.00961,3.268379 6.00961,8.223667 0,4.955301 -2.31951,7.854666 -6.6422,7.854666 -2.05592,0 -3.79555,-0.527156 -5.32431,-1.634196 z" />
    <path
       inkscape:connector-curvature="0"
       id="path77"
       style="font-style:normal;font-variant:normal;font-weight:bold;font-stretch:normal;font-size:medium;font-family:Cantarell;-inkscape-font-specification:'Cantarell, Bold';font-variant-ligatures:normal;font-variant-caps:normal;font-variant-numeric:normal;font-feature-settings:normal;text-align:start;writing-mode:lr-tb;text-anchor:start;fill:#ffffff;fill-opacity:1;stroke:none;stroke-width:1.31785715;stroke-opacity:1"
       d="m 165.06326,66.588254 c -6.22047,0 -7.64379,-2.688508 -7.90738,-5.956886 h 17.39625 v -2.477651 c 0,-8.276393 -3.90098,-12.915382 -11.49206,-12.915382 -7.53837,0 -12.44094,5.904171 -12.44094,13.231681 0,8.223666 5.06071,13.231682 13.60069,13.231682 3.37381,0 6.6422,-0.579871 9.75244,-1.581482 l -1.26519,-4.849859 c -2.31949,0.896169 -4.84986,1.317897 -7.64381,1.317897 z m -7.85465,-10.437746 c 0.31629,-3.057521 1.63418,-5.904171 5.95689,-5.904171 3.16295,0 4.90257,1.845053 4.90257,5.904171 z" />
    <path
       inkscape:connector-curvature="0"
       id="path79"
       style="font-style:normal;font-variant:normal;font-weight:bold;font-stretch:normal;font-size:medium;font-family:Cantarell;-inkscape-font-specification:'Cantarell, Bold';font-variant-ligatures:normal;font-variant-caps:normal;font-variant-numeric:normal;font-feature-settings:normal;text-align:start;writing-mode:lr-tb;text-anchor:start;fill:#ffffff;fill-opacity:1;stroke:none;stroke-width:1.31785715;stroke-opacity:1"
       d="m 203.5615,56.572236 c 0,-6.90577 -2.10863,-11.333901 -9.33071,-11.333901 -2.84665,0 -5.79874,0.738013 -8.75083,2.214065 l -0.94889,-1.634195 h -4.53356 v 25.356337 h 6.48406 V 51.933247 c 2.58306,-0.948884 4.58627,-1.423326 6.06231,-1.423326 3.16296,0 4.53358,2.214066 4.53358,5.271587 v 15.393034 h 6.48404 z" />
    <path
       inkscape:connector-curvature="0"
       id="path81"
       style="font-style:normal;font-variant:normal;font-weight:bold;font-stretch:normal;font-size:medium;font-family:Cantarell;-inkscape-font-specification:'Cantarell, Bold';font-variant-ligatures:normal;font-variant-caps:normal;font-variant-numeric:normal;font-feature-settings:normal;text-align:start;writing-mode:lr-tb;text-anchor:start;fill:#ffffff;fill-opacity:1;stroke:none;stroke-width:1.31785715;stroke-opacity:1"
       d="M 219.22966,64.585058 213.95807,45.818205 H 207.105 l 9.17257,25.356337 h 6.16775 l 5.85146,-17.765256 5.69332,17.765256 h 6.06232 l 9.22528,-25.356337 h -6.80034 l -5.27159,18.766853 -5.42974,-18.766853 h -7.06393 z" />
    <path
       inkscape:connector-curvature="0"
       id="path83"
       style="font-style:normal;font-variant:normal;font-weight:bold;font-stretch:normal;font-size:medium;font-family:Cantarell;-inkscape-font-specification:'Cantarell, Bold';font-variant-ligatures:normal;font-variant-caps:normal;font-variant-numeric:normal;font-feature-settings:normal;text-align:start;writing-mode:lr-tb;text-anchor:start;fill:#ffffff;fill-opacity:1;stroke:none;stroke-width:1.31785715;stroke-opacity:1"
       d="m 264.80252,71.701698 c 8.01282,0 13.28441,-5.377016 13.28441,-13.337124 0,-7.90738 -5.16616,-13.126239 -13.17897,-13.126239 -8.11825,0 -13.28441,5.166145 -13.28441,13.231681 0,7.907381 5.16616,13.231682 13.17897,13.231682 z m 0,-21.402647 c 4.37542,0 6.80035,3.637391 6.80035,8.170965 0,4.638989 -2.26678,8.170952 -6.80035,8.170952 -4.32269,0 -6.69491,-3.690106 -6.69491,-8.170952 0,-4.375418 2.37222,-8.170965 6.69491,-8.170965 z" />
    <path
       inkscape:connector-curvature="0"
       id="path85"
       style="font-style:normal;font-variant:normal;font-weight:bold;font-stretch:normal;font-size:medium;font-family:Cantarell;-inkscape-font-specification:'Cantarell, Bold';font-variant-ligatures:normal;font-variant-caps:normal;font-variant-numeric:normal;font-feature-settings:normal;text-align:start;writing-mode:lr-tb;text-anchor:start;fill:#ffffff;fill-opacity:1;stroke:none;stroke-width:1.31785715;stroke-opacity:1"
       d="m 283.57595,45.818205 v 25.356337 h 6.32591 V 52.723987 c 1.47604,-1.265182 3.05752,-1.950494 4.74443,-1.950494 1.63418,0 3.79554,0.57987 5.21887,1.528767 l 1.3179,-6.062328 c -1.47605,-0.685312 -3.05752,-1.001597 -4.69172,-1.001597 -2.6885,0 -5.21887,1.107026 -7.59108,3.268378 l -0.79074,-2.688508 z" />
    <path
       inkscape:connector-curvature="0"
       id="path87"
       style="font-style:normal;font-variant:normal;font-weight:bold;font-stretch:normal;font-size:medium;font-family:Cantarell;-inkscape-font-specification:'Cantarell, Bold';font-variant-ligatures:normal;font-variant-caps:normal;font-variant-numeric:normal;font-feature-settings:normal;text-align:start;writing-mode:lr-tb;text-anchor:start;fill:#ffffff;fill-opacity:1;stroke:none;stroke-width:1.31785715;stroke-opacity:1"
       d="m 313.95348,66.482825 c -2.05592,0 -2.42494,-2.055923 -2.42494,-5.324301 V 33.324536 h -6.48405 v 29.151885 c 0,4.638989 1.37062,9.225277 8.06553,9.225277 1.84506,0 3.58468,-0.527156 3.58468,-0.527156 l -1.26518,-4.84986 c 0,0 -0.6853,0.158143 -1.47604,0.158143 z" />
    <path
       inkscape:connector-curvature="0"
       id="path89"
       style="font-style:normal;font-variant:normal;font-weight:bold;font-stretch:normal;font-size:medium;font-family:Cantarell;-inkscape-font-specification:'Cantarell, Bold';font-variant-ligatures:normal;font-variant-caps:normal;font-variant-numeric:normal;font-feature-settings:normal;text-align:start;writing-mode:lr-tb;text-anchor:start;fill:#ffffff;fill-opacity:1;stroke:none;stroke-width:1.31785715;stroke-opacity:1"
       d="m 337.20695,64.84863 c -1.58148,1.212468 -3.37382,1.739624 -5.42974,1.739624 -4.32269,0 -6.6422,-2.899365 -6.6422,-7.854666 0,-4.955288 1.73962,-8.223667 7.06393,-8.223667 1.89778,0 3.95369,0.632585 5.00801,1.423326 z m 0,-17.923399 c -1.89777,-1.15974 -4.05912,-1.686896 -6.58948,-1.686896 -8.53998,0 -11.9665,5.429729 -11.9665,13.126239 0,7.696524 4.48084,13.337124 12.07193,13.337124 2.53036,0 5.06073,-0.685312 7.59108,-2.161352 l 1.31789,1.634196 h 4.05914 V 33.324536 h -6.48406 z" />
    <path
       inkscape:connector-curvature="0"
       id="path91"
       style="font-style:normal;font-variant:normal;font-weight:bold;font-stretch:normal;font-size:medium;font-family:Cantarell;-inkscape-font-specification:'Cantarell, Bold';font-variant-ligatures:normal;font-variant-caps:normal;font-variant-numeric:normal;font-feature-settings:normal;text-align:start;writing-mode:lr-tb;text-anchor:start;fill:#ffffff;fill-opacity:1;stroke:none;stroke-width:1.31785715;stroke-opacity:1"
       d="m 352.39572,42.444385 v 3.37382 h -4.21727 v 5.060716 h 4.21727 v 20.295621 h 6.48405 V 50.878921 h 9.38342 v -5.060716 h -9.38342 v -3.584677 c 0,-2.424936 2.10864,-4.428132 5.42973,-4.428132 2.21407,0 3.53196,0.421727 4.69172,1.054312 l 1.26518,-4.849859 c -2.05592,-1.159754 -5.27159,-1.317897 -6.43134,-1.317897 -10.12145,0 -11.43934,6.958497 -11.43934,9.752433 z" />
    <path
       inkscape:connector-curvature="0"
       id="path93"
       style="font-style:normal;font-variant:normal;font-weight:bold;font-stretch:normal;font-size:medium;font-family:Cantarell;-inkscape-font-specification:'Cantarell, Bold';font-variant-ligatures:normal;font-variant-caps:normal;font-variant-numeric:normal;font-feature-settings:normal;text-align:start;writing-mode:lr-tb;text-anchor:start;fill:#ffffff;fill-opacity:1;stroke:none;stroke-width:1.31785715;stroke-opacity:1"
       d="m 386.75739,65.164928 c -1.37061,0.843455 -2.89936,1.47604 -5.21886,1.47604 -2.3195,0 -4.21727,-0.896169 -4.21727,-3.004807 0,-3.531962 5.53517,-3.531962 9.43613,-3.531962 z m 0,-9.541576 c -7.80194,0 -15.92019,0.738027 -15.92019,8.487264 0,4.84986 4.05912,7.591082 9.11985,7.591082 2.95209,0 5.42973,-0.738027 7.38023,-2.26678 l 0.84345,1.739624 h 5.06072 V 55.517924 c 0,-7.32751 -3.74282,-10.279589 -11.6502,-10.279589 -3.32111,0 -7.53838,0.790727 -8.80355,1.634182 l 1.26517,4.849859 c 1.63419,-0.896169 4.53357,-1.686909 6.53677,-1.686909 4.79714,0 6.16775,1.107039 6.16775,5.587885 z" />
    <path
       inkscape:connector-curvature="0"
       id="path95"
       style="font-style:normal;font-variant:normal;font-weight:bold;font-stretch:normal;font-size:medium;font-family:Cantarell;-inkscape-font-specification:'Cantarell, Bold';font-variant-ligatures:normal;font-variant-caps:normal;font-variant-numeric:normal;font-feature-settings:normal;text-align:start;writing-mode:lr-tb;text-anchor:start;fill:#ffffff;fill-opacity:1;stroke:none;stroke-width:1.31785715;stroke-opacity:1"
       d="m 404.82659,58.470016 c 0,-4.902574 2.89937,-8.170965 8.43453,-8.170965 3.32111,0 5.16616,0.790741 6.32591,1.423325 l 1.26517,-4.849859 c -1.26517,-0.790741 -3.58467,-1.634182 -8.27638,-1.634182 -8.69812,0 -14.23329,5.11343 -14.23329,13.231681 0,7.907381 5.74603,13.231682 14.44415,13.231682 4.00641,0 7.2748,-1.159754 8.17097,-1.581482 l -1.26519,-4.849859 c -1.10704,0.527156 -3.11023,1.370611 -6.43134,1.370611 -5.21887,0 -8.43453,-3.373807 -8.43453,-8.170952 z" />
    <path
       inkscape:connector-curvature="0"
       id="path97"
       style="font-style:normal;font-variant:normal;font-weight:bold;font-stretch:normal;font-size:medium;font-family:Cantarell;-inkscape-font-specification:'Cantarell, Bold';font-variant-ligatures:normal;font-variant-caps:normal;font-variant-numeric:normal;font-feature-settings:normal;text-align:start;writing-mode:lr-tb;text-anchor:start;fill:#ffffff;fill-opacity:1;stroke:none;stroke-width:1.31785715;stroke-opacity:1"
       d="m 444.67237,70.278372 -0.94889,-4.480859 c -0.94888,0.263585 -2.89936,0.738026 -4.6917,0.738026 -3.47925,0 -4.26999,-1.739624 -4.26999,-3.690105 V 50.878921 h 8.75084 v -5.060716 h -8.75084 V 37.85811 h -6.48405 v 7.960095 h -4.21728 v 5.060716 h 4.21728 v 12.124656 c 0,4.480846 1.10704,8.698121 9.17256,8.698121 2.42494,0 5.42973,-0.738027 7.22207,-1.423326 z" />
    <path
       inkscape:connector-curvature="0"
       id="path99"
       style="font-style:normal;font-variant:normal;font-weight:bold;font-stretch:normal;font-size:medium;font-family:Cantarell;-inkscape-font-specification:'Cantarell, Bold';font-variant-ligatures:normal;font-variant-caps:normal;font-variant-numeric:normal;font-feature-settings:normal;text-align:start;writing-mode:lr-tb;text-anchor:start;fill:#ffffff;fill-opacity:1;stroke:none;stroke-width:1.31785715;stroke-opacity:1"
       d="m 461.25152,71.701698 c 8.01281,0 13.2844,-5.377016 13.2844,-13.337124 0,-7.90738 -5.16614,-13.126239 -13.17897,-13.126239 -8.11823,0 -13.28439,5.166145 -13.28439,13.231681 0,7.907381 5.16616,13.231682 13.17896,13.231682 z m 0,-21.402647 c 4.37542,0 6.80036,3.637391 6.80036,8.170965 0,4.638989 -2.26679,8.170952 -6.80036,8.170952 -4.3227,0 -6.69491,-3.690106 -6.69491,-8.170952 0,-4.375418 2.37221,-8.170965 6.69491,-8.170965 z" />
    <path
       inkscape:connector-curvature="0"
       id="path101"
       style="font-style:normal;font-variant:normal;font-weight:bold;font-stretch:normal;font-size:medium;font-family:Cantarell;-inkscape-font-specification:'Cantarell, Bold';font-variant-ligatures:normal;font-variant-caps:normal;font-variant-numeric:normal;font-feature-settings:normal;text-align:start;writing-mode:lr-tb;text-anchor:start;fill:#ffffff;fill-opacity:1;stroke:none;stroke-width:1.31785715;stroke-opacity:1"
       d="m 480.02494,45.818205 v 25.356337 h 6.3259 V 52.723987 c 1.47604,-1.265182 3.05752,-1.950494 4.74443,-1.950494 1.6342,0 3.79554,0.57987 5.21887,1.528767 l 1.3179,-6.062328 c -1.47605,-0.685312 -3.05752,-1.001597 -4.69172,-1.001597 -2.6885,0 -5.21887,1.107026 -7.59108,3.268378 l -0.79074,-2.688508 z" />
    <path
       inkscape:connector-curvature="0"
       id="path103"
       style="font-style:normal;font-variant:normal;font-weight:bold;font-stretch:normal;font-size:medium;font-family:Cantarell;-inkscape-font-specification:'Cantarell, Bold';font-variant-ligatures:normal;font-variant-caps:normal;font-variant-numeric:normal;font-feature-settings:normal;text-align:start;writing-mode:lr-tb;text-anchor:start;fill:#ffffff;fill-opacity:1;stroke:none;stroke-width:1.31785715;stroke-opacity:1"
       d="m 498.2778,45.818205 11.49206,25.567194 -5.79874,13.442552 h 7.11664 l 15.55119,-39.009746 h -6.69492 l -6.85306,19.452152 -7.53837,-19.452152 z" />
  </g>
</svg>
