<?xml version="1.0" encoding="UTF-8" standalone="no"?>
<!-- Created with Inkscape (http://www.inkscape.org/) -->

<svg
   xmlns:osb="http://www.openswatchbook.org/uri/2009/osb"
   xmlns:dc="http://purl.org/dc/elements/1.1/"
   xmlns:cc="http://creativecommons.org/ns#"
   xmlns:rdf="http://www.w3.org/1999/02/22-rdf-syntax-ns#"
   xmlns:svg="http://www.w3.org/2000/svg"
   xmlns="http://www.w3.org/2000/svg"
   xmlns:sodipodi="http://sodipodi.sourceforge.net/DTD/sodipodi-0.dtd"
   xmlns:inkscape="http://www.inkscape.org/namespaces/inkscape"
   width="48"
   height="48"
   viewBox="0 0 12.7 12.7"
   version="1.1"
   id="svg8"
   inkscape:version="0.92+devel unknown"
   sodipodi:docname="icon.svg"
   inkscape:export-xdpi="768"
   inkscape:export-ydpi="768">
  <defs
     id="defs2">
    <linearGradient
       id="linearGradient6082"
       osb:paint="solid">
      <stop
         style="stop-color:#ff0000;stop-opacity:1;"
         offset="0"
         id="stop6080" />
    </linearGradient>
  </defs>
  <sodipodi:namedview
     id="base"
     pagecolor="#ffffff"
     bordercolor="#666666"
     borderopacity="1.0"
     inkscape:pageopacity="0.0"
     inkscape:pageshadow="2"
     inkscape:zoom="4.304635"
     inkscape:cx="-13.819591"
     inkscape:cy="31.960802"
     inkscape:document-units="mm"
     inkscape:current-layer="layer1"
     inkscape:document-rotation="0"
     showgrid="false"
     inkscape:window-width="1366"
     inkscape:window-height="731"
     inkscape:window-x="0"
     inkscape:window-y="0"
     inkscape:window-maximized="1"
     units="px" />
  <metadata
     id="metadata5">
    <rdf:RDF>
      <cc:Work
         rdf:about="">
        <dc:format>image/svg+xml</dc:format>
        <dc:type
           rdf:resource="http://purl.org/dc/dcmitype/StillImage" />
        <dc:title />
      </cc:Work>
    </rdf:RDF>
  </metadata>
  <g
     inkscape:label="Layer 1"
     inkscape:groupmode="layer"
     id="layer1"
     transform="translate(-67.859423,-142.85975)">
    <g
       id="g37"
       transform="matrix(1,0,0,0.99834166,1.0251957,0.25797624)">
      <rect
         transform="matrix(-0.66304197,-0.74858223,0.76064967,-0.6491626,0,0)"
         style="fill:#800080;stroke:#000000;stroke-width:0"
         id="rect4502"
         width="0.74949777"
         height="2.4342496"
         x="-161.59843"
         y="-41.738503"
         ry="0.37571758" />
      <ellipse
         ry="4.5401039"
         rx="4.5028734"
         transform="matrix(0.53463708,-0.84508176,0.85386463,0.52049514,0,0)"
         cy="142.07465"
         cx="-89.04425"
         id="circle4294"
         style="fill:#00009d;fill-opacity:1;stroke:#000000;stroke-width:0" />
      <path
         inkscape:connector-curvature="0"
         id="path6192"
         d="m 77.265123,146.41097 a 2.081578,4.87157 32.532383 0 1 -1.278674,4.5622 2.081578,4.87157 32.532383 0 1 -2.516411,2.6924 4.5633194,4.4793451 0 0 0 2.093033,-0.37859 3.1095772,7.2774228 32.532383 0 0 1.301252,-1.77865 3.1095772,7.2774228 32.532383 0 0 1.377327,-2.71359 4.5633194,4.4793451 0 0 0 -0.976527,-2.38377 z"
         style="fill:#00008b;fill-opacity:1;stroke:#000000;stroke-width:0" />
      <path
         inkscape:connector-curvature="0"
         id="rect6202"
         d="m 76.695187,145.82126 c -0.152324,0.0222 -0.300405,0.0855 -0.425733,0.19242 l -4.856033,4.1444 c -0.124547,-0.0373 -0.2569,-0.0576 -0.394223,-0.0576 -0.704816,0 -1.278712,0.52914 -1.334625,1.20638 a 4.5633195,4.4793452 0 0 0 1.614194,1.69733 4.5633195,4.4793452 0 0 0 1.060063,0.47138 v -1.94921 l 4.722139,-4.03002 0.582205,0.65734 -0.35427,0.30237 c -0.158328,0.13512 -0.174955,0.36896 -0.0373,0.52438 l 0.920475,1.0393 a 4.5633195,4.4793452 0 0 0 0.06558,-1.05916 l -0.165995,-0.18741 0.142142,-0.12122 a 4.5633195,4.4793452 0 0 0 -0.502596,-1.55443 l -0.138213,-0.156 c 0.0069,-0.0167 0.0132,-0.0335 0.01894,-0.0505 a 4.5633195,4.4793452 0 0 0 -0.916746,-1.06966 z"
         style="fill:#00008b;fill-opacity:1;stroke:#000000;stroke-width:0" />
      <g
         transform="matrix(0.18995728,0,0,0.18646168,54.969033,126.5538)"
         style="fill:#00a035;fill-opacity:1"
         id="g4548">
        <rect
           ry="1.9936157"
           y="154.67783"
           x="15.594605"
           height="12.916506"
           width="3.9872315"
           id="rect4506"
           style="fill:#00a035;fill-opacity:1;stroke:#000000;stroke-width:0"
           transform="rotate(-41.004706)" />
        <rect
           transform="rotate(-131.00471)"
           style="fill:#00a035;fill-opacity:1;stroke:#000000;stroke-width:0"
           id="rect4500"
           width="3.9872315"
           height="12.916506"
           x="-158.66505"
           y="6.6653295"
           ry="1.9936157" />
      </g>
      <path
         inkscape:connector-curvature="0"
         id="path4267"
         d="m 76.638253,142.84528 a 3.1095772,7.2774228 32.532383 0 0 -3.292196,1.88811 c 0.661125,-0.0519 1.33777,0.037 1.98103,0.2777 a 2.081578,4.87157 32.532383 0 1 0.983497,0.071 2.081578,4.87157 32.532383 0 1 -0.82673,5.20037 2.081578,4.87157 32.532383 0 1 -3.066911,2.9886 c -0.03175,0.0166 -0.06548,0.03 -0.101408,0.0397 a 2.081578,4.87157 32.532383 0 1 -1.213787,0.004 2.081578,4.87157 32.532383 0 1 -0.501417,-0.83426 c -0.505329,-0.4597 -0.886576,-1.01619 -1.132214,-1.62149 a 3.1095772,7.2774228 32.532383 0 0 0.347399,4.48886 3.1095772,7.2774228 32.532383 0 0 6.546206,-4.53107 3.1095772,7.2774228 32.532383 0 0 1.235089,-7.76867 3.1095772,7.2774228 32.532383 0 0 -0.958564,-0.2037 z"
         style="fill:#80002f;fill-opacity:1;stroke:#000000;stroke-width:0" />
      <path
         inkscape:connector-curvature="0"
         id="path6246"
         d="m 69.468122,150.85985 a 3.1095771,7.2774228 32.532383 0 0 0.347399,4.48887 3.1095771,7.2774228 32.532383 0 0 1.627644,0.0595 v -1.9757 a 2.081578,4.8715698 32.532383 0 1 -0.341411,-0.11688 2.081578,4.8715698 32.532383 0 1 -0.501418,-0.83426 c -0.505329,-0.45969 -0.886575,-1.01618 -1.132214,-1.62148 z"
         style="fill:#6c0324;fill-opacity:1;stroke:#000000;stroke-width:0" />
      <path
         inkscape:connector-curvature="0"
         id="rect4458"
         d="m 69.19896,148.90432 c -0.742088,0 -1.339536,0.58646 -1.339536,1.31489 v 5.25934 c 0,0.0273 0.0011,0.0543 0.0027,0.0812 h 2.673571 c 0.0016,-0.0268 0.0027,-0.0539 0.0027,-0.0812 v -5.25934 c 0,-0.72843 -0.597446,-1.31489 -1.339533,-1.31489 z"
         style="fill:#00a035;fill-opacity:1;stroke:#000000;stroke-width:0" />
      <path
         inkscape:connector-curvature="0"
         id="rect4472-5"
         d="m 74.45756,145.39357 1.63373,1.84445 c 0.137654,0.15542 0.375974,0.17184 0.534302,0.0368 0.158327,-0.13513 0.174956,-0.36906 0.0373,-0.52447 l -1.201714,-1.3567 z"
         style="fill:#00a035;fill-opacity:1;stroke:#000000;stroke-width:0" />
      <path
         inkscape:connector-curvature="0"
         id="rect4472"
         d="m 74.975959,144.61577 c -0.187127,0.004 -0.373806,0.0712 -0.526742,0.20177 l -5.188808,4.42836 v 2.17506 l 6.285977,-5.36466 c 0.34957,-0.29833 0.386384,-0.81468 0.08246,-1.15781 -0.17096,-0.19302 -0.412289,-0.28888 -0.652882,-0.28272 z"
         style="fill:#00a035;fill-opacity:1;stroke:#000000;stroke-width:0" />
      <path
         inkscape:connector-curvature="0"
         id="rect6100"
         d="m 76.627063,147.82075 a 2.081578,4.87157 32.532383 0 1 -0.286244,0.80979 l 0.625396,0.7062 c 0.04781,0.054 0.107865,0.0907 0.172376,0.11072 a 3.1095772,7.2774228 32.532383 0 0 0.324919,-0.68241 z"
         style="fill:#6c0324;fill-opacity:1;stroke:#000000;stroke-width:0" />
      <rect
         transform="matrix(0.76064971,-0.64916255,0.66304191,0.74858227,0,0)"
         ry="0.37474889"
         y="161.04474"
         x="-41.512711"
         height="2.4279735"
         width="0.75143516"
         id="rect4504"
         style="fill:#00a035;fill-opacity:1;stroke:#000000;stroke-width:0" />
    </g>
  </g>
</svg>
